# https://github.com/mikedh/trimesh
v -0.42756198 0.77935788 -0.08273861
v 0.62102517 0.71844254 -0.02206402
v -0.51504551 -0.87472062 0.05995570
v 0.52233858 -0.96361926 0.12396123
v -0.02862296 -0.53478936 0.91281503
v 0.03235820 0.49306521 0.79392353
v 0.06106852 -0.68119894 -0.77752593
v 0.12431698 0.35507862 -0.85013542
v 0.92543448 -0.18082875 -0.45088404
v 0.86801213 -0.08765849 0.59457110
v -0.77276945 -0.08208932 -0.54724575
v -0.82461127 0.00709893 0.49534257
v 0.10224110 0.89301604 -0.06894760
v -0.01026218 -1.08450535 0.10752382
v -0.31772218 -0.78326510 0.54169894
v 0.27314388 -0.82442188 0.57575726
v -0.24197666 0.77842202 0.43038863
v 0.37571287 0.74049220 0.46347693
v 0.00000041 -0.00000354 1.00000132
v -0.27399170 -0.89667957 -0.41433175
v 0.33277600 -0.94942089 -0.38752512
v -0.19284593 0.68912512 -0.56260866
v 0.42528400 0.64545314 -0.50830499
v 0.10184920 -0.17211636 -0.97356126
v 0.88379711 0.32547624 -0.27566827
v 0.83978239 -0.65515944 -0.19417588
v 0.55575994 -0.47842410 -0.69914031
v 0.61044655 0.12303477 -0.77943146
v 0.86044684 0.38838720 0.33091503
v 0.78824969 -0.58913576 0.40768504
v 0.48368773 -0.34973875 0.88183767
v 0.52134971 0.26474878 0.82971824
v 1.03504731 -0.14280172 0.08044769
v -0.70283305 0.40851142 -0.36155182
v -0.76907448 -0.55858454 -0.28763847
v -0.42726367 -0.43361918 -0.78410310
v -0.39012530 0.18291039 -0.84308116
v -0.74997430 0.48098016 0.24123167
v -0.81524534 -0.51277175 0.32891078
v -0.51269180 -0.29672446 0.82427535
v -0.46003541 0.30429474 0.74207879
v -0.94630956 -0.03480864 -0.03204565
v -0.17370853 0.88870613 -0.07933667
v 0.36049107 0.80588401 -0.04579816
v -0.27951448 -1.01522579 0.09005001
v 0.26428699 -1.06207179 0.11973859
v -0.43661788 -0.87923810 0.32014358
v -0.18125285 -0.68608882 0.73935485
v -0.17855145 -0.97728490 0.34656965
v 0.41000291 -0.93391019 0.37343000
v 0.12855374 -0.72222565 0.78706059
v 0.14160922 -1.02675687 0.37596094
v -0.03192339 -0.88480346 0.61426766
v -0.34655793 0.80683269 0.17790965
v -0.09517067 0.63646193 0.61518192
v -0.07451780 0.88172668 0.18802817
v 0.51736527 0.76559702 0.22872657
v 0.20915132 0.65018758 0.66407982
v 0.24626975 0.83657007 0.20259476
v 0.06779167 0.79668020 0.46477946
v -0.01797881 -0.27377788 1.00200178
v 0.01202570 0.27067977 0.95366019
v -0.41480167 -0.92143585 -0.18382926
v -0.11773174 -0.82925316 -0.62815247
v -0.15620025 -1.04037870 -0.16638911
v 0.44345851 -0.99349863 -0.13857288
v 0.19881527 -0.83001829 -0.59431364
v 0.16683795 -1.06390545 -0.14871056
v 0.02529794 -0.96005613 -0.41888670
v -0.32282268 0.75788515 -0.33127323
v -0.03468629 0.55153959 -0.74277675
v -0.06281975 0.78905369 -0.30226355
v 0.52999673 0.67793174 -0.27618696
v 0.28313207 0.52011760 -0.70301442
v 0.25162529 0.72384543 -0.26248545
v 0.11753138 0.67990281 -0.54286697
v 0.08259308 -0.43916542 -0.90759898
v 0.11734641 0.10299861 -0.95618736
v 0.80217919 0.56048872 -0.15670208
v 0.95079442 0.08549452 -0.38162226
v 0.70514429 0.52831397 -0.42404908
v 0.70733963 -0.83883461 -0.03830468
v 0.91604911 -0.43146509 -0.33631003
v 0.61698618 -0.84329946 -0.30928846
v 0.32600901 -0.60521349 -0.78056085
v 0.75904659 -0.34039578 -0.59823596
v 0.47363789 -0.75437882 -0.58799648
v 0.35034424 -0.34380338 -0.89178228
v 0.73883020 -0.59819489 -0.48484028
v 0.38008978 0.25590235 -0.85384277
v 0.77889611 -0.02973739 -0.62414201
v 0.53988493 0.40676480 -0.67472128
v 0.37193671 -0.02138190 -0.92298977
v 0.79738233 0.24781539 -0.55985295
v 0.60505486 -0.18697345 -0.77342960
v 0.77866987 0.58980960 0.16358249
v 0.89273213 0.15955977 0.47742512
v 0.65391947 0.60382091 0.42041319
v 0.92389943 0.38555614 0.02741456
v 0.68608983 -0.80563047 0.28063250
v 0.86609489 -0.35403515 0.52218678
v 0.57073226 -0.76710078 0.53821814
v 0.86856740 -0.65924983 0.11715541
v 0.23537068 -0.45708745 0.93398373
v 0.69282716 -0.22341637 0.75848000
v 0.39901558 -0.63251219 0.77927380
v 0.24952961 -0.17894472 0.99997698
v 0.67685457 -0.49580899 0.68241258
v 0.28555966 0.40546055 0.85616524
v 0.72004941 0.09530569 0.73943760
v 0.46023260 0.52013815 0.66539677
v 0.26105667 0.13723646 0.94701565
v 0.72843882 0.35056784 0.61046523
v 0.52556275 -0.04050897 0.89829354
v 1.02572415 -0.16473704 -0.19359997
v 0.99426771 -0.11606659 0.35099142
v 1.02472634 0.10789800 -0.10654063
v 0.99341967 -0.41649163 -0.06154031
v 1.00839076 0.13689187 0.21795890
v 0.96922246 -0.38653776 0.26087734
v -0.60081291 0.63082639 -0.23822129
v -0.71463398 0.15064715 -0.43280118
v -0.47635404 0.57993991 -0.48888530
v -0.67985610 -0.75679757 -0.11820847
v -0.80935740 -0.33247420 -0.43751243
v -0.54995822 -0.76019170 -0.36969360
v -0.19229785 -0.57712285 -0.81358463
v -0.62582739 -0.26447382 -0.69286700
v -0.35973971 -0.68439505 -0.61241961
v -0.17327560 -0.31378952 -0.92312543
v -0.63759177 -0.52117069 -0.56796605
v -0.13955244 0.28916030 -0.89697867
v -0.60666743 0.05585859 -0.72026181
v -0.30560976 0.46036004 -0.74009133
v -0.15177410 0.01002375 -0.94592014
v -0.55385992 0.29123827 -0.61255063
v -0.41806522 -0.12677554 -0.82911784
v -0.61605926 0.66197028 0.08144507
v -0.82623237 0.25800344 0.38468157
v -0.52483331 0.66831204 0.35267555
v -0.75786749 0.46775822 -0.06833513
v -0.69722995 -0.73015090 0.20238336
v -0.85648204 -0.25891162 0.42992471
v -0.57371730 -0.66603375 0.45176769
v -0.82955819 -0.55622049 0.01868186
v -0.28442248 -0.43080535 0.90410328
v -0.69920001 -0.14663417 0.68668499
v -0.43818081 -0.57282571 0.71088508
v -0.26419600 -0.15490151 0.94653190
v -0.69944637 -0.42039567 0.60563581
v -0.23343974 0.43291207 0.82217944
v -0.68005415 0.17272345 0.65855758
v -0.36345454 0.54136836 0.59388978
v -0.24000478 0.16621280 0.91008043
v -0.65416489 0.43069451 0.53546879
v -0.51682089 0.01589771 0.83375694
v -0.90302838 -0.05588595 -0.30470349
v -0.93635907 -0.00912906 0.24408124
v -0.87818142 0.21050838 -0.21248540
v -0.90445382 -0.30327674 -0.17099775
v -0.89824165 0.24024506 0.10949385
v -0.92459455 -0.27695256 0.15420532
v -0.30206671 0.83742023 -0.08153263
v -0.03602520 0.90078866 -0.07527599
v 0.48777308 0.75355746 -0.03288227
v 0.23852237 0.86955138 -0.06026353
v -0.40388817 -0.95487746 0.07726888
v -0.14794165 -1.06160387 0.09956486
v 0.39718890 -1.02334003 0.12288888
v 0.12847160 -1.08755868 0.11466873
v -0.47068761 -0.85663584 0.18841935
v -0.38879329 -0.85768692 0.44854044
v -0.34207619 -0.90618267 0.19211342
v -0.10390153 -0.60771147 0.82261381
v -0.26523747 -0.77148394 0.66914900
v -0.09078585 -1.02245826 0.22551893
v -0.25161290 -0.90005732 0.46099854
v -0.21570232 -0.96947515 0.20865339
v -0.29413037 -0.89405512 0.32808950
v 0.46892031 -0.95470469 0.25087249
v 0.34769572 -0.90661684 0.49330149
v 0.34458010 -1.01782470 0.25216498
v 0.05035203 -0.63652227 0.86195179
v 0.20090388 -0.77420553 0.68173184
v -0.03264645 -0.72297153 0.78912910
v 0.06884098 -1.04793252 0.23910569
v 0.20574367 -0.91883298 0.47022925
v 0.20633660 -1.06016428 0.25100314
v -0.02082211 -1.01563904 0.36647310
v 0.28038022 -0.99315208 0.37907601
v -0.16679243 -0.81534559 0.57325048
v 0.11773860 -0.84527795 0.58806117
v -0.11396565 -0.80627300 0.70212756
v -0.09305337 -0.90475709 0.46475459
v 0.04802597 -0.80529785 0.70234571
v 0.05688812 -0.96299546 0.50119112
v -0.39429105 0.80755688 0.04836328
v -0.29934416 0.80530924 0.30766426
v -0.26625271 0.86372694 0.05062626
v -0.03990149 0.59459045 0.73496573
v -0.17360589 0.71652955 0.53409201
v 0.01181595 0.87108830 0.05725307
v -0.16087495 0.84536339 0.31358092
v -0.12550354 0.89482255 0.05513475
v -0.21635949 0.86483463 0.18660912
v 0.57507144 0.75184268 0.10386837
v 0.45135584 0.76374035 0.35018885
v 0.44818848 0.80782083 0.08940452
v 0.12155032 0.59005964 0.75233208
v 0.29472464 0.70380061 0.56948984
v 0.05047661 0.67829612 0.66991096
v 0.17582467 0.87971177 0.06909248
v 0.31810107 0.81964764 0.34065658
v 0.31357816 0.85882536 0.07853299
v 0.08505576 0.85282716 0.19592767
v 0.38751995 0.82493233 0.21933387
v -0.08840112 0.80118546 0.45436114
v 0.22123055 0.76498493 0.46149541
v -0.02197915 0.74888247 0.56580849
v -0.00398210 0.86069853 0.33374119
v 0.13781231 0.72190300 0.56394553
v 0.16119730 0.84853639 0.34141096
v -0.02487426 -0.40720029 0.96663321
v -0.00000443 -0.13795113 0.99043724
v 0.02065261 0.37340246 0.86131476
v 0.00000319 0.13794978 0.99043947
v -0.48155854 -0.92711596 -0.06286475
v -0.35588781 -0.93286964 -0.30855448
v -0.35606549 -0.98787446 -0.04932583
v -0.02881294 -0.76102178 -0.70921757
v -0.20326615 -0.88195039 -0.53214071
v -0.08524377 -1.07264443 -0.02992667
v -0.22314833 -0.99074570 -0.29981532
v -0.21786794 -1.02951217 -0.03789071
v -0.28859612 -0.98758322 -0.17697545
v 0.47752175 -0.96878345 -0.00696656
v 0.39165940 -0.98072144 -0.26629764
v 0.35766481 -1.03996539 -0.00989372
v 0.13270715 -0.77085107 -0.70026836
v 0.26979851 -0.90497073 -0.50221638
v 0.04239195 -0.84851276 -0.62703078
v 0.07857447 -1.08857860 -0.02140871
v 0.25295929 -1.02056833 -0.27279773
v 0.21741627 -1.07441009 -0.01512481
v 0.00432509 -1.06802031 -0.16040707
v 0.30643162 -1.03392723 -0.14461229
v -0.13068979 -0.95712050 -0.43193953
v 0.18084500 -0.97729536 -0.41452487
v -0.04592116 -0.89013925 -0.52067970
v -0.06806172 -1.02425581 -0.30219015
v 0.11381719 -0.92044007 -0.52359108
v 0.09631295 -1.03289248 -0.29221306
v -0.36246501 0.74401828 -0.19949079
v -0.26734103 0.74311470 -0.45726934
v -0.23981342 0.80991336 -0.20318154
v 0.04574895 0.46167741 -0.81044778
v -0.11307429 0.62280621 -0.65404591
v 0.02398341 0.87475736 -0.20374450
v -0.12617453 0.76053743 -0.44127817
v -0.11606216 0.88401590 -0.21058321
v -0.19645959 0.82429682 -0.33979600
v 0.58652236 0.71566372 -0.15583289
v 0.45793876 0.61639253 -0.37741447
v 0.46160910 0.77685074 -0.16798961
v 0.20709774 0.45059151 -0.79490874
v 0.34399409 0.56607920 -0.58788727
v 0.12300530 0.53034015 -0.71677967
v 0.18703121 0.84912793 -0.19341556
v 0.34479754 0.70508361 -0.38727301
v 0.32357838 0.81859299 -0.18334003
v 0.09441210 0.75656476 -0.28236916
v 0.38911375 0.68870869 -0.25568632
v -0.03549421 0.70606456 -0.56617526
v 0.27429714 0.68020739 -0.53385079
v 0.04406744 0.63586227 -0.65749567
v 0.03121450 0.76472614 -0.43404273
v 0.20478961 0.62101387 -0.63940781
v 0.19326814 0.74364702 -0.41338817
v 0.07185515 -0.56561385 -0.85254009
v 0.09256674 -0.30850448 -0.95162181
v 0.12219375 0.23659178 -0.92118991
v 0.11044462 -0.03407835 -0.97569384
v 0.71954671 0.64966703 -0.09031132
v 0.85515417 0.44806710 -0.21854682
v 0.65540683 0.60511070 -0.20579232
v 0.94374957 -0.04747211 -0.41913351
v 0.94125347 0.21600160 -0.33665270
v 0.56752333 0.59099044 -0.46762814
v 0.81771848 0.44068291 -0.35832325
v 0.60127384 0.56798159 -0.33416661
v 0.75608958 0.54673021 -0.29152902
v 0.61752160 -0.90487591 0.04295540
v 0.76254546 -0.73804247 -0.11497502
v 0.58204151 -0.92704926 -0.08981012
v 0.91171549 -0.30397762 -0.38967856
v 0.88510118 -0.54708064 -0.26735840
v 0.47304819 -0.89293389 -0.34663348
v 0.73817643 -0.75836317 -0.25554802
v 0.53474316 -0.92658285 -0.22631750
v 0.66700616 -0.84784722 -0.17541366
v 0.19159275 -0.63598544 -0.76871373
v 0.43401300 -0.53699375 -0.72712434
v 0.26730483 -0.73387897 -0.70405204
v 0.20637704 -0.52908532 -0.85743364
v 0.85816536 -0.26538916 -0.53754915
v 0.68004480 -0.42274313 -0.67659395
v 0.85691528 -0.39326235 -0.48150697
v 0.40791038 -0.86255171 -0.49454914
v 0.52710067 -0.62865236 -0.66521550
v 0.33730384 -0.79610352 -0.59440663
v 0.55040657 -0.80613234 -0.45393183
v 0.40478050 -0.68900348 -0.69543409
v 0.22347813 -0.25607524 -0.92071638
v 0.44629465 -0.40376463 -0.78269433
v 0.21850178 -0.39547664 -0.91207940
v 0.33740207 -0.47363750 -0.83443684
v 0.79922852 -0.63360825 -0.34423963
v 0.66524521 -0.55324053 -0.61588602
v 0.81734083 -0.50916816 -0.40498348
v 0.68105338 -0.72343047 -0.39877487
v 0.76550362 -0.47690655 -0.55549782
v 0.59699253 -0.66630433 -0.52807343
v 0.25469068 0.31271700 -0.86636705
v 0.49561365 0.18973492 -0.81643928
v 0.33720220 0.39942292 -0.79465723
v 0.25156053 0.18363796 -0.91941705
v 0.86981189 -0.10429823 -0.55184169
v 0.69633346 0.04671405 -0.70362002
v 0.88272731 0.03062146 -0.51695757
v 0.79783396 -0.18875478 -0.63720435
v 0.48230945 0.52646841 -0.59239718
v 0.58704337 0.27437771 -0.74369224
v 0.40263664 0.44716491 -0.67491981
v 0.61445162 0.45745879 -0.53919078
v 0.46806648 0.34016867 -0.77840766
v 0.23920646 -0.09691905 -0.95999695
v 0.49580501 0.05220186 -0.86004736
v 0.24672869 0.04233897 -0.95145052
v 0.36472001 -0.18402212 -0.91844835
v 0.37628058 0.11754811 -0.88981143
v 0.86689463 0.29964550 -0.42887858
v 0.70885930 0.18750579 -0.67514358
v 0.88396223 0.16954113 -0.47634244
v 0.76088320 0.39443315 -0.49884475
v 0.78512134 0.10859975 -0.58912871
v 0.67954801 0.33626560 -0.62995863
v 0.59877500 -0.34360400 -0.76616930
v 0.62224211 -0.03288188 -0.79783447
v 0.70252022 -0.26982788 -0.70919496
v 0.49027872 -0.26942560 -0.85456784
v 0.71433739 -0.10874721 -0.72448218
v 0.50061803 -0.10575427 -0.86867833
v 0.70757603 0.66423886 0.07107393
v 0.83461717 0.49934402 0.25275417
v 0.64262229 0.67018852 0.19453878
v 0.79793071 0.58260830 0.00325231
v 0.89422645 0.03867457 0.54436649
v 0.89243330 0.28079965 0.41139680
v 0.51099590 0.66585915 0.43799856
v 0.76811672 0.50413979 0.38090340
v 0.59149381 0.69343393 0.32761553
v 0.72278164 0.60361080 0.29459811
v 0.89414409 0.34785506 -0.12170594
v 0.91365671 0.39831250 0.18395989
v 0.84053082 0.46096734 -0.06182881
v 0.85234887 0.48762733 0.09689973
v 0.61105908 -0.89316322 0.20433190
v 0.75761196 -0.71327458 0.35484998
v 0.55978664 -0.88950652 0.33452487
v 0.68814728 -0.81288152 0.11972383
v 0.87613140 -0.22242396 0.56447323
v 0.84470823 -0.48237315 0.47552980
v 0.42992566 -0.82350139 0.57777362
v 0.69734615 -0.69196006 0.48428044
v 0.49729612 -0.86438738 0.46270724
v 0.63551330 -0.79507691 0.41370791
v 0.84548065 -0.64988635 -0.03749219
v 0.85028882 -0.63891421 0.27225182
v 0.79255618 -0.75339347 0.03941434
v 0.77696704 -0.73181955 0.19921438
v 0.10334266 -0.49535571 0.92235076
v 0.36319134 -0.40693309 0.91770778
v 0.18402403 -0.59741099 0.87272068
v 0.10905442 -0.37005293 0.98409598
v 0.79044108 -0.15675673 0.68605680
v 0.57673844 -0.28121506 0.80629952
v 0.78828837 -0.29059380 0.64788937
v 0.34229238 -0.75435007 0.69845083
v 0.44705130 -0.49690643 0.84176859
v 0.26702350 -0.68565745 0.79418251
v 0.47981513 -0.69199322 0.65078445
v 0.32002358 -0.54958134 0.86506182
v 0.12613347 -0.08870527 1.03479962
v 0.37108528 -0.26699275 0.95315898
v 0.11892624 -0.23122330 1.02674267
v 0.24158966 -0.31720691 0.96394917
v 0.74734811 -0.55253851 0.55468322
v 0.58364945 -0.42409856 0.78639710
v 0.78159602 -0.42949500 0.61035865
v 0.63290238 -0.64020976 0.61999424
v 0.67227229 -0.35453393 0.70429454
v 0.54529105 -0.57132272 0.74170011
v 0.15808361 0.45761779 0.83908066
v 0.40259432 0.33434854 0.83893759
v 0.25003624 0.53759181 0.77128837
v 0.14858321 0.32875789 0.89101057
v 0.79725251 0.00431313 0.66968500
v 0.61746629 0.17816766 0.78116492
v 0.82156398 0.13182518 0.61912320
v 0.71722739 -0.06430451 0.76088830
v 0.42679634 0.64620461 0.57800417
v 0.50276601 0.40799933 0.76640778
v 0.34175525 0.59915725 0.67804514
v 0.56725036 0.57636058 0.55591710
v 0.38170548 0.47776660 0.77761116
v 0.13271574 0.07660537 1.01341608
v 0.38864703 0.19736838 0.87968825
v 0.14012207 0.20919917 0.97074714
v 0.26207953 -0.01600484 1.00063333
v 0.27953037 0.27598109 0.91853021
v 0.80831849 0.37764543 0.47825061
v 0.62573876 0.30885155 0.72136815
v 0.82278740 0.25989949 0.55165987
v 0.69938857 0.48437488 0.52210870
v 0.72583035 0.22337993 0.67599980
v 0.60756995 0.45113687 0.65490108
v 0.51136102 -0.19677708 0.90333237
v 0.53070142 0.11478436 0.87695471
v 0.61860813 -0.13289736 0.84094404
v 0.39036910 -0.10978593 0.95703602
v 0.63019573 0.02860016 0.82928029
v 0.40116050 0.05388662 0.94560834
v 0.98318150 -0.17343252 -0.32515792
v 1.04310233 -0.15420560 -0.05693260
v 0.97902073 -0.04007345 -0.28447714
v 0.97474411 -0.29918922 -0.26579676
v 0.93950322 -0.10167724 0.47702294
v 1.02932605 -0.12997546 0.21799744
v 0.96191104 0.02480890 0.42281138
v 0.91245073 -0.23022171 0.42998505
v 0.97691057 0.22714225 -0.19662595
v 1.02441382 -0.01797609 -0.01351406
v 0.99533125 0.09814854 -0.24625100
v 0.99136421 0.25322795 -0.04041192
v 1.03504224 -0.02789655 -0.15199544
v 0.92778501 -0.54175906 -0.12969085
v 1.03554073 -0.28244885 0.00959772
v 0.96469883 -0.42774724 -0.20134529
v 0.94046488 -0.54218199 0.02857546
v 1.01810350 -0.29251727 -0.12858879
v 0.93283178 0.26199859 0.27414960
v 1.02689197 -0.00288973 0.14992781
v 0.96386588 0.15181717 0.35357296
v 0.98152099 0.26769293 0.12372612
v 1.00937738 0.01109475 0.28714532
v 1.02577856 0.12441667 0.05595354
v 0.90115001 -0.50021633 0.34443388
v 1.02414355 -0.26767420 0.17402808
v 0.89739839 -0.36588725 0.38285944
v 0.90212457 -0.51584801 0.18686605
v 0.98617337 -0.25246260 0.30775670
v 0.97473482 -0.39772428 0.09885581
v -0.51609065 0.70861012 -0.16180261
v -0.66429136 0.52932042 -0.30712372
v -0.45208570 0.67555816 -0.28126805
v -0.77210880 0.05118104 -0.51101222
v -0.68069821 0.27339379 -0.37862525
v -0.32959021 0.62748516 -0.51681223
v -0.57519980 0.48520637 -0.41190011
v -0.40987493 0.68577243 -0.41895381
v -0.54828899 0.61577965 -0.37058465
v -0.61435203 -0.83897714 -0.02800469
v -0.73458211 -0.66492195 -0.20592574
v -0.55945395 -0.85700140 -0.15511306
v -0.80133883 -0.20867972 -0.49909148
v -0.77512383 -0.43774873 -0.35465014
v -0.41757594 -0.83776684 -0.39708221
v -0.67731631 -0.67522732 -0.33807554
v -0.49654461 -0.86265997 -0.28510469
v -0.62756410 -0.77244984 -0.25050181
v -0.06669808 -0.63517173 -0.80452961
v -0.31331910 -0.50955975 -0.80705051
v -0.15107962 -0.69426267 -0.71058874
v -0.05404375 -0.50577001 -0.85497579
v -0.70793329 -0.17415101 -0.62731934
v -0.53214058 -0.35172936 -0.74617016
v -0.72478005 -0.30051708 -0.57080222
v -0.33434126 -0.81980206 -0.53725469
v -0.40115047 -0.56843332 -0.70904814
v -0.24669193 -0.76867792 -0.63264799
v -0.47316448 -0.74519952 -0.51279409
v -0.28521306 -0.64329204 -0.72760581
v -0.03655679 -0.24467855 -0.95790733
v -0.30327545 -0.37623139 -0.86120050
v -0.04627342 -0.37990612 -0.92552185
v -0.18466990 -0.44809216 -0.87508118
v -0.68946980 -0.53332401 -0.42044881
v -0.53826703 -0.48166212 -0.68348804
v -0.72784048 -0.42915635 -0.50506418
v -0.60818737 -0.65563339 -0.47988114
v -0.62756323 -0.39116261 -0.62668122
v -0.49599761 -0.59941304 -0.58613297
v -0.00739635 0.32259532 -0.87460022
v -0.26813887 0.23828520 -0.88318383
v -0.08822095 0.42683742 -0.83000259
v -0.01136300 0.19912168 -0.93841374
v -0.70199902 -0.01261139 -0.64416226
v -0.50201718 0.12114135 -0.78638960
v -0.65697955 0.09724913 -0.57280266
v -0.61873458 -0.10423369 -0.70831893
v -0.24065582 0.55883140 -0.63668218
v -0.32744573 0.30957415 -0.77407825
v -0.17225804 0.51156761 -0.74891785
v -0.39422628 0.52483489 -0.61868811
v -0.22610865 0.38346708 -0.83282384
v -0.02631849 -0.08129915 -0.97329064
v -0.26730551 0.09365841 -0.88054963
v -0.01656504 0.05537195 -0.94989327
v -0.16105158 -0.15149193 -0.92831742
v -0.14119749 0.14664968 -0.90346429
v -0.63121530 0.35156853 -0.48952855
v -0.44490062 0.22337267 -0.70223254
v -0.60873659 0.21479392 -0.50496055
v -0.50129992 0.42729788 -0.53988271
v -0.54012403 0.14999585 -0.63590181
v -0.43700144 0.38039818 -0.68418278
v -0.43445706 -0.28298087 -0.82757777
v -0.41558663 0.02812996 -0.85487240
v -0.53054787 -0.19669231 -0.77520825
v -0.30657665 -0.22259233 -0.89941768
v -0.52064310 -0.03552528 -0.78888835
v -0.29608491 -0.05865658 -0.91290497
v -0.52688541 0.72807239 -0.00123882
v -0.67989678 0.56860523 0.16079239
v -0.48836524 0.74641683 0.13143319
v -0.60082608 0.63716461 -0.07708826
v -0.81056327 0.12834067 0.43014172
v -0.78145060 0.36539037 0.31028261
v -0.39069955 0.73769057 0.39719037
v -0.64509715 0.58218222 0.29996384
v -0.43481524 0.73623497 0.26504728
v -0.57678647 0.67301503 0.21898664
v -0.76134265 0.46054664 -0.22514627
v -0.77423509 0.48888526 0.08636600
v -0.69604518 0.56259008 -0.15602133
v -0.70390520 0.57820934 0.00518584
v -0.61908573 -0.82184256 0.13418589
v -0.76313990 -0.62633132 0.26751500
v -0.57664714 -0.81597570 0.26793255
v -0.68417822 -0.74034540 0.04190153
v -0.84778872 -0.12607357 0.46654563
v -0.83030100 -0.38417873 0.37724051
v -0.47197078 -0.76414280 0.51889531
v -0.70395853 -0.59947385 0.39616420
v -0.50150574 -0.76861421 0.38258352
v -0.63818242 -0.70104491 0.32885042
v -0.81105021 -0.56402205 -0.13673197
v -0.83067282 -0.53901816 0.17474677
v -0.76387628 -0.66295128 -0.05043049
v -0.77008935 -0.64746198 0.11115281
v -0.15738443 -0.48465436 0.91361486
v -0.40412792 -0.36749924 0.87376050
v -0.23694039 -0.56854156 0.83547222
v -0.15315177 -0.35282971 0.95848613
v -0.77311184 -0.06952047 0.59865139
v -0.61153552 -0.22263655 0.76206228
v -0.78939538 -0.20425014 0.56620725
v -0.39914993 -0.71570493 0.65769275
v -0.48991104 -0.44778744 0.78952349
v -0.31523968 -0.63891923 0.73746031
v -0.53774689 -0.65282791 0.61022907
v -0.36899667 -0.51113678 0.82041299
v -0.13307028 -0.08223758 0.98768808
v -0.39384994 -0.22635869 0.89762470
v -0.13165752 -0.21185427 0.93983477
v -0.26876176 -0.28916323 0.89877188
v -0.76989543 -0.47200248 0.47478016
v -0.59929903 -0.35573484 0.70768000
v -0.78298185 -0.34106512 0.52113924
v -0.66348861 -0.56729981 0.54562320
v -0.70664806 -0.28538040 0.65275048
v -0.58532820 -0.51084823 0.67920614
v -0.10114498 0.47401427 0.82516290
v -0.35818350 0.37547361 0.80271318
v -0.16744409 0.54027353 0.72213720
v -0.11295352 0.35374127 0.89529068
v -0.73648570 0.08535828 0.56766154
v -0.58450329 0.24973792 0.72115920
v -0.75728001 0.21640760 0.52424619
v -0.69892307 0.01430503 0.68167254
v -0.30070253 0.65464943 0.50609032
v -0.43124907 0.45336671 0.70448859
v -0.22559236 0.58065810 0.59659117
v -0.45725167 0.63280995 0.49674629
v -0.29306959 0.47364921 0.69824280
v -0.11553874 0.07343996 0.92940981
v -0.35269418 0.23315801 0.82651192
v -0.10357831 0.20882998 0.89618158
v -0.25773987 0.00774613 0.94601062
v -0.22900519 0.29118892 0.83838020
v -0.70464181 0.45772138 0.38946661
v -0.55987414 0.36987904 0.64377189
v -0.74529859 0.34664778 0.46310809
v -0.59134763 0.55218165 0.44585503
v -0.67626574 0.30553692 0.60408265
v -0.52417914 0.51437247 0.59073827
v -0.52209198 -0.14074999 0.84015372
v -0.50335135 0.17086100 0.81283291
v -0.61599788 -0.06491165 0.76969474
v -0.39823889 -0.06868135 0.90809953
v -0.60467387 0.09622686 0.75357536
v -0.38699807 0.09484928 0.89234532
v -0.84411590 -0.06873018 -0.42927526
v -0.93359477 -0.04682801 -0.16964985
v -0.84549281 0.06599395 -0.39298129
v -0.87216808 -0.19589744 -0.37947885
v -0.89261447 -0.00011370 0.37491719
v -0.94824285 -0.02160161 0.10607977
v -0.89345756 0.12751621 0.31810373
v -0.91354170 -0.13477702 0.34398612
v -0.76045267 0.30075887 -0.26266088
v -0.92754906 0.09036253 -0.12472411
v -0.81253049 0.19598270 -0.33885711
v -0.84929368 0.35592353 -0.14409662
v -0.87018063 0.07271258 -0.25078572
v -0.85280621 -0.43756954 -0.23322168
v -0.88945749 -0.16469021 -0.09929379
v -0.87408821 -0.32296457 -0.31002264
v -0.88054699 -0.43461960 -0.07724942
v -0.87772867 -0.17876174 -0.23663706
v -0.83857646 0.36798684 0.17790453
v -0.91340025 0.10121862 0.03877088
v -0.87556300 0.25394688 0.25015015
v -0.85217850 0.36815286 0.01990595
v -0.92256053 0.11677148 0.17724023
v -0.90536838 0.23029972 -0.05308932
v -0.88154191 -0.39859164 0.24347360
v -0.90157106 -0.15119889 0.06307268
v -0.90761157 -0.27212763 0.29692005
v -0.88825857 -0.42052538 0.08666825
v -0.91177418 -0.14247962 0.20065141
v -0.92195497 -0.29075391 -0.00885003
f 1 533 197
f 533 138 535
f 197 535 54
f 533 535 197
f 138 534 542
f 534 38 540
f 542 540 140
f 534 540 542
f 54 541 198
f 541 140 539
f 198 539 17
f 541 539 198
f 138 542 535
f 542 140 541
f 535 541 54
f 542 541 535
f 38 538 601
f 538 139 603
f 601 603 155
f 538 603 601
f 139 537 589
f 537 12 587
f 589 587 152
f 537 587 589
f 155 605 602
f 605 152 588
f 602 588 41
f 605 588 602
f 139 589 603
f 589 152 605
f 603 605 155
f 589 605 603
f 17 591 201
f 591 153 593
f 201 593 55
f 591 593 201
f 153 592 595
f 592 41 584
f 595 584 151
f 592 584 595
f 55 585 200
f 585 151 583
f 200 583 6
f 585 583 200
f 153 595 593
f 595 151 585
f 593 585 55
f 595 585 593
f 38 601 540
f 601 155 604
f 540 604 140
f 601 604 540
f 155 602 606
f 602 41 592
f 606 592 153
f 602 592 606
f 140 594 539
f 594 153 591
f 539 591 17
f 594 591 539
f 155 606 604
f 606 153 594
f 604 594 140
f 606 594 604
f 1 197 163
f 197 54 199
f 163 199 43
f 197 199 163
f 54 198 205
f 198 17 203
f 205 203 56
f 198 203 205
f 43 204 164
f 204 56 202
f 164 202 13
f 204 202 164
f 54 205 199
f 205 56 204
f 199 204 43
f 205 204 199
f 17 201 217
f 201 55 219
f 217 219 60
f 201 219 217
f 55 200 211
f 200 6 209
f 211 209 58
f 200 209 211
f 60 221 218
f 221 58 210
f 218 210 18
f 221 210 218
f 55 211 219
f 211 58 221
f 219 221 60
f 211 221 219
f 13 212 166
f 212 59 214
f 166 214 44
f 212 214 166
f 59 213 216
f 213 18 207
f 216 207 57
f 213 207 216
f 44 208 165
f 208 57 206
f 165 206 2
f 208 206 165
f 59 216 214
f 216 57 208
f 214 208 44
f 216 208 214
f 17 217 203
f 217 60 220
f 203 220 56
f 217 220 203
f 60 218 222
f 218 18 213
f 222 213 59
f 218 213 222
f 56 215 202
f 215 59 212
f 202 212 13
f 215 212 202
f 60 222 220
f 222 59 215
f 220 215 56
f 222 215 220
f 1 163 253
f 163 43 255
f 253 255 70
f 163 255 253
f 43 164 260
f 164 13 258
f 260 258 72
f 164 258 260
f 70 261 254
f 261 72 259
f 254 259 22
f 261 259 254
f 43 260 255
f 260 72 261
f 255 261 70
f 260 261 255
f 13 166 268
f 166 44 270
f 268 270 75
f 166 270 268
f 44 165 264
f 165 2 262
f 264 262 73
f 165 262 264
f 75 272 269
f 272 73 263
f 269 263 23
f 272 263 269
f 44 264 270
f 264 73 272
f 270 272 75
f 264 272 270
f 22 273 257
f 273 76 275
f 257 275 71
f 273 275 257
f 76 274 277
f 274 23 266
f 277 266 74
f 274 266 277
f 71 267 256
f 267 74 265
f 256 265 8
f 267 265 256
f 76 277 275
f 277 74 267
f 275 267 71
f 277 267 275
f 13 268 258
f 268 75 271
f 258 271 72
f 268 271 258
f 75 269 278
f 269 23 274
f 278 274 76
f 269 274 278
f 72 276 259
f 276 76 273
f 259 273 22
f 276 273 259
f 75 278 271
f 278 76 276
f 271 276 72
f 278 276 271
f 1 253 463
f 253 70 465
f 463 465 121
f 253 465 463
f 70 254 470
f 254 22 468
f 470 468 123
f 254 468 470
f 121 471 464
f 471 123 469
f 464 469 34
f 471 469 464
f 70 470 465
f 470 123 471
f 465 471 121
f 470 471 465
f 22 257 511
f 257 71 513
f 511 513 134
f 257 513 511
f 71 256 505
f 256 8 503
f 505 503 132
f 256 503 505
f 134 515 512
f 515 132 504
f 512 504 37
f 515 504 512
f 71 505 513
f 505 132 515
f 513 515 134
f 505 515 513
f 34 521 467
f 521 136 523
f 467 523 122
f 521 523 467
f 136 522 525
f 522 37 508
f 525 508 133
f 522 508 525
f 122 509 466
f 509 133 507
f 466 507 11
f 509 507 466
f 136 525 523
f 525 133 509
f 523 509 122
f 525 509 523
f 22 511 468
f 511 134 514
f 468 514 123
f 511 514 468
f 134 512 526
f 512 37 522
f 526 522 136
f 512 522 526
f 123 524 469
f 524 136 521
f 469 521 34
f 524 521 469
f 134 526 514
f 526 136 524
f 514 524 123
f 526 524 514
f 1 463 533
f 463 121 536
f 533 536 138
f 463 536 533
f 121 464 545
f 464 34 543
f 545 543 141
f 464 543 545
f 138 546 534
f 546 141 544
f 534 544 38
f 546 544 534
f 121 545 536
f 545 141 546
f 536 546 138
f 545 546 536
f 34 467 621
f 467 122 623
f 621 623 159
f 467 623 621
f 122 466 615
f 466 11 613
f 615 613 157
f 466 613 615
f 159 625 622
f 625 157 614
f 622 614 42
f 625 614 622
f 122 615 623
f 615 157 625
f 623 625 159
f 615 625 623
f 38 631 538
f 631 161 633
f 538 633 139
f 631 633 538
f 161 632 635
f 632 42 618
f 635 618 158
f 632 618 635
f 139 619 537
f 619 158 617
f 537 617 12
f 619 617 537
f 161 635 633
f 635 158 619
f 633 619 139
f 635 619 633
f 34 621 543
f 621 159 624
f 543 624 141
f 621 624 543
f 159 622 636
f 622 42 632
f 636 632 161
f 622 632 636
f 141 634 544
f 634 161 631
f 544 631 38
f 634 631 544
f 159 636 624
f 636 161 634
f 624 634 141
f 636 634 624
f 2 206 353
f 206 57 355
f 353 355 96
f 206 355 353
f 57 207 361
f 207 18 359
f 361 359 98
f 207 359 361
f 96 362 354
f 362 98 360
f 354 360 29
f 362 360 354
f 57 361 355
f 361 98 362
f 355 362 96
f 361 362 355
f 18 210 411
f 210 58 413
f 411 413 111
f 210 413 411
f 58 209 405
f 209 6 403
f 405 403 109
f 209 403 405
f 111 415 412
f 415 109 404
f 412 404 32
f 415 404 412
f 58 405 413
f 405 109 415
f 413 415 111
f 405 415 413
f 29 421 358
f 421 113 423
f 358 423 97
f 421 423 358
f 113 422 425
f 422 32 408
f 425 408 110
f 422 408 425
f 97 409 357
f 409 110 407
f 357 407 10
f 409 407 357
f 113 425 423
f 425 110 409
f 423 409 97
f 425 409 423
f 18 411 359
f 411 111 414
f 359 414 98
f 411 414 359
f 111 412 426
f 412 32 422
f 426 422 113
f 412 422 426
f 98 424 360
f 424 113 421
f 360 421 29
f 424 421 360
f 111 426 414
f 426 113 424
f 414 424 98
f 426 424 414
f 6 583 225
f 583 151 586
f 225 586 62
f 583 586 225
f 151 584 600
f 584 41 597
f 600 597 154
f 584 597 600
f 62 598 226
f 598 154 596
f 226 596 19
f 598 596 226
f 151 600 586
f 600 154 598
f 586 598 62
f 600 598 586
f 41 588 608
f 588 152 611
f 608 611 156
f 588 611 608
f 152 587 590
f 587 12 565
f 590 565 147
f 587 565 590
f 156 609 607
f 609 147 566
f 607 566 40
f 609 566 607
f 152 590 611
f 590 147 609
f 611 609 156
f 590 609 611
f 19 573 224
f 573 149 575
f 224 575 61
f 573 575 224
f 149 574 576
f 574 40 562
f 576 562 146
f 574 562 576
f 61 564 223
f 564 146 561
f 223 561 5
f 564 561 223
f 149 576 575
f 576 146 564
f 575 564 61
f 576 564 575
f 41 608 597
f 608 156 612
f 597 612 154
f 608 612 597
f 156 607 610
f 607 40 574
f 610 574 149
f 607 574 610
f 154 599 596
f 599 149 573
f 596 573 19
f 599 573 596
f 156 610 612
f 610 149 599
f 612 599 154
f 610 599 612
f 12 617 551
f 617 158 620
f 551 620 143
f 617 620 551
f 158 618 641
f 618 42 638
f 641 638 162
f 618 638 641
f 143 639 552
f 639 162 637
f 552 637 39
f 639 637 552
f 158 641 620
f 641 162 639
f 620 639 143
f 641 639 620
f 42 614 627
f 614 157 630
f 627 630 160
f 614 630 627
f 157 613 616
f 613 11 475
f 616 475 125
f 613 475 616
f 160 628 626
f 628 125 476
f 626 476 35
f 628 476 626
f 157 616 630
f 616 125 628
f 630 628 160
f 616 628 630
f 39 558 548
f 558 145 560
f 548 560 142
f 558 560 548
f 145 557 559
f 557 35 473
f 559 473 124
f 557 473 559
f 142 550 547
f 550 124 472
f 547 472 3
f 550 472 547
f 145 559 560
f 559 124 550
f 560 550 142
f 559 550 560
f 42 627 638
f 627 160 642
f 638 642 162
f 627 642 638
f 160 626 629
f 626 35 557
f 629 557 145
f 626 557 629
f 162 640 637
f 640 145 558
f 637 558 39
f 640 558 637
f 160 629 642
f 629 145 640
f 642 640 162
f 629 640 642
f 11 507 485
f 507 133 510
f 485 510 128
f 507 510 485
f 133 508 531
f 508 37 528
f 531 528 137
f 508 528 531
f 128 529 486
f 529 137 527
f 486 527 36
f 529 527 486
f 133 531 510
f 531 137 529
f 510 529 128
f 531 529 510
f 37 504 517
f 504 132 520
f 517 520 135
f 504 520 517
f 132 503 506
f 503 8 281
f 506 281 78
f 503 281 506
f 135 518 516
f 518 78 282
f 516 282 24
f 518 282 516
f 132 506 520
f 506 78 518
f 520 518 135
f 506 518 520
f 36 494 482
f 494 130 496
f 482 496 127
f 494 496 482
f 130 493 495
f 493 24 280
f 495 280 77
f 493 280 495
f 127 484 481
f 484 77 279
f 481 279 7
f 484 279 481
f 130 495 496
f 495 77 484
f 496 484 127
f 495 484 496
f 37 517 528
f 517 135 532
f 528 532 137
f 517 532 528
f 135 516 519
f 516 24 493
f 519 493 130
f 516 493 519
f 137 530 527
f 530 130 494
f 527 494 36
f 530 494 527
f 135 519 532
f 519 130 530
f 532 530 137
f 519 530 532
f 8 265 323
f 265 74 325
f 323 325 90
f 265 325 323
f 74 266 333
f 266 23 331
f 333 331 92
f 266 331 333
f 90 335 324
f 335 92 332
f 324 332 28
f 335 332 324
f 74 333 325
f 333 92 335
f 325 335 90
f 333 335 325
f 23 263 288
f 263 73 290
f 288 290 81
f 263 290 288
f 73 262 285
f 262 2 283
f 285 283 79
f 262 283 285
f 81 291 289
f 291 79 284
f 289 284 25
f 291 284 289
f 73 285 290
f 285 79 291
f 290 291 81
f 285 291 290
f 28 342 328
f 342 94 345
f 328 345 91
f 342 345 328
f 94 341 343
f 341 25 287
f 343 287 80
f 341 287 343
f 91 329 327
f 329 80 286
f 327 286 9
f 329 286 327
f 94 343 345
f 343 80 329
f 345 329 91
f 343 329 345
f 23 288 331
f 288 81 334
f 331 334 92
f 288 334 331
f 81 289 344
f 289 25 341
f 344 341 94
f 289 341 344
f 92 346 332
f 346 94 342
f 332 342 28
f 346 342 332
f 81 344 334
f 344 94 346
f 334 346 92
f 344 346 334
f 4 367 180
f 367 100 369
f 180 369 50
f 367 369 180
f 100 368 376
f 368 30 374
f 376 374 102
f 368 374 376
f 50 375 181
f 375 102 373
f 181 373 16
f 375 373 181
f 100 376 369
f 376 102 375
f 369 375 50
f 376 375 369
f 30 372 397
f 372 101 399
f 397 399 108
f 372 399 397
f 101 371 387
f 371 10 385
f 387 385 105
f 371 385 387
f 108 401 398
f 401 105 386
f 398 386 31
f 401 386 398
f 101 387 399
f 387 105 401
f 399 401 108
f 387 401 399
f 16 388 184
f 388 106 390
f 184 390 51
f 388 390 184
f 106 389 392
f 389 31 382
f 392 382 104
f 389 382 392
f 51 383 183
f 383 104 381
f 183 381 5
f 383 381 183
f 106 392 390
f 392 104 383
f 390 383 51
f 392 383 390
f 30 397 374
f 397 108 400
f 374 400 102
f 397 400 374
f 108 398 402
f 398 31 389
f 402 389 106
f 398 389 402
f 102 391 373
f 391 106 388
f 373 388 16
f 391 388 373
f 108 402 400
f 402 106 391
f 400 391 102
f 402 391 400
f 4 180 169
f 180 50 182
f 169 182 46
f 180 182 169
f 50 181 190
f 181 16 187
f 190 187 52
f 181 187 190
f 46 188 170
f 188 52 186
f 170 186 14
f 188 186 170
f 50 190 182
f 190 52 188
f 182 188 46
f 190 188 182
f 16 184 192
f 184 51 195
f 192 195 53
f 184 195 192
f 51 183 185
f 183 5 174
f 185 174 48
f 183 174 185
f 53 193 191
f 193 48 175
f 191 175 15
f 193 175 191
f 51 185 195
f 185 48 193
f 195 193 53
f 185 193 195
f 14 176 168
f 176 49 178
f 168 178 45
f 176 178 168
f 49 177 179
f 177 15 172
f 179 172 47
f 177 172 179
f 45 173 167
f 173 47 171
f 167 171 3
f 173 171 167
f 49 179 178
f 179 47 173
f 178 173 45
f 179 173 178
f 16 192 187
f 192 53 196
f 187 196 52
f 192 196 187
f 53 191 194
f 191 15 177
f 194 177 49
f 191 177 194
f 52 189 186
f 189 49 176
f 186 176 14
f 189 176 186
f 53 194 196
f 194 49 189
f 196 189 52
f 194 189 196
f 4 169 236
f 169 46 238
f 236 238 66
f 169 238 236
f 46 170 244
f 170 14 242
f 244 242 68
f 170 242 244
f 66 246 237
f 246 68 243
f 237 243 21
f 246 243 237
f 46 244 238
f 244 68 246
f 238 246 66
f 244 246 238
f 14 168 232
f 168 45 234
f 232 234 65
f 168 234 232
f 45 167 229
f 167 3 227
f 229 227 63
f 167 227 229
f 65 235 233
f 235 63 228
f 233 228 20
f 235 228 233
f 45 229 234
f 229 63 235
f 234 235 65
f 229 235 234
f 21 248 240
f 248 69 251
f 240 251 67
f 248 251 240
f 69 247 249
f 247 20 231
f 249 231 64
f 247 231 249
f 67 241 239
f 241 64 230
f 239 230 7
f 241 230 239
f 69 249 251
f 249 64 241
f 251 241 67
f 249 241 251
f 14 232 242
f 232 65 245
f 242 245 68
f 232 245 242
f 65 233 250
f 233 20 247
f 250 247 69
f 233 247 250
f 68 252 243
f 252 69 248
f 243 248 21
f 252 248 243
f 65 250 245
f 250 69 252
f 245 252 68
f 250 252 245
f 4 236 292
f 236 66 294
f 292 294 82
f 236 294 292
f 66 237 299
f 237 21 297
f 299 297 84
f 237 297 299
f 82 300 293
f 300 84 298
f 293 298 26
f 300 298 293
f 66 299 294
f 299 84 300
f 294 300 82
f 299 300 294
f 21 240 308
f 240 67 310
f 308 310 87
f 240 310 308
f 67 239 303
f 239 7 301
f 303 301 85
f 239 301 303
f 87 312 309
f 312 85 302
f 309 302 27
f 312 302 309
f 67 303 310
f 303 85 312
f 310 312 87
f 303 312 310
f 26 317 296
f 317 89 319
f 296 319 83
f 317 319 296
f 89 318 321
f 318 27 306
f 321 306 86
f 318 306 321
f 83 307 295
f 307 86 305
f 295 305 9
f 307 305 295
f 89 321 319
f 321 86 307
f 319 307 83
f 321 307 319
f 21 308 297
f 308 87 311
f 297 311 84
f 308 311 297
f 87 309 322
f 309 27 318
f 322 318 89
f 309 318 322
f 84 320 298
f 320 89 317
f 298 317 26
f 320 317 298
f 87 322 311
f 322 89 320
f 311 320 84
f 322 320 311
f 4 292 367
f 292 82 370
f 367 370 100
f 292 370 367
f 82 293 379
f 293 26 377
f 379 377 103
f 293 377 379
f 100 380 368
f 380 103 378
f 368 378 30
f 380 378 368
f 82 379 370
f 379 103 380
f 370 380 100
f 379 380 370
f 26 296 446
f 296 83 448
f 446 448 118
f 296 448 446
f 83 295 436
f 295 9 433
f 436 433 115
f 295 433 436
f 118 450 447
f 450 115 434
f 447 434 33
f 450 434 447
f 83 436 448
f 436 115 450
f 448 450 118
f 436 450 448
f 30 457 372
f 457 120 459
f 372 459 101
f 457 459 372
f 120 458 461
f 458 33 438
f 461 438 116
f 458 438 461
f 101 440 371
f 440 116 437
f 371 437 10
f 440 437 371
f 120 461 459
f 461 116 440
f 459 440 101
f 461 440 459
f 26 446 377
f 446 118 449
f 377 449 103
f 446 449 377
f 118 447 462
f 447 33 458
f 462 458 120
f 447 458 462
f 103 460 378
f 460 120 457
f 378 457 30
f 460 457 378
f 118 462 449
f 462 120 460
f 449 460 103
f 462 460 449
f 5 381 223
f 381 104 384
f 223 384 61
f 381 384 223
f 104 382 396
f 382 31 394
f 396 394 107
f 382 394 396
f 61 395 224
f 395 107 393
f 224 393 19
f 395 393 224
f 104 396 384
f 396 107 395
f 384 395 61
f 396 395 384
f 31 386 427
f 386 105 429
f 427 429 114
f 386 429 427
f 105 385 410
f 385 10 407
f 410 407 110
f 385 407 410
f 114 431 428
f 431 110 408
f 428 408 32
f 431 408 428
f 105 410 429
f 410 110 431
f 429 431 114
f 410 431 429
f 19 416 226
f 416 112 418
f 226 418 62
f 416 418 226
f 112 417 420
f 417 32 404
f 420 404 109
f 417 404 420
f 62 406 225
f 406 109 403
f 225 403 6
f 406 403 225
f 112 420 418
f 420 109 406
f 418 406 62
f 420 406 418
f 31 427 394
f 427 114 430
f 394 430 107
f 427 430 394
f 114 428 432
f 428 32 417
f 432 417 112
f 428 417 432
f 107 419 393
f 419 112 416
f 393 416 19
f 419 416 393
f 114 432 430
f 432 112 419
f 430 419 107
f 432 419 430
f 3 171 547
f 171 47 549
f 547 549 142
f 171 549 547
f 47 172 555
f 172 15 553
f 555 553 144
f 172 553 555
f 142 556 548
f 556 144 554
f 548 554 39
f 556 554 548
f 47 555 549
f 555 144 556
f 549 556 142
f 555 556 549
f 15 175 568
f 175 48 570
f 568 570 148
f 175 570 568
f 48 174 563
f 174 5 561
f 563 561 146
f 174 561 563
f 148 572 569
f 572 146 562
f 569 562 40
f 572 562 569
f 48 563 570
f 563 146 572
f 570 572 148
f 563 572 570
f 39 577 552
f 577 150 579
f 552 579 143
f 577 579 552
f 150 578 581
f 578 40 566
f 581 566 147
f 578 566 581
f 143 567 551
f 567 147 565
f 551 565 12
f 567 565 551
f 150 581 579
f 581 147 567
f 579 567 143
f 581 567 579
f 15 568 553
f 568 148 571
f 553 571 144
f 568 571 553
f 148 569 582
f 569 40 578
f 582 578 150
f 569 578 582
f 144 580 554
f 580 150 577
f 554 577 39
f 580 577 554
f 148 582 571
f 582 150 580
f 571 580 144
f 582 580 571
f 7 230 481
f 230 64 483
f 481 483 127
f 230 483 481
f 64 231 490
f 231 20 488
f 490 488 129
f 231 488 490
f 127 492 482
f 492 129 489
f 482 489 36
f 492 489 482
f 64 490 483
f 490 129 492
f 483 492 127
f 490 492 483
f 20 228 477
f 228 63 479
f 477 479 126
f 228 479 477
f 63 227 474
f 227 3 472
f 474 472 124
f 227 472 474
f 126 480 478
f 480 124 473
f 478 473 35
f 480 473 478
f 63 474 479
f 474 124 480
f 479 480 126
f 474 480 479
f 36 498 486
f 498 131 501
f 486 501 128
f 498 501 486
f 131 497 499
f 497 35 476
f 499 476 125
f 497 476 499
f 128 487 485
f 487 125 475
f 485 475 11
f 487 475 485
f 131 499 501
f 499 125 487
f 501 487 128
f 499 487 501
f 20 477 488
f 477 126 491
f 488 491 129
f 477 491 488
f 126 478 500
f 478 35 497
f 500 497 131
f 478 497 500
f 129 502 489
f 502 131 498
f 489 498 36
f 502 498 489
f 126 500 491
f 500 131 502
f 491 502 129
f 500 502 491
f 9 305 327
f 305 86 330
f 327 330 91
f 305 330 327
f 86 306 349
f 306 27 347
f 349 347 95
f 306 347 349
f 91 351 328
f 351 95 348
f 328 348 28
f 351 348 328
f 86 349 330
f 349 95 351
f 330 351 91
f 349 351 330
f 27 302 314
f 302 85 316
f 314 316 88
f 302 316 314
f 85 301 304
f 301 7 279
f 304 279 77
f 301 279 304
f 88 315 313
f 315 77 280
f 313 280 24
f 315 280 313
f 85 304 316
f 304 77 315
f 316 315 88
f 304 315 316
f 28 337 324
f 337 93 340
f 324 340 90
f 337 340 324
f 93 336 338
f 336 24 282
f 338 282 78
f 336 282 338
f 90 326 323
f 326 78 281
f 323 281 8
f 326 281 323
f 93 338 340
f 338 78 326
f 340 326 90
f 338 326 340
f 27 314 347
f 314 88 350
f 347 350 95
f 314 350 347
f 88 313 339
f 313 24 336
f 339 336 93
f 313 336 339
f 95 352 348
f 352 93 337
f 348 337 28
f 352 337 348
f 88 339 350
f 339 93 352
f 350 352 95
f 339 352 350
f 10 437 357
f 437 116 439
f 357 439 97
f 437 439 357
f 116 438 455
f 438 33 452
f 455 452 119
f 438 452 455
f 97 453 358
f 453 119 451
f 358 451 29
f 453 451 358
f 116 455 439
f 455 119 453
f 439 453 97
f 455 453 439
f 33 434 442
f 434 115 445
f 442 445 117
f 434 445 442
f 115 433 435
f 433 9 286
f 435 286 80
f 433 286 435
f 117 443 441
f 443 80 287
f 441 287 25
f 443 287 441
f 115 435 445
f 435 80 443
f 445 443 117
f 435 443 445
f 29 364 354
f 364 99 366
f 354 366 96
f 364 366 354
f 99 363 365
f 363 25 284
f 365 284 79
f 363 284 365
f 96 356 353
f 356 79 283
f 353 283 2
f 356 283 353
f 99 365 366
f 365 79 356
f 366 356 96
f 365 356 366
f 33 442 452
f 442 117 456
f 452 456 119
f 442 456 452
f 117 441 444
f 441 25 363
f 444 363 99
f 441 363 444
f 119 454 451
f 454 99 364
f 451 364 29
f 454 364 451
f 117 444 456
f 444 99 454
f 456 454 119
f 444 454 456

