# https://github.com/mikedh/trimesh
v -0.65258965 0.60143048 -0.15547969
v 0.80162103 0.58636215 0.13016400
v -0.81822999 -0.56865126 -0.15984106
v 0.64020475 -0.58565872 0.15713467
v -0.14788865 -0.30321183 0.93513085
v 0.16390299 0.42453679 0.92656357
v -0.18802139 -0.47721184 -0.97255059
v 0.14529511 0.25925354 -0.93029060
v 1.19404615 -0.15373555 -0.54523011
v 1.18013727 0.14902691 0.66397971
v -1.22151385 -0.15955200 -0.68128391
v -1.20708788 0.17121490 0.47874422
v 0.02051757 0.71768780 -0.01167201
v -0.02340204 -0.69779072 0.00127564
v -0.55541560 -0.41516484 0.45719845
v 0.30339021 -0.39949999 0.67236510
v -0.34716251 0.75594447 0.44526718
v 0.50692870 0.71742647 0.68151181
v -0.00377564 0.03482621 1.09866965
v -0.51756953 -0.68716569 -0.68349126
v 0.33839587 -0.72520230 -0.42747662
v -0.35807699 0.40510162 -0.67390193
v 0.54888976 0.43959209 -0.45649254
v -0.01589285 -0.00822993 -1.13984840
v 1.27298464 0.22807625 -0.21648770
v 0.99678762 -0.47652228 -0.24899952
v 0.57501808 -0.28413200 -0.74885494
v 0.81390441 0.12507299 -0.74270985
v 1.27830236 0.44769667 0.43797895
v 0.97412792 -0.20669943 0.45127115
v 0.57953911 -0.10465359 1.03274555
v 0.84102054 0.31449459 1.05121059
v 1.37418214 0.00693360 -0.01259608
v -1.02370612 0.22393245 -0.45620794
v -1.27896698 -0.42508288 -0.45484385
v -0.83245689 -0.31049451 -1.02968268
v -0.58355011 0.11390260 -1.02549368
v -0.97260139 0.44930450 0.24004438
v -1.28154230 -0.25111168 0.24682479
v -0.83713714 -0.09857987 0.74414936
v -0.57823586 0.30278202 0.73792225
v -1.43995493 -0.02262815 -0.01391121
v -0.38719482 0.69028902 -0.14457329
v 0.43565758 0.65644691 0.12523119
v -0.41790378 -0.70409355 -0.08466839
v 0.37345762 -0.67467295 0.10417304
v -0.68950264 -0.51791365 0.16325248
v -0.36660043 -0.35765609 0.68687012
v -0.28263137 -0.58488934 0.24404667
v 0.52550093 -0.47909217 0.43074796
v 0.08011104 -0.36316598 0.83056151
v 0.18493685 -0.56684017 0.35340050
v -0.11098080 -0.46159555 0.61138537
v -0.54200735 0.68824339 0.14802727
v -0.06585367 0.58557990 0.69856561
v -0.19741872 0.73692390 0.23360382
v 0.68583642 0.71075410 0.41543524
v 0.36483827 0.60387444 0.83890806
v 0.24794469 0.74782223 0.38610957
v 0.07326721 0.75128610 0.57762841
v -0.11847427 -0.16349612 1.07073385
v 0.10361401 0.22620736 1.05857662
v -0.66277513 -0.69571505 -0.42282946
v -0.36701402 -0.64229976 -0.82277553
v -0.25078097 -0.77495846 -0.34856126
v 0.54421154 -0.69270158 -0.12285307
v 0.08488676 -0.58436093 -0.72766791
v 0.20201213 -0.76226565 -0.20143291
v -0.04582914 -0.71576359 -0.60120776
v -0.56235612 0.51474839 -0.45078172
v -0.09424722 0.37342683 -0.87464208
v -0.22697727 0.56452082 -0.35851122
v 0.68138924 0.49918130 -0.15849105
v 0.32547270 0.35329918 -0.72217022
v 0.23724028 0.56944846 -0.22013326
v 0.09153988 0.42567274 -0.59146540
v -0.12963222 -0.24696907 -1.05422404
v 0.09399187 0.16045823 -1.05133708
v 1.14080994 0.39406169 -0.02805445
v 1.31140344 0.03704338 -0.42741339
v 0.94577786 0.35306945 -0.32227986
v 0.84389970 -0.56676188 -0.02272110
v 1.10184909 -0.37053302 -0.41225757
v 0.65144104 -0.69029060 -0.33123260
v 0.24591951 -0.38164090 -0.86692891
v 0.89453599 -0.22069490 -0.63099194
v 0.44918790 -0.54460130 -0.61271389
v 0.31387307 -0.14533667 -0.93544335
v 0.79908181 -0.43473325 -0.52816634
v 0.53032595 0.19943967 -0.84623042
v 1.05223290 -0.04492923 -0.59970504
v 0.77189135 0.27009562 -0.59804747
v 0.44583212 0.01878458 -0.93474948
v 1.10576863 0.15216448 -0.53601889
v 0.73063662 -0.08697448 -0.76195707
v 1.10699526 0.56083645 0.33813538
v 1.30208824 0.31873610 0.51980363
v 0.98636385 0.64454848 0.63342255
v 1.35428603 0.37021475 0.08771908
v 0.83723848 -0.42598948 0.30864205
v 1.13251513 -0.02621022 0.55496953
v 0.67922913 -0.35090548 0.64713969
v 1.05104795 -0.36666077 0.07648567
v 0.19706725 -0.22619792 1.07186582
v 0.90549924 0.01389146 0.88775189
v 0.45041981 -0.31122751 0.89583025
v 0.28067704 -0.05336407 1.13715492
v 0.83148012 -0.12001139 0.77237424
v 0.49641752 0.38641195 1.05435208
v 1.03250774 0.25252555 0.93248290
v 0.73752097 0.53947454 0.87963958
v 0.44464037 0.13144849 1.13042827
v 1.13258885 0.42684637 0.80027331
v 0.76651072 0.08859583 1.09678065
v 1.38575872 -0.11358593 -0.27450363
v 1.31964908 0.11048550 0.36812573
v 1.45707576 0.09491724 -0.15314722
v 1.21499097 -0.24840735 -0.14014594
v 1.44217293 0.26018750 0.21539648
v 1.22427092 -0.10962722 0.21969256
v -0.83220820 0.45933499 -0.29571653
v -1.10116233 0.00360160 -0.54837959
v -0.72975054 0.31002483 -0.59799281
v -1.08618202 -0.56394633 -0.34175620
v -1.32062017 -0.34009947 -0.54340191
v -0.90982713 -0.62092323 -0.63067181
v -0.53186007 -0.38370519 -1.05792852
v -1.07541045 -0.24098006 -0.91519085
v -0.72044107 -0.52227905 -0.87884319
v -0.44773961 -0.14609761 -1.15520828
v -1.11477175 -0.45173834 -0.80464047
v -0.24812559 0.24074698 -1.05821737
v -0.90902149 0.00159789 -0.92683523
v -0.46391052 0.28287399 -0.89269632
v -0.30530644 0.09163936 -1.14835900
v -0.84420682 0.13188486 -0.76253674
v -0.72674693 -0.12139053 -1.05875857
v -0.83031807 0.58781441 0.03813848
v -1.10819267 0.30399556 0.44915471
v -0.69432605 0.65701250 0.30768445
v -1.03763738 0.33458473 -0.09106665
v -1.08063163 -0.44695235 0.06725705
v -1.30644845 -0.05820299 0.38838417
v -0.96416305 -0.33919589 0.30990742
v -1.35745382 -0.37410353 -0.10394710
v -0.53423957 -0.22582422 0.86113548
v -1.08296750 0.01850648 0.62114535
v -0.76222612 -0.26229854 0.60311850
v -0.40829257 -0.08665256 0.94748748
v -1.11154117 -0.16558057 0.52623489
v -0.22234797 0.39464751 0.84253217
v -0.93506631 0.24126578 0.63518357
v -0.42905866 0.52540668 0.61269530
v -0.33220253 0.16941788 0.91812778
v -0.85606637 0.44377109 0.53659509
v -0.76651250 0.06164859 0.77085346
v -1.36930363 -0.10206281 -0.35469020
v -1.36114400 0.12131747 0.24753322
v -1.21641879 0.09433136 -0.24561473
v -1.47459284 -0.21702866 -0.22777714
v -1.22019573 0.25363172 0.13923895
v -1.43689012 -0.07559472 0.11526118
v -0.53792310 0.62029120 -0.16704008
v -0.15277574 0.70971478 -0.07954783
v 0.59481241 0.63343446 0.16816837
v 0.16215991 0.70383975 0.03880641
v -0.60181378 -0.66208887 -0.14605421
v -0.24867688 -0.71285237 -0.03260473
v 0.52318543 -0.64856376 0.12294245
v 0.12983884 -0.70118035 0.05970345
v -0.75789345 -0.54979887 -0.02708200
v -0.61229216 -0.45454541 0.31243873
v -0.51824315 -0.59203646 -0.00242135
v -0.25913812 -0.33654214 0.81124865
v -0.44731998 -0.40657393 0.58171160
v -0.14385488 -0.62807763 0.10608465
v -0.41643484 -0.50522956 0.32160129
v -0.35514618 -0.61360829 0.05397397
v -0.50643340 -0.53323841 0.14578348
v 0.58789468 -0.55381011 0.25178118
v 0.44097146 -0.45075228 0.55416224
v 0.43897646 -0.59676876 0.25720626
v -0.03619087 -0.33544195 0.90019108
v 0.19361201 -0.38099605 0.76829024
v -0.13164732 -0.37397427 0.79345671
v 0.05521030 -0.62386873 0.18787373
v 0.27207318 -0.47860412 0.51019255
v 0.26696750 -0.60554515 0.24669363
v -0.03297763 -0.59746804 0.30380291
v 0.38772702 -0.51438741 0.41301892
v -0.33744633 -0.41928634 0.50039948
v 0.08107335 -0.43059309 0.60918067
v -0.24723313 -0.41510233 0.67156107
v -0.18144792 -0.49392622 0.43785695
v 0.03777346 -0.40447022 0.71358741
v 0.03125760 -0.51323522 0.48474508
v -0.59230962 0.66518280 0.01525022
v -0.45458867 0.72658259 0.30125234
v -0.43577989 0.72614867 0.02084518
v 0.02460881 0.54475296 0.80604542
v -0.25048392 0.68801881 0.56848666
v -0.08233414 0.71573220 0.10244117
v -0.27840280 0.74385452 0.28124651
v -0.27885417 0.75260941 0.06168255
v -0.37635653 0.74786349 0.18777669
v 0.70100401 0.66048730 0.30415064
v 0.62460925 0.76171872 0.58002364
v 0.56182907 0.71076928 0.29247595
v 0.24705194 0.53670535 0.91648215
v 0.48529588 0.67322003 0.76445785
v 0.13278567 0.64574374 0.78180364
v 0.17116375 0.73035274 0.17929225
v 0.39792644 0.77686888 0.54417064
v 0.31398209 0.71636097 0.24481790
v 0.02393801 0.75177558 0.31381477
v 0.48906666 0.75802456 0.39883245
v -0.11114497 0.73331260 0.52527328
v 0.28805946 0.72102910 0.64311737
v -0.01993951 0.70339199 0.65131101
v -0.07493443 0.78028675 0.39587204
v 0.23962098 0.67723191 0.70963437
v 0.19825575 0.82360130 0.51621809
v -0.13908144 -0.22004802 1.03721694
v -0.06281021 -0.09067540 1.09182028
v 0.14937623 0.32368939 0.97362314
v 0.03158693 0.13529331 1.07431524
v -0.75903931 -0.65872686 -0.28090382
v -0.61766474 -0.71772980 -0.57512393
v -0.56281210 -0.72521807 -0.25410170
v -0.25838015 -0.55229526 -0.90540481
v -0.45058155 -0.66239498 -0.79733859
v -0.16252069 -0.75724803 -0.13236686
v -0.38277617 -0.76336780 -0.50902544
v -0.30302225 -0.73933820 -0.24540912
v -0.45494839 -0.73827750 -0.39491470
v 0.59005978 -0.62449397 0.03883762
v 0.45046026 -0.71401832 -0.32717270
v 0.46021700 -0.70861193 -0.00422666
v -0.01714767 -0.54433495 -0.85990696
v 0.22505222 -0.69123305 -0.57619334
v -0.14090626 -0.62571115 -0.82860033
v 0.11284127 -0.74461896 -0.08751546
v 0.30600249 -0.76068690 -0.36239554
v 0.25427896 -0.75880141 -0.06410009
v -0.03551892 -0.82226788 -0.28619566
v 0.33413047 -0.74221370 -0.17483051
v -0.31256539 -0.73957267 -0.64981966
v 0.11947431 -0.77176693 -0.50393712
v -0.18439365 -0.65027307 -0.69198148
v -0.15991498 -0.79235904 -0.44738290
v 0.00477031 -0.69126048 -0.65193379
v 0.05831425 -0.78753373 -0.40457324
v -0.62191621 0.54044976 -0.24767551
v -0.44053319 0.44899874 -0.54667524
v -0.43330037 0.56702131 -0.28088022
v 0.04916238 0.32978647 -0.89591829
v -0.18661438 0.37215239 -0.76377095
v -0.09890350 0.66288396 -0.22205019
v -0.27980849 0.47568723 -0.50999464
v -0.26003119 0.64619020 -0.26956151
v -0.34932810 0.52871524 -0.42165387
v 0.76700374 0.52952024 -0.03689246
v 0.60356231 0.42381653 -0.29960580
v 0.56300891 0.59553668 0.01883322
v 0.25384539 0.29372309 -0.84121926
v 0.42775929 0.36135134 -0.56088212
v 0.11591142 0.32564272 -0.76847145
v 0.13954804 0.64021454 -0.10762902
v 0.41452284 0.48703075 -0.30162276
v 0.35267063 0.62612767 -0.04586526
v 0.00797913 0.56388892 -0.29823150
v 0.48333820 0.50740695 -0.13995839
v -0.12963597 0.41391088 -0.67320184
v 0.30066701 0.43634373 -0.51771041
v -0.00405059 0.38957964 -0.70738467
v -0.07096585 0.49857605 -0.45666113
v 0.27273770 0.38225029 -0.65539941
v 0.15723430 0.51503262 -0.42585958
v -0.15003304 -0.34086440 -1.02612133
v -0.07946802 -0.13149718 -1.13149157
v 0.11143633 0.21616443 -1.00358315
v 0.05660632 0.03566904 -1.09875850
v 0.98442728 0.52367742 0.05354779
v 1.18971459 0.33948373 -0.15814741
v 0.88010118 0.44934352 -0.05688843
v 1.27283217 -0.03394102 -0.46447847
v 1.33720514 0.12115191 -0.32977828
v 0.79974866 0.39794752 -0.37855496
v 1.13417532 0.29287241 -0.25687611
v 0.81947117 0.38434634 -0.23639889
v 1.03563791 0.37743464 -0.15950037
v 0.76167287 -0.56856182 0.03310047
v 0.93412249 -0.48077141 -0.13111065
v 0.70108961 -0.64124191 -0.05011249
v 1.13482994 -0.24302854 -0.44568759
v 1.05939000 -0.41262379 -0.32048331
v 0.51559332 -0.67609562 -0.37117338
v 0.82119541 -0.55617567 -0.26354223
v 0.59654634 -0.68248149 -0.21751045
v 0.75602580 -0.60433714 -0.20703677
v 0.05740692 -0.37084679 -0.85344966
v 0.39732799 -0.33363570 -0.78891658
v 0.15180431 -0.47265485 -0.80883053
v 0.07350728 -0.30579718 -0.93084771
v 1.06499490 -0.21453152 -0.56510372
v 0.76635635 -0.27947128 -0.67940800
v 1.00980820 -0.34026350 -0.50664252
v 0.40659287 -0.63793338 -0.52558011
v 0.52978642 -0.44137044 -0.69990939
v 0.27086455 -0.55835993 -0.68391008
v 0.60265554 -0.61427521 -0.49276505
v 0.35985319 -0.46990650 -0.75855808
v 0.14249012 -0.06558580 -1.00431165
v 0.43366105 -0.22668948 -0.82839129
v 0.08100781 -0.18298833 -1.00548091
v 0.24114503 -0.27814901 -0.89973782
v 0.91375641 -0.48595198 -0.39347350
v 0.72966535 -0.38378466 -0.61419337
v 0.99162535 -0.38049253 -0.41563249
v 0.73981713 -0.52873921 -0.43116919
v 0.90397644 -0.31296530 -0.62228376
v 0.62064911 -0.48598323 -0.54655253
v 0.34737804 0.25969778 -0.88479235
v 0.68546728 0.17505688 -0.77079050
v 0.40151189 0.30881820 -0.80312799
v 0.33540721 0.19212896 -0.97679427
v 1.14098833 -0.10578394 -0.58890188
v 0.91612752 0.05120015 -0.67923230
v 1.21963666 -0.00218837 -0.50368589
v 0.99615365 -0.13068184 -0.63488173
v 0.66945268 0.34222385 -0.53182355
v 0.79932645 0.20501378 -0.70378688
v 0.57473743 0.31622659 -0.64691895
v 0.84212285 0.31089483 -0.46291832
v 0.62616286 0.29501936 -0.72513260
v 0.25847289 0.05011538 -1.04139863
v 0.63147792 0.10805385 -0.84144953
v 0.27890782 0.11235068 -1.04101288
v 0.36845793 -0.08147431 -0.94528975
v 0.47304503 0.13914805 -0.90546458
v 1.21451328 0.15251949 -0.41992662
v 0.95548275 0.09155150 -0.65123225
v 1.25789351 0.07121313 -0.44802211
v 1.02666191 0.25103089 -0.43120098
v 1.09841054 0.07880788 -0.54807473
v 0.94377948 0.22194331 -0.58181723
v 0.67078891 -0.20171008 -0.75756825
v 0.79392752 0.05703673 -0.81386672
v 0.82624914 -0.14687539 -0.72149874
v 0.50693625 -0.12172212 -0.89213763
v 0.90686878 -0.00209720 -0.69158427
v 0.57393985 -0.01861832 -0.87263361
v 0.98854685 0.56839041 0.21970797
v 1.22515697 0.53998886 0.36754479
v 0.88113088 0.61332678 0.36881517
v 1.06630401 0.51289361 0.11621545
v 1.27805444 0.27817299 0.63433979
v 1.29541945 0.42126221 0.52161225
v 0.73509452 0.65943910 0.65982028
v 1.10384323 0.58516810 0.48865314
v 0.80711769 0.67226836 0.52618884
v 1.03865268 0.61341887 0.46110369
v 1.34897405 0.25285365 -0.08479669
v 1.31194464 0.43397098 0.26377762
v 1.21778945 0.38519444 0.03430143
v 1.24300715 0.45671703 0.23775959
v 0.80152268 -0.54180935 0.23954849
v 0.96694435 -0.31118143 0.37944228
v 0.69185736 -0.47621113 0.37854468
v 0.84621051 -0.48299905 0.12085299
v 1.14455054 0.03308275 0.60988808
v 1.02662755 -0.13679699 0.51929142
v 0.52847025 -0.37251004 0.66913594
v 0.84521080 -0.28889450 0.53060429
v 0.63106904 -0.44085751 0.55754503
v 0.77810466 -0.39021789 0.45559301
v 1.01272195 -0.42811658 -0.09915026
v 1.04910438 -0.31127396 0.21391198
v 0.93392624 -0.51049242 0.01765232
v 0.96972937 -0.38505822 0.17020998
v 0.01946920 -0.22554241 1.01532000
v 0.40179398 -0.15549306 1.11432353
v 0.17569366 -0.29335403 0.96847513
v 0.06474298 -0.20895662 1.05327721
v 1.06229922 0.06861304 0.78253667
v 0.75355947 -0.00491356 0.96284529
v 1.01780593 -0.00393224 0.74085687
v 0.41354416 -0.35886221 0.77992674
v 0.47624630 -0.22188249 0.99240803
v 0.27554849 -0.34454346 0.88145849
v 0.57944840 -0.29364518 0.75874120
v 0.32964316 -0.29097026 0.96801262
v 0.18201909 -0.07469542 1.13800517
v 0.44658699 -0.10681879 1.10137822
v 0.09267877 -0.11817409 1.11957801
v 0.21431127 -0.15640446 1.09755642
v 0.90220462 -0.17662012 0.62663908
v 0.72533415 -0.14231431 0.94221972
v 0.99106346 -0.06961209 0.70221271
v 0.75340956 -0.24853113 0.72112068
v 0.83953029 -0.06324375 0.83049545
v 0.63265066 -0.25428642 0.84231038
v 0.33223688 0.43487228 1.02875030
v 0.67080032 0.34465392 1.04865512
v 0.45474896 0.49865843 0.97349906
v 0.35126739 0.30417016 1.04450451
v 1.11629328 0.17191513 0.75982373
v 0.97357883 0.28471974 0.94946281
v 1.21224878 0.32279332 0.72491316
v 0.98227461 0.12206851 0.90573461
v 0.66108423 0.66454129 0.82060335
v 0.82625115 0.45946673 0.99490697
v 0.52355918 0.57952259 0.89519225
v 0.85096977 0.61971537 0.76340481
v 0.61606154 0.49685468 1.00436043
v 0.22731939 0.10274103 1.16601190
v 0.64594237 0.18566267 1.10402958
v 0.26878701 0.17040504 1.12519391
v 0.39681062 0.02741377 1.14507199
v 0.52812688 0.25927730 1.08999938
v 1.21381338 0.48315583 0.59972350
v 0.99261314 0.37831481 0.90528065
v 1.22964767 0.40768475 0.66174032
v 1.06070712 0.54303757 0.76110834
v 1.08543560 0.37465753 0.84005971
v 0.93735011 0.51370279 0.87800108
v 0.68446243 -0.01564658 1.06217503
v 0.78404873 0.20698170 1.08580096
v 0.86014214 0.05927504 1.02316808
v 0.55311513 0.00444751 1.11431126
v 0.88090416 0.13574897 1.03379652
v 0.57917186 0.14104134 1.15573707
v 1.31536617 -0.12028402 -0.38781466
v 1.38261383 -0.05861816 -0.12282409
v 1.34112810 -0.04040994 -0.30780777
v 1.20226714 -0.21890513 -0.35813322
v 1.28480153 0.15714301 0.50046231
v 1.40207417 0.02852473 0.19930540
v 1.33968039 0.23652306 0.45175814
v 1.18459866 0.02463609 0.45251935
v 1.41592285 0.17761722 -0.18964866
v 1.41281404 0.08513794 -0.02768805
v 1.39010343 0.06261245 -0.30634093
v 1.43558360 0.29710036 -0.01743567
v 1.43641221 0.01178735 -0.22582191
v 1.13670839 -0.39348198 -0.19901588
v 1.33003667 -0.11212635 -0.05550988
v 1.18368845 -0.31793802 -0.29974736
v 1.13966341 -0.33059899 -0.05793365
v 1.26944221 -0.19476643 -0.24317317
v 1.35789396 0.33608774 0.33393186
v 1.44922741 0.16992736 0.08715324
v 1.37593999 0.32096049 0.38447412
v 1.41137722 0.35057849 0.14256582
v 1.38801424 0.15862506 0.28484975
v 1.46303185 0.15904924 0.01740396
v 1.12066919 -0.16032652 0.31742223
v 1.33690396 -0.04507792 0.08144220
v 1.16971049 -0.05870508 0.37734809
v 1.09565516 -0.24871507 0.16437580
v 1.32636925 -0.04476126 0.33040229
v 1.21934179 -0.16734387 0.06179584
v -0.73567879 0.51555247 -0.25674095
v -0.90423328 0.31255474 -0.42547498
v -0.63944052 0.47954928 -0.34643343
v -1.17160603 -0.02777590 -0.57908249
v -1.01341899 0.13275786 -0.52250435
v -0.52469800 0.33854916 -0.69605437
v -0.84218851 0.26651997 -0.54004935
v -0.61806670 0.45778726 -0.50477805
v -0.77832056 0.39942187 -0.48097020
v -0.97519647 -0.56661567 -0.25834581
v -1.21304160 -0.54911272 -0.37267163
v -0.87083584 -0.65936361 -0.37827738
v -1.28637501 -0.26379747 -0.63559686
v -1.28934711 -0.35662852 -0.48879424
v -0.76434751 -0.66440721 -0.66870059
v -1.11984373 -0.54993353 -0.53116633
v -0.81710831 -0.68924953 -0.53881794
v -1.06975511 -0.61682729 -0.49382259
v -0.33554038 -0.43625584 -1.00692508
v -0.66334206 -0.37684214 -1.08153429
v -0.46556807 -0.48868012 -0.92725413
v -0.29920292 -0.31180604 -1.04515147
v -1.16379244 -0.17109092 -0.79689020
v -1.00307928 -0.22717046 -0.94830583
v -1.21981381 -0.29420565 -0.73640064
v -0.64624041 -0.67056268 -0.80998366
v -0.79318385 -0.42777438 -0.95769444
v -0.55258231 -0.53515744 -0.90322847
v -0.85344565 -0.63981651 -0.79567175
v -0.60800597 -0.48682476 -0.98042684
v -0.22416973 -0.10509782 -1.15172621
v -0.64940632 -0.24456321 -1.10246921
v -0.26487170 -0.20163757 -1.13936241
v -0.48191944 -0.27030636 -1.09409303
v -1.15595397 -0.45778369 -0.61451911
v -0.98024495 -0.40519508 -0.94187312
v -1.24614416 -0.40017608 -0.68296022
v -1.03921999 -0.55288739 -0.70856866
v -1.12397228 -0.31408259 -0.83096690
v -0.90410789 -0.48333177 -0.83032855
v -0.03968406 0.27545830 -0.95483964
v -0.42618229 0.20013969 -1.03130982
v -0.14133964 0.31144658 -0.93578868
v -0.06580729 0.20505088 -1.09221170
v -1.07507518 -0.10018852 -0.78669129
v -0.74864149 0.06099497 -1.00888447
v -0.97970620 0.02431676 -0.71723940
v -1.00312504 -0.13064220 -0.88881915
v -0.38418087 0.31463129 -0.78116820
v -0.44929556 0.16549260 -0.96128566
v -0.26706551 0.32194647 -0.86077353
v -0.60309086 0.30706066 -0.74057000
v -0.33869393 0.24601631 -0.98868079
v -0.15879989 0.06271598 -1.16339818
v -0.42426440 0.07359813 -1.10378992
v -0.09605633 0.06497154 -1.12134322
v -0.39490226 -0.04624751 -1.13613760
v -0.27483714 0.13165737 -1.08504102
v -0.91077540 0.21285423 -0.60717235
v -0.72553990 0.13102270 -0.89845710
v -0.94823880 0.09236308 -0.67341448
v -0.75863722 0.23315515 -0.66490207
v -0.86671291 0.04417415 -0.85091498
v -0.62509004 0.23264732 -0.86294125
v -0.80854679 -0.19629699 -1.10859671
v -0.68589098 0.03864761 -1.08403833
v -0.89678003 -0.13945318 -0.98860647
v -0.59569624 -0.07264487 -1.13029246
v -0.83947033 -0.03585250 -0.99357779
v -0.54037943 0.00034881 -1.14741492
v -0.79577018 0.58127513 -0.06094386
v -0.92577724 0.48887387 0.13927583
v -0.69683453 0.64641759 0.06250814
v -0.84422056 0.47290379 -0.13341689
v -1.12654040 0.22657134 0.44439171
v -1.02244292 0.39598296 0.32052461
v -0.51660457 0.70007342 0.32323904
v -0.86105071 0.53505513 0.25879699
v -0.63344237 0.66042869 0.23699037
v -0.79566566 0.61050159 0.19406258
v -1.04122282 0.29831870 -0.22581204
v -1.01966068 0.41826112 0.08346299
v -0.96730505 0.40355614 -0.17931278
v -0.96530510 0.46604312 0.00429623
v -0.97862824 -0.50871805 -0.07604536
v -1.22419770 -0.33732867 0.19009524
v -0.91166716 -0.47598642 0.07459146
v -1.11422664 -0.48477861 -0.12502626
v -1.22727228 0.06140185 0.48383982
v -1.31290793 -0.12107036 0.29775774
v -0.75256284 -0.38398350 0.36367241
v -1.17892927 -0.26873545 0.27334226
v -0.83801526 -0.42427615 0.22624447
v -1.02718823 -0.40066453 0.16721333
v -1.32042366 -0.42840905 -0.26689552
v -1.33771457 -0.31232967 0.08362630
v -1.21241138 -0.49148301 -0.16649541
v -1.21914640 -0.40707269 -0.00278820
v -0.36196482 -0.29574658 0.86809912
v -0.68060178 -0.18312251 0.78103369
v -0.44471338 -0.33884541 0.79235392
v -0.34461967 -0.20991966 0.95076151
v -1.15663450 0.06013727 0.55052489
v -0.94771188 -0.03993466 0.70045347
v -1.21906596 -0.01647773 0.50623093
v -0.63928858 -0.38980095 0.55171510
v -0.81223917 -0.21902890 0.69256779
v -0.53352493 -0.31738311 0.67722271
v -0.85594512 -0.27912598 0.49565338
v -0.63656606 -0.22581745 0.73584807
v -0.22119645 -0.04936208 1.02237753
v -0.62357000 -0.12558475 0.85566546
v -0.27094627 -0.11252355 0.96071351
v -0.48963105 -0.14049118 0.88581941
v -1.20725370 -0.22872108 0.39838246
v -0.99005272 -0.11495891 0.59503953
v -1.21223050 -0.09708363 0.47720229
v -1.07260880 -0.25741763 0.46965533
v -1.11620584 -0.08155288 0.57766789
v -0.96033653 -0.19564699 0.59685014
v -0.04879643 0.38258257 0.91733432
v -0.37954379 0.36487287 0.81446677
v -0.16711270 0.50024006 0.75476474
v -0.08076464 0.32443969 0.94558026
v -1.01565880 0.20256168 0.55783803
v -0.73567930 0.31621180 0.69889139
v -1.04458461 0.30500588 0.55215496
v -1.00565925 0.11334323 0.66668194
v -0.38981032 0.61884611 0.51935339
v -0.52417376 0.43815367 0.68797240
v -0.25162661 0.59633517 0.62489714
v -0.57067913 0.61942880 0.47986776
v -0.31405076 0.45697716 0.71353676
v -0.13106338 0.06289755 0.98496238
v -0.42169703 0.22033220 0.83655166
v -0.12185993 0.16357850 0.98171158
v -0.38017958 0.04451186 0.90676992
v -0.23682205 0.24466608 0.87975227
v -0.89960223 0.47314950 0.35422592
v -0.67050675 0.37084877 0.63684157
v -0.96359110 0.42049592 0.45193684
v -0.73616142 0.53006961 0.44724888
v -0.88212047 0.33972992 0.62111887
v -0.63368701 0.50146467 0.60719086
v -0.78757452 -0.03854236 0.78890095
v -0.68275574 0.21935497 0.79832794
v -0.91594889 0.03834840 0.71801498
v -0.59583693 -0.01840226 0.87590081
v -0.87301864 0.15584784 0.70640608
v -0.52824502 0.12254899 0.83997860
v -1.26929049 -0.14394898 -0.51461884
v -1.41395096 -0.08398370 -0.16995913
v -1.25558689 -0.03847340 -0.42686952
v -1.33109013 -0.19286696 -0.45403505
v -1.30276377 0.16075641 0.39195933
v -1.36413542 0.06054264 0.15024223
v -1.21938216 0.23840331 0.35006462
v -1.34378900 0.04441809 0.34451229
v -1.09017105 0.16163226 -0.29557296
v -1.32658448 0.07622265 -0.11890866
v -1.18088508 0.10765242 -0.39499649
v -1.16397813 0.22877313 -0.15567850
v -1.25165730 0.00508073 -0.25944160
v -1.40487533 -0.36173832 -0.31685710
v -1.40503518 -0.14370995 -0.10503404
v -1.38348025 -0.32314256 -0.38919872
v -1.42318668 -0.36290241 -0.13736056
v -1.40033327 -0.19374255 -0.30490711
v -1.08037732 0.37411047 0.21513660
v -1.29625320 0.11936640 0.08007268
v -1.18077474 0.30145729 0.27224762
v -1.13846018 0.33867430 0.03425449
v -1.29783579 0.17943311 0.21294788
v -1.25978188 0.17643012 -0.03815749
v -1.39616030 -0.17424138 0.18258704
v -1.40098857 -0.02993379 0.07282864
v -1.39060430 -0.02319231 0.28041899
v -1.41965409 -0.23699225 0.03789680
v -1.38293178 -0.00132490 0.24810809
v -1.47456744 -0.17260229 -0.05714842
f 1 533 197
f 533 138 535
f 197 535 54
f 533 535 197
f 138 534 542
f 534 38 540
f 542 540 140
f 534 540 542
f 54 541 198
f 541 140 539
f 198 539 17
f 541 539 198
f 138 542 535
f 542 140 541
f 535 541 54
f 542 541 535
f 38 538 601
f 538 139 603
f 601 603 155
f 538 603 601
f 139 537 589
f 537 12 587
f 589 587 152
f 537 587 589
f 155 605 602
f 605 152 588
f 602 588 41
f 605 588 602
f 139 589 603
f 589 152 605
f 603 605 155
f 589 605 603
f 17 591 201
f 591 153 593
f 201 593 55
f 591 593 201
f 153 592 595
f 592 41 584
f 595 584 151
f 592 584 595
f 55 585 200
f 585 151 583
f 200 583 6
f 585 583 200
f 153 595 593
f 595 151 585
f 593 585 55
f 595 585 593
f 38 601 540
f 601 155 604
f 540 604 140
f 601 604 540
f 155 602 606
f 602 41 592
f 606 592 153
f 602 592 606
f 140 594 539
f 594 153 591
f 539 591 17
f 594 591 539
f 155 606 604
f 606 153 594
f 604 594 140
f 606 594 604
f 1 197 163
f 197 54 199
f 163 199 43
f 197 199 163
f 54 198 205
f 198 17 203
f 205 203 56
f 198 203 205
f 43 204 164
f 204 56 202
f 164 202 13
f 204 202 164
f 54 205 199
f 205 56 204
f 199 204 43
f 205 204 199
f 17 201 217
f 201 55 219
f 217 219 60
f 201 219 217
f 55 200 211
f 200 6 209
f 211 209 58
f 200 209 211
f 60 221 218
f 221 58 210
f 218 210 18
f 221 210 218
f 55 211 219
f 211 58 221
f 219 221 60
f 211 221 219
f 13 212 166
f 212 59 214
f 166 214 44
f 212 214 166
f 59 213 216
f 213 18 207
f 216 207 57
f 213 207 216
f 44 208 165
f 208 57 206
f 165 206 2
f 208 206 165
f 59 216 214
f 216 57 208
f 214 208 44
f 216 208 214
f 17 217 203
f 217 60 220
f 203 220 56
f 217 220 203
f 60 218 222
f 218 18 213
f 222 213 59
f 218 213 222
f 56 215 202
f 215 59 212
f 202 212 13
f 215 212 202
f 60 222 220
f 222 59 215
f 220 215 56
f 222 215 220
f 1 163 253
f 163 43 255
f 253 255 70
f 163 255 253
f 43 164 260
f 164 13 258
f 260 258 72
f 164 258 260
f 70 261 254
f 261 72 259
f 254 259 22
f 261 259 254
f 43 260 255
f 260 72 261
f 255 261 70
f 260 261 255
f 13 166 268
f 166 44 270
f 268 270 75
f 166 270 268
f 44 165 264
f 165 2 262
f 264 262 73
f 165 262 264
f 75 272 269
f 272 73 263
f 269 263 23
f 272 263 269
f 44 264 270
f 264 73 272
f 270 272 75
f 264 272 270
f 22 273 257
f 273 76 275
f 257 275 71
f 273 275 257
f 76 274 277
f 274 23 266
f 277 266 74
f 274 266 277
f 71 267 256
f 267 74 265
f 256 265 8
f 267 265 256
f 76 277 275
f 277 74 267
f 275 267 71
f 277 267 275
f 13 268 258
f 268 75 271
f 258 271 72
f 268 271 258
f 75 269 278
f 269 23 274
f 278 274 76
f 269 274 278
f 72 276 259
f 276 76 273
f 259 273 22
f 276 273 259
f 75 278 271
f 278 76 276
f 271 276 72
f 278 276 271
f 1 253 463
f 253 70 465
f 463 465 121
f 253 465 463
f 70 254 470
f 254 22 468
f 470 468 123
f 254 468 470
f 121 471 464
f 471 123 469
f 464 469 34
f 471 469 464
f 70 470 465
f 470 123 471
f 465 471 121
f 470 471 465
f 22 257 511
f 257 71 513
f 511 513 134
f 257 513 511
f 71 256 505
f 256 8 503
f 505 503 132
f 256 503 505
f 134 515 512
f 515 132 504
f 512 504 37
f 515 504 512
f 71 505 513
f 505 132 515
f 513 515 134
f 505 515 513
f 34 521 467
f 521 136 523
f 467 523 122
f 521 523 467
f 136 522 525
f 522 37 508
f 525 508 133
f 522 508 525
f 122 509 466
f 509 133 507
f 466 507 11
f 509 507 466
f 136 525 523
f 525 133 509
f 523 509 122
f 525 509 523
f 22 511 468
f 511 134 514
f 468 514 123
f 511 514 468
f 134 512 526
f 512 37 522
f 526 522 136
f 512 522 526
f 123 524 469
f 524 136 521
f 469 521 34
f 524 521 469
f 134 526 514
f 526 136 524
f 514 524 123
f 526 524 514
f 1 463 533
f 463 121 536
f 533 536 138
f 463 536 533
f 121 464 545
f 464 34 543
f 545 543 141
f 464 543 545
f 138 546 534
f 546 141 544
f 534 544 38
f 546 544 534
f 121 545 536
f 545 141 546
f 536 546 138
f 545 546 536
f 34 467 621
f 467 122 623
f 621 623 159
f 467 623 621
f 122 466 615
f 466 11 613
f 615 613 157
f 466 613 615
f 159 625 622
f 625 157 614
f 622 614 42
f 625 614 622
f 122 615 623
f 615 157 625
f 623 625 159
f 615 625 623
f 38 631 538
f 631 161 633
f 538 633 139
f 631 633 538
f 161 632 635
f 632 42 618
f 635 618 158
f 632 618 635
f 139 619 537
f 619 158 617
f 537 617 12
f 619 617 537
f 161 635 633
f 635 158 619
f 633 619 139
f 635 619 633
f 34 621 543
f 621 159 624
f 543 624 141
f 621 624 543
f 159 622 636
f 622 42 632
f 636 632 161
f 622 632 636
f 141 634 544
f 634 161 631
f 544 631 38
f 634 631 544
f 159 636 624
f 636 161 634
f 624 634 141
f 636 634 624
f 2 206 353
f 206 57 355
f 353 355 96
f 206 355 353
f 57 207 361
f 207 18 359
f 361 359 98
f 207 359 361
f 96 362 354
f 362 98 360
f 354 360 29
f 362 360 354
f 57 361 355
f 361 98 362
f 355 362 96
f 361 362 355
f 18 210 411
f 210 58 413
f 411 413 111
f 210 413 411
f 58 209 405
f 209 6 403
f 405 403 109
f 209 403 405
f 111 415 412
f 415 109 404
f 412 404 32
f 415 404 412
f 58 405 413
f 405 109 415
f 413 415 111
f 405 415 413
f 29 421 358
f 421 113 423
f 358 423 97
f 421 423 358
f 113 422 425
f 422 32 408
f 425 408 110
f 422 408 425
f 97 409 357
f 409 110 407
f 357 407 10
f 409 407 357
f 113 425 423
f 425 110 409
f 423 409 97
f 425 409 423
f 18 411 359
f 411 111 414
f 359 414 98
f 411 414 359
f 111 412 426
f 412 32 422
f 426 422 113
f 412 422 426
f 98 424 360
f 424 113 421
f 360 421 29
f 424 421 360
f 111 426 414
f 426 113 424
f 414 424 98
f 426 424 414
f 6 583 225
f 583 151 586
f 225 586 62
f 583 586 225
f 151 584 600
f 584 41 597
f 600 597 154
f 584 597 600
f 62 598 226
f 598 154 596
f 226 596 19
f 598 596 226
f 151 600 586
f 600 154 598
f 586 598 62
f 600 598 586
f 41 588 608
f 588 152 611
f 608 611 156
f 588 611 608
f 152 587 590
f 587 12 565
f 590 565 147
f 587 565 590
f 156 609 607
f 609 147 566
f 607 566 40
f 609 566 607
f 152 590 611
f 590 147 609
f 611 609 156
f 590 609 611
f 19 573 224
f 573 149 575
f 224 575 61
f 573 575 224
f 149 574 576
f 574 40 562
f 576 562 146
f 574 562 576
f 61 564 223
f 564 146 561
f 223 561 5
f 564 561 223
f 149 576 575
f 576 146 564
f 575 564 61
f 576 564 575
f 41 608 597
f 608 156 612
f 597 612 154
f 608 612 597
f 156 607 610
f 607 40 574
f 610 574 149
f 607 574 610
f 154 599 596
f 599 149 573
f 596 573 19
f 599 573 596
f 156 610 612
f 610 149 599
f 612 599 154
f 610 599 612
f 12 617 551
f 617 158 620
f 551 620 143
f 617 620 551
f 158 618 641
f 618 42 638
f 641 638 162
f 618 638 641
f 143 639 552
f 639 162 637
f 552 637 39
f 639 637 552
f 158 641 620
f 641 162 639
f 620 639 143
f 641 639 620
f 42 614 627
f 614 157 630
f 627 630 160
f 614 630 627
f 157 613 616
f 613 11 475
f 616 475 125
f 613 475 616
f 160 628 626
f 628 125 476
f 626 476 35
f 628 476 626
f 157 616 630
f 616 125 628
f 630 628 160
f 616 628 630
f 39 558 548
f 558 145 560
f 548 560 142
f 558 560 548
f 145 557 559
f 557 35 473
f 559 473 124
f 557 473 559
f 142 550 547
f 550 124 472
f 547 472 3
f 550 472 547
f 145 559 560
f 559 124 550
f 560 550 142
f 559 550 560
f 42 627 638
f 627 160 642
f 638 642 162
f 627 642 638
f 160 626 629
f 626 35 557
f 629 557 145
f 626 557 629
f 162 640 637
f 640 145 558
f 637 558 39
f 640 558 637
f 160 629 642
f 629 145 640
f 642 640 162
f 629 640 642
f 11 507 485
f 507 133 510
f 485 510 128
f 507 510 485
f 133 508 531
f 508 37 528
f 531 528 137
f 508 528 531
f 128 529 486
f 529 137 527
f 486 527 36
f 529 527 486
f 133 531 510
f 531 137 529
f 510 529 128
f 531 529 510
f 37 504 517
f 504 132 520
f 517 520 135
f 504 520 517
f 132 503 506
f 503 8 281
f 506 281 78
f 503 281 506
f 135 518 516
f 518 78 282
f 516 282 24
f 518 282 516
f 132 506 520
f 506 78 518
f 520 518 135
f 506 518 520
f 36 494 482
f 494 130 496
f 482 496 127
f 494 496 482
f 130 493 495
f 493 24 280
f 495 280 77
f 493 280 495
f 127 484 481
f 484 77 279
f 481 279 7
f 484 279 481
f 130 495 496
f 495 77 484
f 496 484 127
f 495 484 496
f 37 517 528
f 517 135 532
f 528 532 137
f 517 532 528
f 135 516 519
f 516 24 493
f 519 493 130
f 516 493 519
f 137 530 527
f 530 130 494
f 527 494 36
f 530 494 527
f 135 519 532
f 519 130 530
f 532 530 137
f 519 530 532
f 8 265 323
f 265 74 325
f 323 325 90
f 265 325 323
f 74 266 333
f 266 23 331
f 333 331 92
f 266 331 333
f 90 335 324
f 335 92 332
f 324 332 28
f 335 332 324
f 74 333 325
f 333 92 335
f 325 335 90
f 333 335 325
f 23 263 288
f 263 73 290
f 288 290 81
f 263 290 288
f 73 262 285
f 262 2 283
f 285 283 79
f 262 283 285
f 81 291 289
f 291 79 284
f 289 284 25
f 291 284 289
f 73 285 290
f 285 79 291
f 290 291 81
f 285 291 290
f 28 342 328
f 342 94 345
f 328 345 91
f 342 345 328
f 94 341 343
f 341 25 287
f 343 287 80
f 341 287 343
f 91 329 327
f 329 80 286
f 327 286 9
f 329 286 327
f 94 343 345
f 343 80 329
f 345 329 91
f 343 329 345
f 23 288 331
f 288 81 334
f 331 334 92
f 288 334 331
f 81 289 344
f 289 25 341
f 344 341 94
f 289 341 344
f 92 346 332
f 346 94 342
f 332 342 28
f 346 342 332
f 81 344 334
f 344 94 346
f 334 346 92
f 344 346 334
f 4 367 180
f 367 100 369
f 180 369 50
f 367 369 180
f 100 368 376
f 368 30 374
f 376 374 102
f 368 374 376
f 50 375 181
f 375 102 373
f 181 373 16
f 375 373 181
f 100 376 369
f 376 102 375
f 369 375 50
f 376 375 369
f 30 372 397
f 372 101 399
f 397 399 108
f 372 399 397
f 101 371 387
f 371 10 385
f 387 385 105
f 371 385 387
f 108 401 398
f 401 105 386
f 398 386 31
f 401 386 398
f 101 387 399
f 387 105 401
f 399 401 108
f 387 401 399
f 16 388 184
f 388 106 390
f 184 390 51
f 388 390 184
f 106 389 392
f 389 31 382
f 392 382 104
f 389 382 392
f 51 383 183
f 383 104 381
f 183 381 5
f 383 381 183
f 106 392 390
f 392 104 383
f 390 383 51
f 392 383 390
f 30 397 374
f 397 108 400
f 374 400 102
f 397 400 374
f 108 398 402
f 398 31 389
f 402 389 106
f 398 389 402
f 102 391 373
f 391 106 388
f 373 388 16
f 391 388 373
f 108 402 400
f 402 106 391
f 400 391 102
f 402 391 400
f 4 180 169
f 180 50 182
f 169 182 46
f 180 182 169
f 50 181 190
f 181 16 187
f 190 187 52
f 181 187 190
f 46 188 170
f 188 52 186
f 170 186 14
f 188 186 170
f 50 190 182
f 190 52 188
f 182 188 46
f 190 188 182
f 16 184 192
f 184 51 195
f 192 195 53
f 184 195 192
f 51 183 185
f 183 5 174
f 185 174 48
f 183 174 185
f 53 193 191
f 193 48 175
f 191 175 15
f 193 175 191
f 51 185 195
f 185 48 193
f 195 193 53
f 185 193 195
f 14 176 168
f 176 49 178
f 168 178 45
f 176 178 168
f 49 177 179
f 177 15 172
f 179 172 47
f 177 172 179
f 45 173 167
f 173 47 171
f 167 171 3
f 173 171 167
f 49 179 178
f 179 47 173
f 178 173 45
f 179 173 178
f 16 192 187
f 192 53 196
f 187 196 52
f 192 196 187
f 53 191 194
f 191 15 177
f 194 177 49
f 191 177 194
f 52 189 186
f 189 49 176
f 186 176 14
f 189 176 186
f 53 194 196
f 194 49 189
f 196 189 52
f 194 189 196
f 4 169 236
f 169 46 238
f 236 238 66
f 169 238 236
f 46 170 244
f 170 14 242
f 244 242 68
f 170 242 244
f 66 246 237
f 246 68 243
f 237 243 21
f 246 243 237
f 46 244 238
f 244 68 246
f 238 246 66
f 244 246 238
f 14 168 232
f 168 45 234
f 232 234 65
f 168 234 232
f 45 167 229
f 167 3 227
f 229 227 63
f 167 227 229
f 65 235 233
f 235 63 228
f 233 228 20
f 235 228 233
f 45 229 234
f 229 63 235
f 234 235 65
f 229 235 234
f 21 248 240
f 248 69 251
f 240 251 67
f 248 251 240
f 69 247 249
f 247 20 231
f 249 231 64
f 247 231 249
f 67 241 239
f 241 64 230
f 239 230 7
f 241 230 239
f 69 249 251
f 249 64 241
f 251 241 67
f 249 241 251
f 14 232 242
f 232 65 245
f 242 245 68
f 232 245 242
f 65 233 250
f 233 20 247
f 250 247 69
f 233 247 250
f 68 252 243
f 252 69 248
f 243 248 21
f 252 248 243
f 65 250 245
f 250 69 252
f 245 252 68
f 250 252 245
f 4 236 292
f 236 66 294
f 292 294 82
f 236 294 292
f 66 237 299
f 237 21 297
f 299 297 84
f 237 297 299
f 82 300 293
f 300 84 298
f 293 298 26
f 300 298 293
f 66 299 294
f 299 84 300
f 294 300 82
f 299 300 294
f 21 240 308
f 240 67 310
f 308 310 87
f 240 310 308
f 67 239 303
f 239 7 301
f 303 301 85
f 239 301 303
f 87 312 309
f 312 85 302
f 309 302 27
f 312 302 309
f 67 303 310
f 303 85 312
f 310 312 87
f 303 312 310
f 26 317 296
f 317 89 319
f 296 319 83
f 317 319 296
f 89 318 321
f 318 27 306
f 321 306 86
f 318 306 321
f 83 307 295
f 307 86 305
f 295 305 9
f 307 305 295
f 89 321 319
f 321 86 307
f 319 307 83
f 321 307 319
f 21 308 297
f 308 87 311
f 297 311 84
f 308 311 297
f 87 309 322
f 309 27 318
f 322 318 89
f 309 318 322
f 84 320 298
f 320 89 317
f 298 317 26
f 320 317 298
f 87 322 311
f 322 89 320
f 311 320 84
f 322 320 311
f 4 292 367
f 292 82 370
f 367 370 100
f 292 370 367
f 82 293 379
f 293 26 377
f 379 377 103
f 293 377 379
f 100 380 368
f 380 103 378
f 368 378 30
f 380 378 368
f 82 379 370
f 379 103 380
f 370 380 100
f 379 380 370
f 26 296 446
f 296 83 448
f 446 448 118
f 296 448 446
f 83 295 436
f 295 9 433
f 436 433 115
f 295 433 436
f 118 450 447
f 450 115 434
f 447 434 33
f 450 434 447
f 83 436 448
f 436 115 450
f 448 450 118
f 436 450 448
f 30 457 372
f 457 120 459
f 372 459 101
f 457 459 372
f 120 458 461
f 458 33 438
f 461 438 116
f 458 438 461
f 101 440 371
f 440 116 437
f 371 437 10
f 440 437 371
f 120 461 459
f 461 116 440
f 459 440 101
f 461 440 459
f 26 446 377
f 446 118 449
f 377 449 103
f 446 449 377
f 118 447 462
f 447 33 458
f 462 458 120
f 447 458 462
f 103 460 378
f 460 120 457
f 378 457 30
f 460 457 378
f 118 462 449
f 462 120 460
f 449 460 103
f 462 460 449
f 5 381 223
f 381 104 384
f 223 384 61
f 381 384 223
f 104 382 396
f 382 31 394
f 396 394 107
f 382 394 396
f 61 395 224
f 395 107 393
f 224 393 19
f 395 393 224
f 104 396 384
f 396 107 395
f 384 395 61
f 396 395 384
f 31 386 427
f 386 105 429
f 427 429 114
f 386 429 427
f 105 385 410
f 385 10 407
f 410 407 110
f 385 407 410
f 114 431 428
f 431 110 408
f 428 408 32
f 431 408 428
f 105 410 429
f 410 110 431
f 429 431 114
f 410 431 429
f 19 416 226
f 416 112 418
f 226 418 62
f 416 418 226
f 112 417 420
f 417 32 404
f 420 404 109
f 417 404 420
f 62 406 225
f 406 109 403
f 225 403 6
f 406 403 225
f 112 420 418
f 420 109 406
f 418 406 62
f 420 406 418
f 31 427 394
f 427 114 430
f 394 430 107
f 427 430 394
f 114 428 432
f 428 32 417
f 432 417 112
f 428 417 432
f 107 419 393
f 419 112 416
f 393 416 19
f 419 416 393
f 114 432 430
f 432 112 419
f 430 419 107
f 432 419 430
f 3 171 547
f 171 47 549
f 547 549 142
f 171 549 547
f 47 172 555
f 172 15 553
f 555 553 144
f 172 553 555
f 142 556 548
f 556 144 554
f 548 554 39
f 556 554 548
f 47 555 549
f 555 144 556
f 549 556 142
f 555 556 549
f 15 175 568
f 175 48 570
f 568 570 148
f 175 570 568
f 48 174 563
f 174 5 561
f 563 561 146
f 174 561 563
f 148 572 569
f 572 146 562
f 569 562 40
f 572 562 569
f 48 563 570
f 563 146 572
f 570 572 148
f 563 572 570
f 39 577 552
f 577 150 579
f 552 579 143
f 577 579 552
f 150 578 581
f 578 40 566
f 581 566 147
f 578 566 581
f 143 567 551
f 567 147 565
f 551 565 12
f 567 565 551
f 150 581 579
f 581 147 567
f 579 567 143
f 581 567 579
f 15 568 553
f 568 148 571
f 553 571 144
f 568 571 553
f 148 569 582
f 569 40 578
f 582 578 150
f 569 578 582
f 144 580 554
f 580 150 577
f 554 577 39
f 580 577 554
f 148 582 571
f 582 150 580
f 571 580 144
f 582 580 571
f 7 230 481
f 230 64 483
f 481 483 127
f 230 483 481
f 64 231 490
f 231 20 488
f 490 488 129
f 231 488 490
f 127 492 482
f 492 129 489
f 482 489 36
f 492 489 482
f 64 490 483
f 490 129 492
f 483 492 127
f 490 492 483
f 20 228 477
f 228 63 479
f 477 479 126
f 228 479 477
f 63 227 474
f 227 3 472
f 474 472 124
f 227 472 474
f 126 480 478
f 480 124 473
f 478 473 35
f 480 473 478
f 63 474 479
f 474 124 480
f 479 480 126
f 474 480 479
f 36 498 486
f 498 131 501
f 486 501 128
f 498 501 486
f 131 497 499
f 497 35 476
f 499 476 125
f 497 476 499
f 128 487 485
f 487 125 475
f 485 475 11
f 487 475 485
f 131 499 501
f 499 125 487
f 501 487 128
f 499 487 501
f 20 477 488
f 477 126 491
f 488 491 129
f 477 491 488
f 126 478 500
f 478 35 497
f 500 497 131
f 478 497 500
f 129 502 489
f 502 131 498
f 489 498 36
f 502 498 489
f 126 500 491
f 500 131 502
f 491 502 129
f 500 502 491
f 9 305 327
f 305 86 330
f 327 330 91
f 305 330 327
f 86 306 349
f 306 27 347
f 349 347 95
f 306 347 349
f 91 351 328
f 351 95 348
f 328 348 28
f 351 348 328
f 86 349 330
f 349 95 351
f 330 351 91
f 349 351 330
f 27 302 314
f 302 85 316
f 314 316 88
f 302 316 314
f 85 301 304
f 301 7 279
f 304 279 77
f 301 279 304
f 88 315 313
f 315 77 280
f 313 280 24
f 315 280 313
f 85 304 316
f 304 77 315
f 316 315 88
f 304 315 316
f 28 337 324
f 337 93 340
f 324 340 90
f 337 340 324
f 93 336 338
f 336 24 282
f 338 282 78
f 336 282 338
f 90 326 323
f 326 78 281
f 323 281 8
f 326 281 323
f 93 338 340
f 338 78 326
f 340 326 90
f 338 326 340
f 27 314 347
f 314 88 350
f 347 350 95
f 314 350 347
f 88 313 339
f 313 24 336
f 339 336 93
f 313 336 339
f 95 352 348
f 352 93 337
f 348 337 28
f 352 337 348
f 88 339 350
f 339 93 352
f 350 352 95
f 339 352 350
f 10 437 357
f 437 116 439
f 357 439 97
f 437 439 357
f 116 438 455
f 438 33 452
f 455 452 119
f 438 452 455
f 97 453 358
f 453 119 451
f 358 451 29
f 453 451 358
f 116 455 439
f 455 119 453
f 439 453 97
f 455 453 439
f 33 434 442
f 434 115 445
f 442 445 117
f 434 445 442
f 115 433 435
f 433 9 286
f 435 286 80
f 433 286 435
f 117 443 441
f 443 80 287
f 441 287 25
f 443 287 441
f 115 435 445
f 435 80 443
f 445 443 117
f 435 443 445
f 29 364 354
f 364 99 366
f 354 366 96
f 364 366 354
f 99 363 365
f 363 25 284
f 365 284 79
f 363 284 365
f 96 356 353
f 356 79 283
f 353 283 2
f 356 283 353
f 99 365 366
f 365 79 356
f 366 356 96
f 365 356 366
f 33 442 452
f 442 117 456
f 452 456 119
f 442 456 452
f 117 441 444
f 441 25 363
f 444 363 99
f 441 363 444
f 119 454 451
f 454 99 364
f 451 364 29
f 454 364 451
f 117 444 456
f 444 99 454
f 456 454 119
f 444 454 456

