v -0.1627 0.9553 -0.7091
v 0.1622 0.9548 -0.7102
v -0.1626 0.9092 -0.3514
v 0.1615 0.9097 -0.3521
v -0.3153 0.8960 -0.7352
v 0.3137 0.8957 -0.7330
v -0.3161 0.8525 -0.5413
v 0.3139 0.8531 -0.5378
v -0.1591 0.8236 -0.0331
v 0.1603 0.8238 -0.0375
v -0.4317 0.8009 -0.7344
v 0.4314 0.8008 -0.7367
v -0.3126 0.7755 -0.2919
v 0.3118 0.7762 -0.2929
v -0.4339 0.7621 -0.6461
v 0.4329 0.7623 -0.6461
v -0.4319 0.6960 -0.4919
v 0.4304 0.6956 -0.4898
v 0.5078 0.6943 -0.7414
v -0.5063 0.6939 -0.7331
v -0.1501 0.6806 0.2330
v 0.1487 0.6813 0.2335
v -0.3005 0.6518 -0.0466
v 0.2995 0.6524 -0.0472
v 0.5121 0.6523 -0.7037
v -0.5136 0.6525 -0.7054
v -0.4209 0.5935 -0.3309
v 0.4199 0.5938 -0.3308
v -0.5114 0.5921 -0.6259
v 0.5096 0.5914 -0.6229
v -0.5631 0.5340 -0.7396
v 0.5599 0.5338 -0.7322
v -0.2831 0.5061 0.1203
v -0.1327 0.5072 0.3941
v 0.1316 0.5071 0.3946
v 0.2827 0.5060 0.1191
v -0.4991 0.5022 -0.5176
v 0.4976 0.5021 -0.5157
v -0.4048 0.4744 -0.2019
v 0.4040 0.4747 -0.2022
v -0.5573 0.4683 -0.6994
v 0.5556 0.4680 -0.6970
v -0.4817 0.4047 -0.4277
v 0.4806 0.4054 -0.4272
v -0.2694 0.3883 0.1839
v 0.2685 0.3887 0.1837
v -0.5440 0.3783 -0.6370
v -0.3898 0.3766 -0.1324
v 0.3900 0.3766 -0.1357
v 0.5443 0.3775 -0.6373
v -0.5750 0.3728 -0.5547
v 0.5762 0.3709 -0.5552
v -0.1212 0.3551 0.4427
v 0.1197 0.3550 0.4433
v -0.4635 0.3243 -0.3736
v -0.2627 0.3231 0.1966
v 0.2606 0.3229 0.1992
v 0.4612 0.3238 -0.3692
v -0.3685 0.3104 -0.0793
v 0.3665 0.3111 -0.0762
v -0.5210 0.2945 -0.5668
v -0.1542 0.2931 0.3920
v 0.1484 0.2922 0.3986
v 0.5205 0.2943 -0.5720
v -0.2572 0.2704 0.1993
v 0.2560 0.2704 0.1999
v -0.3350 0.2566 0.0033
v 0.3319 0.2563 0.0090
v -0.4313 0.2671 -0.2843
v 0.4306 0.2669 -0.2849
v -0.1777 0.2488 0.3510
v -0.0541 0.2607 0.4831
v 0.0522 0.2603 0.4836
v 0.1743 0.2499 0.3548
v -0.4943 0.2417 -0.4994
v 0.4934 0.2412 -0.4995
v -0.4003 0.2392 -0.1943
v -0.0915 0.2400 0.4531
v 0.0889 0.2391 0.4544
v 0.3981 0.2391 -0.1904
v -0.5564 0.2240 -0.7161
v 0.5565 0.2222 -0.7238
v -0.3897 0.2049 -0.1861
v 0.3926 0.2121 -0.1780
v -0.1162 0.2180 0.4248
v 0.1130 0.2171 0.4290
v -0.4537 0.2155 -0.3705
v 0.4528 0.2151 -0.3706
v -0.0455 0.2043 0.4735
v 0.0439 0.2046 0.4746
v 0.3767 0.1923 -0.1332
v -0.1233 0.1919 0.4238
v 0.1176 0.1915 0.4296
v 0.0751 0.1864 0.4712
v -0.3295 0.1666 0.0045
v -0.1838 0.1672 0.3422
v -0.0795 0.1843 0.4685
v 0.1815 0.1663 0.3445
v 0.3216 0.1765 0.0260
v -0.2580 0.1578 0.1934
v 0.2572 0.1567 0.1941
v -0.4069 0.1649 -0.2305
v -0.0970 0.1617 0.4617
v 0.0955 0.1634 0.4614
v 0.4032 0.1645 -0.2218
v -0.5312 0.1593 -0.6547
v 0.5294 0.1589 -0.6518
v 0.3357 0.1521 -0.0152
v -0.0456 0.1388 0.5055
v 0.0450 0.1382 0.5059
v -0.4431 0.1337 -0.3589
v 0.4405 0.1339 -0.3532
v 0.1701 0.1257 0.3752
v -0.3505 0.1234 -0.0583
v -0.1722 0.1256 0.3733
v 0.3505 0.1224 -0.0630
v -0.0887 0.1174 0.4838
v 0.0879 0.1176 0.4834
v -0.2638 0.1093 0.1844
v 0.2624 0.1093 0.1857
v -0.1681 0.0858 0.3889
v 0.1661 0.0861 0.3905
v -0.4841 0.0786 -0.5230
v -0.3727 0.0776 -0.1348
v 0.4849 0.0791 -0.5293
v 0.3715 0.0769 -0.1341
v -0.0519 0.0671 0.5293
v 0.0530 0.0673 0.5282
v -0.2680 0.0656 0.1749
v 0.2690 0.0655 0.1699
v 0.0948 0.0463 0.5029
v -0.0966 0.0457 0.5019
v 0.5349 0.0384 -0.7329
v -0.5351 0.0383 -0.7299
v -0.1644 0.0206 0.4112
v 0.1641 0.0208 0.4098
v -0.5203 0.0150 -0.7041
v 0.5196 0.0150 -0.7051
v -0.3939 0.0028 -0.2324
v 0.3931 0.0023 -0.2330
v -0.0641 -0.0044 0.5404
v 0.0634 -0.0045 0.5402
v -0.2744 -0.0202 0.1452
v 0.2732 -0.0200 0.1458
v 0.1010 -0.0208 0.5015
v -0.1023 -0.0221 0.5012
v -0.1344 -0.0454 0.4517
v 0.1323 -0.0459 0.4530
v -0.4701 -0.0570 -0.5612
v 0.4686 -0.0573 -0.5592
v -0.0651 -0.0699 0.5165
v 0.0646 -0.0601 0.5282
v -0.1096 -0.0873 0.4530
v 0.1095 -0.0980 0.4729
v 0.0547 -0.0854 0.5079
v -0.0724 -0.1043 0.4758
v -0.2085 -0.0977 0.2717
v 0.2057 -0.0978 0.3108
v 0.0797 -0.1012 0.4563
v 0.0276 -0.1213 0.4630
v -0.0309 -0.1211 0.4624
v -0.3688 -0.1213 -0.2581
v -0.1138 -0.1180 0.3967
v 0.3686 -0.1214 -0.2606
v -0.4962 -0.1327 -0.7281
v 0.0756 -0.1312 0.4005
v 0.4979 -0.1319 -0.7378
v -0.1629 -0.1586 0.2427
v 0.1641 -0.1582 0.2392
v 0.0402 -0.1765 0.3782
v -0.0401 -0.1772 0.3780
v -0.2723 -0.1831 -0.0239
v 0.0885 -0.1828 0.3397
v 0.2710 -0.1830 -0.0228
v -0.0902 -0.1843 0.3378
v -0.4434 -0.2018 -0.6076
v 0.4425 -0.2023 -0.6076
v -0.1492 -0.2098 0.2530
v 0.1468 -0.2095 0.2556
v -0.2208 -0.2220 0.0967
v -0.0478 -0.2233 0.3725
v 0.0469 -0.2234 0.3725
v 0.2194 -0.2227 0.0985
v -0.0953 -0.2315 0.3327
v 0.0928 -0.2313 0.3347
v -0.1952 -0.2501 0.1405
v 0.1936 -0.2496 0.1424
v -0.1489 -0.2535 0.2358
v 0.1469 -0.2527 0.2377
v -0.3607 -0.2582 -0.3682
v 0.3588 -0.2585 -0.3647
v -0.0879 -0.2651 0.3179
v 0.0875 -0.2654 0.3172
v -0.1824 -0.2728 0.1523
v 0.1484 -0.3145 0.1933
v 0.1916 -0.2901 0.5726
v -0.2900 -0.2771 -0.1501
v 0.2880 -0.2764 -0.1464
v -0.1489 -0.3036 0.1954
v -0.2420 -0.2821 -0.0147
v 0.2397 -0.2826 -0.0116
v -0.2073 -0.2836 0.0763
v -0.4501 -0.2872 -0.7327
v 0.4469 -0.2869 -0.7244
v -0.0826 -0.2902 0.2967
v -0.1900 -0.3034 0.1060
v 0.0800 -0.2887 0.2987
v -0.0862 -0.3229 0.2973
v 0.0846 -0.3232 0.2983
v -0.2219 -0.3344 0.0049
v 0.2202 -0.3352 0.0071
v -0.3930 -0.3480 -0.6382
v 0.3914 -0.3484 -0.6447
v -0.1551 -0.3527 0.1585
v -0.0875 -0.3551 0.2797
v 0.0861 -0.3552 0.2804
v -0.2597 -0.3660 -0.1613
v 0.2575 -0.3654 -0.1564
v -0.0900 -0.3813 0.2446
v 0.0891 -0.3814 0.2444
v -0.3136 -0.3859 -0.4151
v 0.3119 -0.3865 -0.4121
v -0.1702 -0.3895 0.0688
v 0.1685 -0.3898 0.0707
v -0.3685 -0.4228 -0.7409
v -0.0963 -0.4200 0.2166
v 0.0951 -0.4203 0.2172
v 0.3685 -0.4232 -0.7451
v -0.1933 -0.4417 -0.0392
v 0.1918 -0.4419 -0.0375
v -0.3315 -0.4518 -0.6047
v 0.3307 -0.4505 -0.6054
v -0.1088 -0.4839 0.1921
v 0.1068 -0.4840 0.1944
v -0.3219 -0.4850 -0.5790
v 0.3204 -0.4842 -0.5768
v -0.2177 -0.4945 -0.1381
v 0.2158 -0.4939 -0.1348
v 0.2324 -0.5360 -0.2118
v -0.2336 -0.5365 -0.2128
v -0.1198 -0.5456 0.1545
v 0.1177 -0.5454 0.1571
v -0.1237 -0.5848 0.0549
v 0.1219 -0.5858 0.0560
v -0.3485 -0.5992 -0.7265
v 0.3472 -0.5995 -0.7249
v -0.3052 -0.6451 -0.6048
v 0.3043 -0.6450 -0.6048
v -0.2254 -0.6893 -0.3600
v 0.2242 -0.6892 -0.3592
v -0.1183 -0.7216 -0.0627
v 0.1175 -0.7219 -0.0624
v -0.3562 -0.7786 -0.7380
v 0.3557 -0.7791 -0.7395
v -0.3141 -0.8154 -0.5979
v 0.3134 -0.8152 -0.5988
v -0.2321 -0.8480 -0.3537
v 0.2314 -0.8478 -0.3544
v -0.1224 -0.8700 -0.1114
v 0.1211 -0.8700 -0.1109
v -0.3774 -0.9239 -0.7381
v 0.3763 -0.9237 -0.7376
v -0.3328 -0.9558 -0.7249
v 0.3319 -0.9562 -0.7252
v -0.2448 -0.9843 -0.7119
v 0.2434 -0.9832 -0.6894
v -0.1282 -0.9993 -0.6274
v 0.1252 -0.9991 -0.6234
v 0.0007 0.9825 -0.7231
v -0.0005 0.9349 -0.2484
v -0.0005 0.8873 -0.0489
v -0.0005 0.8397 0.0875
v -0.0005 0.7921 0.1849
v -0.0005 0.7444 0.2633
v -0.0005 0.6968 0.3266
v -0.0005 0.6492 0.3746
v -0.0005 0.6016 0.4163
v -0.0005 0.5540 0.4476
v -0.0005 0.5063 0.4768
v -0.0005 0.4587 0.4909
v -0.0005 0.4111 0.5028
v 0.0007 0.3635 0.5079
v -0.0005 0.3159 0.5034
v -0.0017 0.2683 0.4967
v -0.0005 0.2206 0.4878
v -0.0017 0.1730 0.5034
v 0.0007 0.1254 0.5213
v -0.0005 0.0778 0.5439
v -0.0005 0.0302 0.5571
v 0.0007 -0.0175 0.5626
v -0.0005 -0.0651 0.5485
v -0.0005 -0.1127 0.4850
v -0.0005 -0.1603 0.3907
v -0.0005 -0.2079 0.3844
v -0.0005 -0.2556 0.3736
v -0.0005 -0.3032 0.3425
v 0.0007 -0.3508 0.3388
v -0.0005 -0.3984 0.3001
v -0.0005 -0.4460 0.3023
v -0.0005 -0.4937 0.3126
v -0.0017 -0.5413 0.3023
v -0.0017 -0.5889 0.2589
v -0.0005 -0.6365 0.0039
v -0.0005 -0.6841 -0.0169
v -0.0005 -0.7317 -0.0240
v -0.0005 -0.7794 -0.0262
v -0.0005 -0.8270 -0.0217
v -0.0005 -0.8746 -0.0126
v -0.0005 -0.9222 -0.0069
v -0.0005 -0.9698 -0.2866
v -0.0005 -1.0175 -0.2251
f 248 256 258 250
f 256 248 246 254
f 291 152 155 160
f 230 238 242 234
f 238 230 218 222 236
f 160 170 294 293
f 170 160 166 173
f 51 41 47 61
f 211 224 220 216 195
f 224 211 218 230
f 98 93 74 66 101
f 147 141 151 153
f 42 52 64 50
f 111 124 139 123
f 124 111 87 102 114
f 45 48 39 33
f 48 45 56 59
f 285 286 109 89
f 286 285 90 110
f 182 193 295 294
f 193 182 185 189
f 126 140 144 130
f 140 126 112 125
f 255 263 261 253
f 263 255 257 265
f 291 160 293 292
f 282 54 73 284 283
f 174 198 201 183
f 198 174 164 191
f 167 177 191 164 150
f 62 56 45 53
f 178 186 180 168
f 154 148 158 169
f 237 229 233 241
f 200 210 217 197
f 210 200 202 206 214
f 219 223 210 214
f 223 219 298 299 226
f 292 293 161 291
f 133 138 150 125 107
f 63 79 73 54
f 115 103 117 121 119
f 128 288 287 286 110
f 288 128 142 289
f 252 244 239 250
f 293 294 171 161
f 20 15 17 26
f 195 216 297 296 209
f 23 33 39 27
f 33 23 21 34
f 302 243 240 241
f 103 96 92 97 117
f 163 156 175 178 168
f 177 204 213 222 191
f 180 200 197 172
f 200 180 186 202
f 299 300 233 226
f 300 299 227 234
f 89 109 117 97
f 158 148 136 144
f 227 299 298 220 224
f 181 192 188 184
f 192 181 294 295
f 241 240 235 237
f 59 77 87 69
f 300 301 302 241 233
f 301 300 234 242 302
f 170 173 185 182 294
f 189 185 173 179
f 126 130 122 120 116
f 247 249 257 255
f 249 247 235 240
f 211 195 196 201
f 222 218 198 191
f 236 239 242 238
f 239 236 248 250
f 8 12 16 18 14
f 118 122 136 131
f 122 118 113 120
f 199 208 296 297 215
f 208 199 205 295 296
f 118 131 128 110
f 297 216 220 298
f 210 223 229 217
f 85 78 97 92 96
f 124 114 119 121 129
f 40 49 46 36
f 49 40 44 58
f 154 169 179 173 166
f 256 254 262 264
f 298 219 214 215 297
f 26 29 37 43 31
f 29 26 17 27 37
f 147 157 143 135
f 157 147 163 168
f 188 194 178 175
f 194 188 192 199
f 43 37 27 39
f 11 7 13 17
f 251 259 257 249
f 144 140 125 150 164
f 72 284 285 89
f 284 72 53 282 283
f 190 221 212 203 176
f 221 190 197 217
f 91 108 101 99
f 249 240 243 251
f 44 40 28 38
f 215 214 206 199
f 69 55 48 59
f 294 181 184 171
f 36 46 54 35
f 65 100 95 83 67
f 100 65 71 85 96
f 295 193 207 296
f 217 225 212 221
f 18 25 30 38 28
f 25 18 16 19
f 58 70 60 49
f 70 58 76 88
f 121 135 143 129
f 135 121 117 132
f 161 171 175 156
f 250 258 260 252
f 296 207 195 209
f 159 154 166 160 155
f 172 162 143 157
f 32 44 38 30 25
f 196 195 189 179
f 45 33 34 53
f 73 90 285 284
f 90 73 79 94
f 287 288 127 109 286
f 142 128 131 145
f 265 257 259 267
f 87 77 67 83
f 239 244 302 242
f 179 169 183 187
f 258 266 268 260
f 266 258 256 264
f 135 132 146 147
f 14 18 28 24
f 227 224 230 234
f 143 139 124 129
f 201 198 218 211
f 110 90 94 104
f 158 174 183 169
f 174 158 144 164
f 72 89 97 78
f 84 99 101 66 68
f 222 213 228 232
f 291 161 156 151
f 27 17 13 23
f 132 117 109 127
f 157 168 180 172
f 126 116 105 112
f 46 49 60 57
f 179 187 183 201 196
f 207 193 189 195
f 229 223 226 233
f 148 145 131 136
f 253 245 247 255
f 28 40 36 24
f 13 9 21 23
f 72 78 62 53
f 110 104 113 118
f 188 175 171 184
f 136 122 130 144
f 222 232 228 236
f 199 192 295 205
f 35 22 24 36
f 48 55 43 39
f 10 14 24 22
f 95 102 87 83
l 248 256
l 56 67
l 152 291
l 230 238
l 160 170
l 41 51
l 211 224
l 93 98
l 141 147
l 42 52
l 82 88
l 111 124
l 45 48
l 285 286
l 74 93
l 182 193
l 126 140
l 255 263
l 160 291
l 54 282
l 174 198
l 167 177
l 56 62
l 178 186
l 56 71
l 148 154
l 100 114
l 229 237
l 200 210
l 219 223
l 292 293
l 41 55
l 141 142
l 133 138
l 141 151
l 63 79
l 103 115
l 128 288
l 55 75
l 244 252
l 293 294
l 15 20
l 195 216
l 23 33
l 243 302
l 96 103
l 156 163
l 177 204
l 180 200
l 299 300
l 137 149
l 89 109
l 148 158
l 227 299
l 181 192
l 240 241
l 59 77
l 300 301
l 170 173
l 152 155
l 185 189
l 111 123
l 147 153
l 126 130
l 247 249
l 52 64
l 195 211
l 274 275
l 218 222
l 170 294
l 236 239
l 88 112
l 180 186
l 107 125
l 248 250
l 236 248
l 8 12
l 118 122
l 199 208
l 118 131
l 307 308
l 216 297
l 210 223
l 78 85
l 114 124
l 40 49
l 3 9
l 154 169
l 92 96
l 254 256
l 219 298
l 26 29
l 95 119
l 4 10
l 147 157
l 255 257
l 44 64
l 106 134
l 188 194
l 37 43
l 137 139
l 7 11
l 251 259
l 150 167
l 140 144
l 261 263
l 72 284
l 190 221
l 273 274
l 91 108
l 240 249
l 114 119
l 40 44
l 11 17
l 214 215
l 243 251
l 262 264
l 235 247
l 191 222
l 306 307
l 55 69
l 84 105
l 181 294
l 36 46
l 65 100
l 193 295
l 217 225
l 18 25
l 47 61
l 66 74
l 236 238
l 58 70
l 280 281
l 121 135
l 161 171
l 250 258
l 207 296
l 260 308
l 154 159
l 162 172
l 32 44
l 214 219
l 95 100
l 155 160
l 76 105
l 25 32
l 195 196
l 33 45
l 73 90
l 287 288
l 128 142
l 234 300
l 217 229
l 257 265
l 268 311
l 288 289
l 77 87
l 10 272
l 239 244
l 169 179
l 210 217
l 258 266
l 61 75
l 235 237
l 132 135
l 294 295
l 14 18
l 224 227
l 54 63
l 57 68
l 295 296
l 139 143
l 198 201
l 90 110
l 190 197
l 231 235
l 158 174
l 269 270
l 72 89
l 151 153
l 191 198
l 21 34
l 84 99
l 213 222
l 241 302
l 35 54
l 46 54
l 65 67
l 161 291
l 17 27
l 194 199
l 106 123
l 165 172
l 6 8
l 117 132
l 157 168
l 238 242
l 249 251
l 66 68
l 250 252
l 99 101
l 172 180
l 212 225
l 116 126
l 197 200
l 124 139
l 46 49
l 86 94
l 65 71
l 244 302
l 89 285
l 138 150
l 165 176
l 157 172
l 257 259
l 98 104
l 168 178
l 301 302
l 50 64
l 179 187
l 179 196
l 31 41
l 201 211
l 220 224
l 193 207
l 5 7
l 223 229
l 142 152
l 275 276
l 105 112
l 145 148
l 245 253
l 127 288
l 308 309
l 27 39
l 246 254
l 239 242
l 28 40
l 251 305
l 282 283
l 256 258
l 45 56
l 21 275
l 105 107
l 113 120
l 105 116
l 253 261
l 38 44
l 46 57
l 197 217
l 178 194
l 97 117
l 9 13
l 49 58
l 211 218
l 263 265
l 72 78
l 264 266
l 174 183
l 171 294
l 75 106
l 19 25
l 186 202
l 119 121
l 189 195
l 20 26
l 252 260
l 152 154
l 42 50
l 23 27
l 73 284
l 104 110
l 245 247
l 218 230
l 115 119
l 144 164
l 289 290
l 156 175
l 175 188
l 107 133
l 259 267
l 66 101
l 182 294
l 69 106
l 281 282
l 260 268
l 122 136
l 101 113
l 149 162
l 222 232
l 162 190
l 233 241
l 34 279
l 74 86
l 63 86
l 134 137
l 296 297
l 220 298
l 160 293
l 234 242
l 156 161
l 67 83
l 96 119
l 16 19
l 270 271
l 129 143
l 108 120
l 192 199
l 22 35
l 78 97
l 130 144
l 173 185
l 222 236
l 103 117
l 163 168
l 109 286
l 166 173
l 195 209
l 44 58
l 85 96
l 226 233
l 125 150
l 196 201
l 199 206
l 56 59
l 48 55
l 199 215
l 69 87
l 205 295
l 169 183
l 240 243
l 70 88
l 81 106
l 206 214
l 208 296
l 53 282
l 155 159
l 36 40
l 15 17
l 303 304
l 96 100
l 104 113
l 144 158
l 188 192
l 18 28
l 90 285
l 29 37
l 48 59
l 158 169
l 89 97
l 121 129
l 189 193
l 59 65
l 51 61
l 30 38
l 122 130
l 143 162
l 242 302
l 225 231
l 33 39
l 203 212
l 247 255
l 266 268
l 125 140
l 228 232
l 226 299
l 199 205
l 7 13
l 258 260
l 181 184
l 198 218
l 229 233
l 59 69
l 302 303
l 62 65
l 43 61
l 81 87
l 143 157
l 32 42
l 154 166
l 235 240
l 173 179
l 63 66
l 254 262
l 33 34
l 224 230
l 25 30
l 176 190
l 73 79
l 17 26
l 276 277
l 147 163
l 128 131
l 136 144
l 109 127
l 265 267
l 10 14
l 151 291
l 177 191
l 277 278
l 309 310
l 228 236
l 110 128
l 150 164
l 22 24
l 310 311
l 151 156
l 62 78
l 102 114
l 172 197
l 283 284
l 92 97
l 124 129
l 95 102
l 284 285
l 195 207
l 176 203
l 136 148
l 58 76
l 202 206
l 290 291
l 215 297
l 83 87
l 21 23
l 22 275
l 135 143
l 24 28
l 291 292
l 183 201
l 84 88
l 116 120
l 132 146
l 192 295
l 117 121
l 109 117
l 10 22
l 79 94
l 90 94
l 110 118
l 259 308
l 210 214
l 239 250
l 120 122
l 43 55
l 164 174
l 183 187
l 13 23
l 135 147
l 252 305
l 61 81
l 76 88
l 184 188
l 14 24
l 216 220
l 233 300
l 161 293
l 57 74
l 246 248
l 68 80
l 217 221
l 87 102
l 71 85
l 131 136
l 87 111
l 9 21
l 131 145
l 98 120
l 91 99
l 64 82
l 83 95
l 24 36
l 53 72
l 145 155
l 253 255
l 75 87
l 213 228
l 297 298
l 57 60
l 54 73
l 146 147
l 146 156
l 27 37
l 39 48
l 298 299
l 68 84
l 249 257
l 79 93
l 168 180
l 179 189
l 267 311
l 142 289
l 28 38
l 271 272
l 101 108
l 9 272
l 31 43
l 112 126
l 42 58
l 272 273
l 142 145
l 304 305
l 164 191
l 113 118
l 305 306
l 175 178
l 94 104
l 123 149
l 227 234
l 60 66
l 278 279
l 39 43
l 98 101
l 12 16
l 279 280
l 13 17
l 204 213
l 223 226
l 53 62
l 182 185
l 82 107
l 35 279
l 16 18
l 8 14
l 286 287
l 230 234
l 60 70
l 127 132
l 100 115
l 160 166
l 200 202
l 127 141
l 171 175
l 41 47
l 49 60
l 171 184
l 209 296
l 101 116
l 149 165
l 64 76
l 112 125
l 26 31
l 212 221
l 34 53
l 45 53
l 256 264
l 35 36
l 237 241
l 67 77
l 110 286
l 123 139
