v -0.1655 0.9625 -0.4056
v 0.1740 0.9630 -0.4069
v -0.3264 0.9031 -0.4773
v 0.3337 0.9037 -0.4744
v -0.1619 0.8728 -0.1039
v 0.1728 0.8730 -0.1062
v -0.4474 0.8491 -0.7724
v 0.4568 0.8490 -0.7804
v -0.3226 0.8225 -0.2090
v 0.3315 0.8231 -0.2103
v -0.4497 0.8084 -0.5648
v 0.4584 0.8086 -0.5647
v -0.4476 0.7391 -0.3410
v 0.4557 0.7387 -0.3386
v 0.5369 0.7374 -0.7847
v -0.5256 0.7370 -0.7517
v -0.1524 0.7230 0.1510
v 0.1606 0.7238 0.1510
v -0.3100 0.6928 0.0214
v 0.3186 0.6934 0.0205
v 0.5414 0.6934 -0.6588
v -0.5332 0.6936 -0.6631
v -0.4361 0.6317 -0.1577
v 0.4448 0.6320 -0.1577
v -0.5309 0.6302 -0.4935
v 0.5387 0.6295 -0.4884
v -0.5851 0.5694 -0.7665
v 0.5914 0.5692 -0.7363
v -0.2918 0.5401 0.1682
v -0.1342 0.5414 0.3015
v 0.1427 0.5412 0.3019
v 0.3010 0.5400 0.1676
v -0.5181 0.5361 -0.3262
v 0.5262 0.5360 -0.3240
v -0.4193 0.5070 -0.0316
v 0.4281 0.5073 -0.0318
v -0.5790 0.5006 -0.6323
v 0.5870 0.5003 -0.6261
v -0.4998 0.4340 -0.2197
v 0.5084 0.4347 -0.2192
v -0.2774 0.4167 0.2172
v 0.2862 0.4172 0.2171
v -0.5651 0.4063 -0.4961
v -0.4035 0.4045 0.0288
v 0.4134 0.4045 0.0266
v 0.5750 0.4054 -0.4966
v -0.5976 0.4006 0.9678
v 0.6085 0.3985 1.1083
v -0.1221 0.3820 0.3442
v 0.1302 0.3818 0.3445
v -0.4808 0.3498 -0.1658
v -0.2704 0.3485 0.2239
v 0.2779 0.3483 0.2252
v 0.4881 0.3492 -0.1616
v -0.3812 0.3352 0.0623
v 0.3888 0.3359 0.0643
v -0.5410 0.3185 -0.3863
v -0.1567 0.3170 0.3161
v 0.1603 0.3161 0.3191
v 0.5501 0.3183 -0.3936
v -0.2646 0.2932 0.2201
v 0.2730 0.2933 0.2203
v -0.3461 0.2788 0.1111
v 0.3526 0.2785 0.1146
v -0.4470 0.2898 -0.0905
v 0.4559 0.2896 -0.0910
v -0.1813 0.2706 0.2946
v -0.0518 0.2831 0.3535
v 0.0596 0.2827 0.3537
v 0.1875 0.2717 0.2964
v -0.5130 0.2631 -0.3019
v 0.5217 0.2627 -0.3020
v -0.4145 0.2606 -0.0223
v -0.0910 0.2614 0.3378
v 0.0980 0.2605 0.3384
v 0.4219 0.2604 -0.0194
v -0.5781 0.2447 -0.6791
v 0.5879 0.2428 -0.7039
v -0.3943 0.2421 0.0127
v -0.1168 0.2384 0.3230
v 0.1233 0.2374 0.3260
v -0.4705 0.2357 -0.1674
v 0.4792 0.2353 -0.1676
v -0.4316 0.2266 1.2715
v -0.0428 0.2240 1.1723
v -0.4108 0.2258 1.2874
v 0.0509 0.2243 1.2858
v 0.3995 0.2114 0.0227
v -0.1321 0.2185 0.3208
v 0.1388 0.2185 0.3218
v -0.1166 0.2036 0.3336
v 0.1151 0.2128 0.3340
v -0.3941 0.2037 0.0150
v 0.0835 0.2053 0.3498
v -0.3403 0.1845 0.1162
v -0.1877 0.1852 0.2958
v -0.0784 0.2031 0.3486
v 0.1304 0.2005 0.3319
v 0.1950 0.1842 0.2968
v 0.3417 0.1949 0.1277
v -0.2655 0.1753 0.2247
v 0.2743 0.1741 0.2256
v -0.4214 0.1828 -0.0441
v -0.0968 0.1794 0.3512
v 0.1049 0.1812 0.3504
v 0.4273 0.1823 -0.0374
v -0.5517 0.1769 -0.5292
v 0.5595 0.1764 -0.5234
v 0.3565 0.1693 0.1080
v -0.0429 0.1554 0.3750
v 0.0520 0.1548 0.3755
v -0.4594 0.1501 -0.1482
v 0.4663 0.1502 -0.1428
v 0.1831 0.1417 0.3203
v -0.3624 0.1392 0.0847
v -0.1756 0.1416 0.3194
v 0.3721 0.1382 0.0821
v -0.0881 0.1330 0.3706
v 0.0970 0.1332 0.3703
v -0.2716 0.1245 0.2295
v 0.2797 0.1245 0.2301
v -0.1713 0.0999 0.3348
v 0.1788 0.1002 0.3354
v -0.5023 0.0923 -0.3168
v -0.3856 0.0913 0.0423
v 0.5128 0.0929 -0.3248
v 0.3941 0.0905 0.0428
v -0.0496 0.0803 0.4024
v 0.0604 0.0805 0.4019
v -0.2759 0.0787 0.2326
v 0.2866 0.0786 0.2299
v 0.1042 0.0585 0.3965
v -0.0963 0.0579 0.3960
v -0.5557 0.0501 -0.7191
v -0.1674 0.0315 0.3598
v 0.1768 0.0318 0.3591
v -0.5402 0.0257 -0.6356
v 0.5492 0.0257 -0.6383
v -0.4078 0.0129 -0.0214
v 0.4166 0.0124 -0.0221
v -0.0624 0.0054 0.4196
v 0.0713 0.0052 0.4195
v -0.2826 -0.0112 0.2257
v 0.2911 -0.0110 0.2260
v 0.1107 -0.0118 0.4013
v -0.1023 -0.0132 0.4012
v -0.1360 -0.0376 0.3764
v 0.1435 -0.0381 0.3767
v -0.4876 -0.0498 -0.3661
v 0.4958 -0.0500 -0.3632
v -0.0645 -0.0528 0.4080
v 0.0725 -0.0530 0.4080
v -0.1100 -0.0815 0.3572
v 0.1120 -0.0696 0.3734
v 0.0621 -0.0795 0.3825
v -0.0623 -0.0737 0.3868
v -0.0710 -0.0993 0.3568
v -0.2135 -0.0924 1.3962
v 0.2203 -0.0925 1.3969
v 0.0883 -0.0961 0.5903
v 0.0338 -0.1172 0.3269
v -0.0275 -0.1169 0.3268
v 0.1166 -0.0994 0.3403
v -0.3815 -0.1171 -0.0806
v -0.1144 -0.1136 0.3009
v 0.1217 -0.1142 0.3006
v 0.3910 -0.1172 -0.0826
v -0.5151 -0.1291 -0.7247
v 0.0841 -0.1275 0.2792
v 0.5265 -0.1282 -0.7610
v -0.1658 -0.1562 0.1833
v 0.1767 -0.1557 0.1819
v 0.0470 -0.1750 0.2412
v -0.0372 -0.1757 0.2407
v -0.2804 -0.1818 0.0407
v 0.0975 -0.1815 0.2235
v 0.2887 -0.1818 0.0414
v -0.0896 -0.1831 0.2219
v -0.4597 -0.2015 -0.4729
v 0.4684 -0.2020 -0.4728
v -0.1515 -0.2098 0.1837
v 0.1586 -0.2096 0.1849
v -0.2265 -0.2227 0.1068
v -0.0453 -0.2240 0.2378
v 0.0540 -0.2240 0.2379
v 0.2347 -0.2234 0.1081
v -0.0950 -0.2326 0.2221
v 0.1020 -0.2324 0.2230
v -0.1996 -0.2521 0.1236
v 0.2076 -0.2515 0.1248
v -0.1512 -0.2556 0.1691
v 0.1587 -0.2548 0.1700
v -0.3731 -0.2605 -0.2085
v 0.3807 -0.2609 -0.2054
v -0.0872 -0.2678 0.2023
v 0.0965 -0.2681 0.2020
v -0.1863 -0.2758 0.1221
v 0.1603 -0.3195 0.1323
v 0.1952 -0.2771 0.1201
v -0.2990 -0.2803 -0.0507
v 0.3066 -0.2796 -0.0480
v -0.1512 -0.3082 0.1320
v -0.2487 -0.2855 0.0266
v 0.2560 -0.2861 0.0280
v -0.4667 -0.2909 -0.7494
v 0.4731 -0.2906 -0.7210
v -0.0817 -0.2940 0.8265
v -0.1942 -0.3079 0.0884
v 0.0887 -0.2925 0.1777
v 0.1985 -0.2960 1.4045
v 0.2083 -0.3153 0.0807
v -0.0854 -0.3283 0.1826
v 0.0935 -0.3287 0.1833
v -0.2276 -0.3403 0.0385
v 0.2356 -0.3412 0.0397
v -0.4068 -0.3546 -0.5307
v 0.4149 -0.3551 -0.5417
v -0.1577 -0.3595 0.1118
v -0.0869 -0.3620 0.1678
v 0.0950 -0.3622 0.1682
v -0.2673 -0.3735 -0.0680
v 0.2746 -0.3728 -0.0646
v -0.0894 -0.3895 0.1356
v 0.0982 -0.3896 0.1355
v -0.3237 -0.3944 -0.2723
v 0.3316 -0.3949 -0.2697
v -0.1734 -0.3981 0.0499
v 0.1813 -0.3984 0.0507
v -0.3812 -0.4330 -0.7850
v -0.0961 -0.4301 0.1181
v 0.1044 -0.4304 0.1184
v 0.3909 -0.4334 -0.8039
v -0.1976 -0.4528 -0.0109
v 0.2058 -0.4530 -0.0099
v -0.3425 -0.4634 -0.4867
v 0.3514 -0.4620 -0.4877
v -0.1092 -0.4970 0.1109
v 0.1167 -0.4971 0.1120
v -0.3324 -0.4981 -0.4496
v 0.3406 -0.4973 -0.4467
v -0.2232 -0.5081 -0.0632
v 0.2309 -0.5075 -0.0614
v 0.2484 -0.5516 -0.1160
v -0.2399 -0.5521 -0.1167
v -0.1206 -0.5617 0.0881
v 0.1282 -0.5615 0.0893
v -0.1247 -0.6027 1.4223
v 0.1326 -0.6038 1.4225
v -0.3603 -0.6178 -0.7398
v 0.3686 -0.6181 -0.7349
v -0.3149 -0.6659 -0.5635
v 0.3236 -0.6658 -0.5635
v -0.2313 -0.7122 -0.3588
v 0.2397 -0.7121 -0.3584
v -0.1191 -0.7460 -0.2297
v 0.1280 -0.7463 -0.2299
v -0.3683 -0.8058 -0.8044
v 0.3775 -0.8062 -0.8094
v -0.3242 -0.8443 -0.5608
v 0.3332 -0.8441 -0.5619
v -0.2383 -0.8785 -0.3549
v 0.2473 -0.8782 -0.3553
v -0.1233 -0.9015 -0.2198
v 0.1317 -0.9015 -0.2196
v -0.3906 -0.9579 -0.8032
v 0.3991 -0.9578 -0.8013
v -0.3438 -0.9914 -0.7898
v 0.3526 -0.9918 -0.7909
v -0.2517 -1.0213 -0.7961
v 0.2599 -1.0201 -0.7616
v -0.1294 -1.0370 -0.7483
v 0.1360 -1.0368 -0.7455
f 246 238 234 242
f 257 259 265
f 259 257 251
f 46 38 48 60
f 62 102 99 70
f 102 62 64 100
f 19 23 13 9
f 23 19 29 35
f 113 126 140 127
f 158 175 164 143
f 175 158 171 183
f 47 37 43 57
f 203 214 200 175 183
f 227 233 221 214
f 233 227 230 237
f 253 261 259 251
f 261 253 255 263
f 180 206 217 226 194
f 234 238 231 228
f 41 44 35 29
f 44 41 52 55
f 268 270 262 260
f 128 129 142 141
f 129 128 110 111
f 260 266 268
f 266 260 258
f 121 123 119 114
f 123 121 117 127 131
f 159 148 136 144
f 187 184 195 191
f 272 271 263 264
f 250 258 252
f 185 188 192 196
f 216 205 179 193 225
f 174 178 157 162
f 245 255 247 244
f 256 264 263 255
f 264 256 254 262
f 127 140 144 131
f 180 194 167 170
f 252 260 262 254
f 260 252 258
f 12 15 21 14
f 177 186 172 159
f 186 177 201 204
f 51 71 57 39
f 71 51 65 82
f 242 234 222 226 240
f 123 136 132 119
f 136 123 131 144
f 128 133 118 110
f 29 19 17 30
f 18 31 30 17
f 31 18 20 32
f 215 222 234 228
f 222 215 204 201
f 84 103 115 125 112
f 120 122 130 125 115
f 122 120 116 118
f 26 28 40 34
f 28 26 21
f 40 54 45 36
f 118 116 104
f 99 90 70
f 272 264 262 270
f 130 143 139 125
f 143 130 122 135
f 139 124 112 125
f 148 145 132 136
f 44 51 39 35
f 51 44 55 65
f 83 66 54 72
f 4 8 14 10
f 244 253 251 239
f 253 244 247 255
f 241 245 244 239
f 245 241 233 237
f 126 150 167 140
f 32 36 45 42
f 36 32 20 24
f 13 11 7
f 14 24 20 10
f 24 14 21 26 34
f 269 267 259 261
f 25 33 39 27
f 33 25 22 13 23
f 240 226 217 232 236
f 191 202 197
f 202 191 195
f 251 249 239
f 171 158 147 165
f 140 167 144
f 119 132 129 111
f 263 271 269 261
f 144 167 177 159
f 39 33 23 35
f 7 3 9 13
f 69 87 85 68
f 40 36 24 34
f 61 101 95 63
f 101 61 67 96
f 252 254 250
f 32 42 50 31
f 39 57 43 37 27
f 147 158 143 135
f 54 66 56 45
f 171 165 157 178 181
f 194 201 177 167
f 201 194 226 222
f 106 72 108
f 6 10 20 18
f 240 250 254 243
f 135 122 118 133
f 150 170 167
f 89 96 67
f 240 243 246 242
f 248 256 246 243
f 256 248 243 254
f 102 100 88 109
f 265 259 267
f 225 193 200 221
f 17 19 9 5
f 50 42 53
f 214 221 200
f 139 143 164
f 236 232 240
f 111 110 85 87
f 42 45 56 53
f 135 133 146 147
f 106 113 127 117
f 8 12 14
l 238 246
l 257 259
l 52 63
l 38 46
l 62 102
l 102 117
l 181 189
l 160 166
l 19 23
l 113 126
l 192 198
l 224 228
l 158 175
l 37 47
l 203 214
l 227 233
l 253 261
l 124 149
l 142 161
l 180 206
l 38 48
l 78 83
l 234 238
l 41 44
l 268 270
l 128 129
l 260 266
l 121 123
l 148 159
l 166 172
l 184 187
l 271 272
l 235 239
l 250 258
l 108 126
l 185 188
l 205 216
l 52 67
l 70 81
l 59 81
l 156 165
l 260 268
l 174 178
l 98 99
l 245 255
l 256 264
l 117 121
l 63 79
l 127 140
l 180 194
l 252 260
l 12 15
l 177 186
l 91 96
l 59 75
l 257 265
l 70 75
l 51 71
l 234 242
l 97 118
l 123 136
l 128 133
l 102 114
l 166 176
l 19 29
l 18 31
l 227 230
l 124 137
l 101 115
l 149 164
l 198 209
l 215 222
l 141 142
l 84 103
l 120 122
l 141 151
l 166 169
l 26 28
l 84 112
l 40 54
l 55 73
l 116 118
l 90 99
l 264 272
l 155 161
l 130 143
l 124 139
l 162 174
l 109 121
l 145 148
l 83 113
l 77 107
l 52 55
l 198 211
l 44 51
l 65 82
l 198 220
l 156 162
l 131 144
l 48 60
l 184 195
l 66 83
l 116 120
l 98 114
l 137 149
l 4 8
l 270 272
l 244 253
l 198 213
l 112 125
l 241 245
l 126 150
l 32 36
l 11 13
l 147 153
l 36 45
l 127 131
l 1 5
l 198 199
l 14 24
l 267 269
l 25 33
l 226 240
l 191 202
l 22 25
l 198 215
l 249 251
l 215 228
l 44 55
l 148 154
l 195 202
l 2 6
l 55 61
l 47 57
l 119 123
l 158 171
l 26 34
l 230 237
l 140 167
l 40 60
l 119 132
l 263 271
l 7 11
l 144 167
l 183 203
l 172 182
l 33 39
l 191 195
l 105 114
l 104 116
l 3 7
l 176 182
l 115 125
l 29 35
l 173 174
l 202 208
l 187 191
l 251 253
l 69 87
l 263 264
l 237 245
l 93 115
l 136 148
l 36 40
l 122 130
l 188 192
l 96 120
l 147 157
l 233 241
l 61 101
l 252 254
l 147 165
l 7 13
l 191 197
l 198 210
l 151 157
l 51 65
l 107 134
l 104 118
l 3 9
l 123 131
l 214 227
l 173 176
l 55 65
l 184 185
l 32 42
l 58 61
l 39 57
l 137 139
l 96 104
l 77 82
l 169 172
l 14 21
l 43 57
l 62 70
l 28 38
l 147 158
l 54 66
l 172 186
l 165 171
l 59 62
l 112 124
l 126 140
l 115 120
l 29 30
l 21 26
l 194 201
l 202 212
l 13 22
l 259 261
l 72 106
l 251 257
l 194 226
l 6 10
l 28 40
l 244 245
l 252 258
l 201 222
l 222 226
l 168 175
l 176 188
l 21 28
l 29 41
l 240 250
l 72 108
l 18 20
l 251 259
l 58 74
l 169 176
l 122 135
l 150 170
l 218 219
l 247 255
l 244 247
l 64 100
l 89 96
l 161 162
l 110 128
l 143 158
l 179 205
l 202 207
l 240 243
l 248 256
l 100 102
l 259 265
l 96 101
l 111 129
l 144 159
l 157 178
l 57 71
l 193 225
l 25 27
l 175 200
l 54 72
l 99 121
l 10 14
l 125 139
l 50 59
l 140 144
l 168 179
l 50 68
l 258 260
l 53 64
l 259 267
l 71 107
l 17 19
l 164 175
l 20 24
l 255 263
l 164 193
l 218 223
l 179 193
l 221 225
l 167 194
l 17 30
l 255 256
l 150 167
l 265 267
l 6 18
l 243 248
l 42 50
l 31 50
l 61 63
l 206 217
l 214 221
l 13 23
l 222 234
l 139 143
l 266 268
l 68 69
l 143 164
l 232 236
l 39 51
l 129 132
l 217 232
l 86 107
l 136 144
l 9 19
l 262 264
l 239 241
l 62 64
l 233 237
l 246 256
l 57 77
l 225 233
l 75 90
l 118 122
l 72 83
l 110 118
l 82 112
l 10 20
l 221 229
l 240 242
l 93 95
l 258 266
l 53 70
l 111 119
l 103 115
l 204 215
l 228 234
l 64 76
l 129 142
l 254 262
l 99 102
l 67 80
l 110 111
l 75 92
l 107 124
l 125 130
l 5 17
l 118 133
l 42 45
l 229 235
l 85 110
l 269 271
l 61 67
l 232 240
l 60 78
l 17 18
l 186 204
l 236 240
l 139 164
l 175 183
l 135 143
l 20 32
l 49 68
l 133 135
l 46 60
l 75 94
l 163 166
l 71 82
l 214 218
l 243 254
l 221 233
l 261 269
l 27 37
l 53 56
l 50 69
l 132 136
l 63 95
l 132 145
l 170 180
l 49 52
l 23 33
l 201 204
l 262 270
l 35 44
l 128 141
l 85 87
l 138 150
l 133 146
l 171 181
l 50 53
l 24 34
l 182 190
l 27 39
l 167 177
l 68 85
l 95 120
l 157 165
l 228 231
l 23 35
l 38 54
l 91 116
l 135 147
l 239 249
l 146 147
l 171 183
l 197 202
l 24 36
l 142 152
l 167 170
l 106 113
l 81 94
l 56 62
l 35 39
l 102 109
l 41 52
l 239 251
l 78 108
l 113 127
l 216 225
l 8 12
l 67 96
l 117 127
l 34 40
l 42 53
l 88 100
l 114 119
l 149 168
l 88 109
l 178 181
l 193 200
l 159 177
l 87 111
l 217 226
l 185 196
l 9 13
l 177 201
l 49 58
l 239 244
l 5 9
l 67 89
l 45 54
l 242 246
l 200 221
l 8 14
l 74 97
l 253 255
l 106 108
l 114 121
l 12 14
l 106 117
l 4 10
l 157 162
l 254 256
l 56 66
l 70 90
l 49 69
l 99 105
l 70 99
l 37 43
l 200 214
l 243 246
l 216 229
l 45 56
l 250 252
l 95 101
l 60 72
l 159 172
l 30 31
l 231 238
l 15 21
l 260 262
l 30 49
l 41 58
l 192 196
l 31 32
l 250 254
l 208 218
l 16 22
l 261 263
l 63 73
l 95 103
l 101 116
