v -0.0990 0.9154 -0.3827
v 0.0983 0.9159 -0.3840
v -0.3153 0.9022 -0.7599
v 0.3137 0.9019 -0.7537
v -0.3161 0.8587 -0.4512
v 0.3139 0.8593 -0.4485
v -0.1591 0.8298 -0.0947
v 0.1603 0.8300 -0.0970
v -0.4317 0.8071 -0.7328
v 0.4314 0.8070 -0.7405
v -0.3126 0.7817 -0.1951
v 0.3118 0.7823 -0.1963
v -0.4339 0.7683 -0.5347
v 0.4329 0.7685 -0.5346
v -0.4319 0.7021 -0.3211
v 0.4304 0.7018 -0.3188
v 0.5078 0.7005 -0.7446
v -0.5063 0.7001 -0.7131
v -0.1501 0.6868 0.1485
v 0.1487 0.6875 0.1486
v -0.3005 0.6579 0.0248
v 0.2995 0.6585 0.0240
v 0.5121 0.6585 -0.6244
v -0.5136 0.6587 -0.6286
v -0.4209 0.5997 -0.1461
v 0.4199 0.5999 -0.1461
v -0.5114 0.5982 -0.4666
v 0.5096 0.5975 -0.4618
v -0.5631 0.5401 -0.7272
v 0.5599 0.5400 -0.6984
v -0.2831 0.5122 0.1649
v -0.1327 0.5134 0.2922
v 0.1316 0.5133 0.2926
v 0.2827 0.5121 0.1644
v -0.4991 0.5083 -0.3070
v 0.4976 0.5082 -0.3048
v -0.4048 0.4806 -0.0257
v 0.4040 0.4809 -0.0260
v -0.5573 0.4745 -0.5992
v 0.5556 0.4742 -0.5933
v -0.4817 0.4109 -0.2053
v 0.4806 0.4116 -0.2048
v -0.2694 0.3945 0.2117
v 0.2685 0.3949 0.2117
v -0.5440 0.3845 -0.4691
v -0.3898 0.3828 0.0319
v 0.3900 0.3827 0.0298
v 0.5443 0.3836 -0.4696
v -0.5750 0.3790 -0.3783
v 0.5762 0.3771 -0.3806
v -0.1212 0.3613 0.3329
v 0.1197 0.3611 0.3332
v -0.4635 0.3305 -0.1538
v -0.2627 0.3293 0.2181
v 0.2606 0.3291 0.2194
v 0.4612 0.3300 -0.1499
v -0.3685 0.3166 0.0639
v 0.3665 0.3173 0.0658
v -0.5210 0.3007 -0.3643
v -0.1542 0.2993 0.3061
v 0.1484 0.2984 0.3090
v 0.5205 0.3004 -0.3713
v -0.2572 0.2766 0.2144
v 0.2560 0.2766 0.2147
v -0.3350 0.2628 0.1104
v 0.3319 0.2625 0.1137
v -0.4313 0.2733 -0.0820
v 0.4306 0.2731 -0.0825
v -0.1777 0.2550 0.2856
v -0.0541 0.2669 0.3419
v 0.0522 0.2665 0.3420
v 0.1743 0.2560 0.2873
v -0.4943 0.2478 -0.2838
v 0.4934 0.2474 -0.2839
v -0.4003 0.2454 -0.0169
v -0.0915 0.2462 0.3269
v 0.0889 0.2453 0.3274
v 0.3981 0.2452 -0.0141
v -0.5564 0.2302 -0.6438
v 0.5565 0.2284 -0.6675
v -0.3897 0.2111 -0.0148
v 0.3926 0.2183 -0.0048
v -0.1162 0.2242 0.3127
v 0.1130 0.2233 0.3156
v -0.4537 0.2216 -0.1554
v 0.4528 0.2213 -0.1555
v -0.0455 0.2105 0.3391
v 0.0439 0.2108 0.3397
v 0.3767 0.1985 0.0261
v -0.1233 0.1981 0.3169
v 0.1176 0.1977 0.3196
v 0.0751 0.1926 0.3383
v -0.3295 0.1728 0.1153
v -0.1838 0.1734 0.2867
v -0.0795 0.1905 0.3372
v 0.1815 0.1725 0.2877
v 0.3216 0.1827 0.1263
v -0.2580 0.1640 0.2189
v 0.2571 0.1629 0.2198
v -0.4069 0.1711 -0.0377
v -0.0970 0.1679 0.3396
v 0.0955 0.1696 0.3389
v 0.4032 0.1707 -0.0313
v -0.5312 0.1655 -0.5008
v 0.5294 0.1651 -0.4951
v 0.3357 0.1583 0.1075
v -0.0456 0.1450 0.3623
v 0.0450 0.1444 0.3628
v -0.4431 0.1399 -0.1370
v 0.4405 0.1400 -0.1319
v 0.1701 0.1319 0.3101
v -0.3505 0.1295 0.0852
v -0.1722 0.1318 0.3092
v 0.3505 0.1286 0.0827
v -0.0887 0.1236 0.3581
v 0.0879 0.1238 0.3578
v -0.2638 0.1155 0.2234
v 0.2624 0.1155 0.2240
v -0.1681 0.0920 0.3240
v 0.1661 0.0923 0.3246
v -0.4841 0.0848 -0.2980
v -0.3727 0.0838 0.0448
v 0.4849 0.0853 -0.3056
v 0.3715 0.0831 0.0452
v -0.0520 0.0733 0.3885
v 0.0530 0.0735 0.3880
v -0.2680 0.0718 0.2265
v 0.2689 0.0717 0.2239
v 0.0948 0.0525 0.3829
v -0.0966 0.0519 0.3824
v 0.5349 0.0446 -0.6929
v -0.5351 0.0445 -0.6820
v -0.1644 0.0268 0.3479
v 0.1641 0.0270 0.3472
v -0.5203 0.0212 -0.6022
v 0.5196 0.0212 -0.6049
v -0.3939 0.0090 -0.0160
v 0.3931 0.0085 -0.0167
v -0.0641 0.0018 0.4049
v 0.0634 0.0017 0.4048
v -0.2744 -0.0140 0.2198
v 0.2732 -0.0138 0.2201
v 0.1010 -0.0146 0.3875
v -0.1023 -0.0159 0.3873
v -0.1344 -0.0392 0.3637
v 0.1323 -0.0397 0.3640
v -0.4701 -0.0509 -0.3451
v 0.4686 -0.0511 -0.3423
v -0.0651 -0.0637 0.3820
v 0.0646 -0.0540 0.3938
v -0.1096 -0.0812 0.3453
v 0.1095 -0.0918 0.3560
v 0.0547 -0.0792 0.3695
v -0.0724 -0.0982 0.3450
v -0.2085 -0.0915 0.2371
v 0.2057 -0.0916 0.3992
v 0.0797 -0.0951 0.4541
v 0.0276 -0.1152 0.3165
v -0.0309 -0.1149 0.3164
v -0.3688 -0.1151 -0.0725
v -0.1138 -0.1118 0.2916
v 0.3686 -0.1152 -0.0745
v -0.4962 -0.1265 -0.6874
v 0.0756 -0.1251 0.2709
v 0.4979 -0.1257 -0.7219
v -0.1629 -0.1524 0.1793
v 0.1641 -0.1520 0.1780
v 0.0402 -0.1704 0.2346
v -0.0401 -0.1710 0.2342
v -0.2723 -0.1769 0.0432
v 0.0885 -0.1766 0.2177
v 0.2710 -0.1768 0.0439
v -0.0902 -0.1781 0.2162
v -0.4434 -0.1956 -0.4469
v 0.4425 -0.1962 -0.4469
v -0.1492 -0.2036 0.1797
v 0.1468 -0.2034 0.1809
v -0.2208 -0.2159 0.1063
v -0.0478 -0.2172 0.2314
v 0.0469 -0.2172 0.2314
v 0.2194 -0.2165 0.1076
v -0.0953 -0.2253 0.2164
v 0.0928 -0.2252 0.2173
v -0.1952 -0.2439 0.1223
v 0.1936 -0.2434 0.1235
v -0.1489 -0.2473 0.1658
v 0.1469 -0.2465 0.1667
v -0.3607 -0.2520 -0.1947
v 0.3588 -0.2523 -0.1917
v -0.0879 -0.2590 0.1975
v 0.0875 -0.2592 0.1972
v -0.1824 -0.2666 0.1209
v 0.1484 -0.3083 0.1307
v 0.1916 -0.2839 0.0927
v -0.2900 -0.2709 -0.0440
v 0.2880 -0.2702 -0.0414
v -0.1489 -0.2975 0.1304
v -0.2420 -0.2759 0.0298
v 0.2397 -0.2764 0.0311
v -0.2073 -0.2774 0.0759
v -0.4501 -0.2810 -0.7109
v 0.4469 -0.2807 -0.6838
v -0.0826 -0.2840 0.1847
v -0.1900 -0.2972 0.0887
v 0.0800 -0.2825 0.1740
v -0.0862 -0.3167 0.1787
v 0.0846 -0.3170 0.1793
v -0.2219 -0.3282 0.0411
v 0.2202 -0.3290 0.0423
v -0.3930 -0.3418 -0.5021
v 0.3914 -0.3422 -0.5127
v -0.1551 -0.3465 0.1111
v -0.0875 -0.3489 0.1646
v 0.0861 -0.3490 0.1649
v -0.2597 -0.3598 -0.0605
v 0.2575 -0.3592 -0.0572
v -0.0900 -0.3751 0.1338
v 0.0891 -0.3752 0.1337
v -0.3136 -0.3797 -0.2555
v 0.3119 -0.3803 -0.2530
v -0.1702 -0.3833 0.0520
v 0.1684 -0.3836 0.0528
v -0.3685 -0.4166 -0.7448
v -0.0963 -0.4138 0.1172
v 0.0951 -0.4142 0.1174
v 0.3685 -0.4170 -0.7629
v -0.1933 -0.4355 -0.0060
v 0.1918 -0.4357 -0.0050
v -0.3316 -0.4456 -0.4602
v 0.3307 -0.4443 -0.4611
v -0.1088 -0.4777 0.1103
v 0.1068 -0.4778 0.1113
v -0.3219 -0.4788 -0.4248
v 0.3204 -0.4780 -0.4220
v -0.2177 -0.4883 -0.0559
v 0.2158 -0.4877 -0.0542
v 0.2324 -0.5298 -0.1064
v -0.2336 -0.5303 -0.1070
v -0.1198 -0.5394 0.0885
v 0.1177 -0.5392 0.0897
v -0.1237 -0.5786 -0.0077
v 0.1219 -0.5796 -0.0072
v -0.3485 -0.5930 -0.7017
v 0.3472 -0.5933 -0.6971
v -0.3052 -0.6389 -0.5335
v 0.3043 -0.6388 -0.5334
v -0.2254 -0.6831 -0.3381
v 0.2242 -0.6830 -0.3377
v -0.1183 -0.7154 -0.2149
v 0.1175 -0.7157 -0.2150
v -0.3562 -0.7724 -0.7634
v 0.3557 -0.7729 -0.7681
v -0.3141 -0.8092 -0.5309
v 0.3134 -0.8090 -0.5319
v -0.2321 -0.8418 -0.3344
v 0.2314 -0.8416 -0.3348
v -0.1224 -0.8638 -0.2054
v 0.1211 -0.8639 -0.2052
v -0.3774 -0.9177 -0.7623
v 0.3763 -0.9175 -0.7605
v -0.3328 -0.9497 -0.7495
v 0.3319 -0.9500 -0.7505
v -0.2448 -0.9782 -0.7555
v 0.2434 -0.9771 -0.7225
v -0.1282 -0.9931 -0.7099
v 0.1252 -0.9929 -0.7071
v 0.0007 0.9887 -0.1976
v -0.0005 0.9411 -0.3978
v -0.0005 0.8935 -0.1982
v -0.0005 0.8459 -0.0619
v -0.0005 0.7982 0.0356
v -0.0005 0.7506 0.1140
v -0.0005 0.7030 0.1772
v -0.0005 0.6554 0.2252
v -0.0005 0.6078 0.2669
v -0.0005 0.5601 0.2982
v -0.0005 0.5125 0.3275
v -0.0005 0.4649 0.3416
v -0.0005 0.4173 0.3535
v 0.0007 0.3697 0.3586
v -0.0005 0.3221 0.3541
v -0.0017 0.2744 0.3474
v -0.0005 0.2268 0.3385
v -0.0017 0.1792 0.3541
v 0.0007 0.1316 0.3720
v -0.0005 0.0840 0.3946
v -0.0005 0.0363 0.4077
v 0.0007 -0.0113 0.4133
v -0.0005 -0.0589 0.3992
v -0.0005 -0.1065 0.3357
v -0.0005 -0.1541 0.2414
v -0.0005 -0.2018 0.2351
v -0.0005 -0.2494 0.2243
v -0.0005 -0.2970 0.1932
v 0.0007 -0.3446 0.1895
v -0.0005 -0.3922 0.1508
v -0.0005 -0.4399 0.1530
v -0.0005 -0.4875 0.1632
v -0.0017 -0.5351 0.1530
v -0.0017 -0.5827 0.1096
v -0.0005 -0.6303 -0.1454
v -0.0005 -0.6779 -0.1662
v -0.0005 -0.7256 -0.1733
v -0.0005 -0.7732 -0.1755
v -0.0005 -0.8208 -0.1710
v -0.0005 -0.8684 -0.1619
v -0.0005 -0.9160 -0.1563
v -0.0005 -0.9637 -0.4359
v -0.0005 -1.0113 -0.3441
f 246 254 256 248
f 254 246 244 252
f 289 150 153 158
f 228 236 240 232
f 236 228 216 220 234
f 158 168 292 291
f 168 158 164 171
f 49 39 45 59
f 209 222 218 214 193
f 222 209 216 228
f 96 91 72 64 99
f 145 139 149 151
f 40 50 62 48
f 109 122 137 121
f 122 109 85 100 112
f 43 46 37 31
f 46 43 54 57
f 283 284 107 87
f 284 283 88 108
f 180 191 293 292
f 191 180 183 187
f 124 138 142 128
f 138 124 110 123
f 253 261 259 251
f 261 253 255 263
f 289 158 291 290
f 280 52 71 282 281
f 172 196 199 181
f 196 172 162 189
f 165 175 189 162 148
f 60 54 43 51
f 176 184 178 166
f 152 146 156 167
f 235 227 231 239
f 198 208 215 195
f 208 198 200 204 212
f 217 221 208 212
f 221 217 296 297 224
f 290 291 159 289
f 131 136 148 123 105
f 61 77 71 52
f 113 101 115 119 117
f 126 286 285 284 108
f 286 126 140 287
f 250 242 237 248
f 291 292 169 159
f 18 13 15 24
f 193 214 295 294 207
f 21 31 37 25
f 31 21 19 32
f 300 241 238 239
f 101 94 90 95 115
f 161 154 173 176 166
f 175 202 211 220 189
f 178 198 195 170
f 198 178 184 200
f 297 298 231 224
f 298 297 225 232
f 87 107 115 95
f 156 146 134 142
f 225 297 296 218 222
f 179 190 186 182
f 190 179 292 293
f 239 238 233 235
f 57 75 85 67
f 298 299 300 239 231
f 299 298 232 240 300
f 168 171 183 180 292
f 187 183 171 177
f 124 128 120 118 114
f 245 247 255 253
f 247 245 233 238
f 209 193 194 199
f 220 216 196 189
f 234 237 240 236
f 237 234 246 248
f 6 10 14 16 12
f 116 120 134 129
f 120 116 111 118
f 197 206 294 295 213
f 206 197 203 293 294
f 116 129 126 108
f 295 214 218 296
f 208 221 227 215
f 83 76 95 90 94
f 122 112 117 119 127
f 38 47 44 34
f 47 38 42 56
f 152 167 177 171 164
f 254 252 260 262
f 296 217 212 213 295
f 24 27 35 41 29
f 27 24 15 25 35
f 145 155 141 133
f 155 145 161 166
f 186 192 176 173
f 192 186 190 197
f 41 35 25 37
f 9 5 11 15
f 249 257 255 247
f 142 138 123 148 162
f 70 282 283 87
f 282 70 51 280 281
f 188 219 210 201 174
f 219 188 195 215
f 89 106 99 97
f 247 238 241 249
f 42 38 26 36
f 213 212 204 197
f 67 53 46 57
f 292 179 182 169
f 34 44 52 33
f 63 98 93 81 65
f 98 63 69 83 94
f 293 191 205 294
f 215 223 210 219
f 16 23 28 36 26
f 23 16 14 17
f 56 68 58 47
f 68 56 74 86
f 119 133 141 127
f 133 119 115 130
f 159 169 173 154
f 248 256 258 250
f 294 205 193 207
f 157 152 164 158 153
f 170 160 141 155
f 30 42 36 28 23
f 194 193 187 177
f 43 31 32 51
f 71 88 283 282
f 88 71 77 92
f 285 286 125 107 284
f 140 126 129 143
f 263 255 257 265
f 85 75 65 81
f 237 242 300 240
f 177 167 181 185
f 256 264 266 258
f 264 256 254 262
f 133 130 144 145
f 12 16 26 22
f 225 222 228 232
f 141 137 122 127
f 199 196 216 209
f 108 88 92 102
f 156 172 181 167
f 172 156 142 162
f 70 87 95 76
f 82 97 99 64 66
f 220 211 226 230
f 289 159 154 149
f 25 15 11 21
f 130 115 107 125
f 155 166 178 170
f 124 114 103 110
f 44 47 58 55
f 177 185 181 199 194
f 205 191 187 193
f 227 221 224 231
f 146 143 129 134
f 251 243 245 253
f 26 38 34 22
f 11 7 19 21
f 70 76 60 51
f 108 102 111 116
f 186 173 169 182
f 134 120 128 142
f 220 230 226 234
f 197 190 293 203
f 33 20 22 34
f 46 53 41 37
f 8 12 22 20
f 93 100 85 81
l 246 254
l 54 65
l 150 289
l 228 236
l 158 168
l 39 49
l 209 222
l 91 96
l 139 145
l 40 50
l 80 86
l 109 122
l 43 46
l 283 284
l 72 91
l 180 191
l 124 138
l 253 261
l 158 289
l 52 280
l 172 196
l 165 175
l 54 60
l 176 184
l 54 69
l 146 152
l 98 112
l 227 235
l 198 208
l 217 221
l 290 291
l 39 53
l 139 140
l 131 136
l 139 149
l 61 77
l 101 113
l 126 286
l 53 73
l 242 250
l 291 292
l 13 18
l 193 214
l 21 31
l 241 300
l 94 101
l 154 161
l 175 202
l 178 198
l 297 298
l 135 147
l 87 107
l 146 156
l 225 297
l 179 190
l 238 239
l 57 75
l 298 299
l 168 171
l 150 153
l 183 187
l 109 121
l 145 151
l 124 128
l 245 247
l 50 62
l 193 209
l 272 273
l 216 220
l 168 292
l 234 237
l 86 110
l 178 184
l 105 123
l 246 248
l 234 246
l 6 10
l 116 120
l 197 206
l 116 129
l 305 306
l 214 295
l 208 221
l 76 83
l 112 122
l 38 47
l 1 7
l 152 167
l 90 94
l 252 254
l 217 296
l 24 27
l 93 117
l 2 8
l 145 155
l 253 255
l 42 62
l 104 132
l 186 192
l 35 41
l 135 137
l 5 9
l 249 257
l 148 165
l 138 142
l 259 261
l 70 282
l 188 219
l 271 272
l 89 106
l 238 247
l 112 117
l 38 42
l 9 15
l 212 213
l 241 249
l 260 262
l 233 245
l 189 220
l 304 305
l 53 67
l 82 103
l 179 292
l 34 44
l 63 98
l 191 293
l 215 223
l 16 23
l 45 59
l 64 72
l 234 236
l 56 68
l 278 279
l 119 133
l 159 169
l 248 256
l 205 294
l 258 306
l 152 157
l 160 170
l 30 42
l 212 217
l 93 98
l 153 158
l 74 103
l 23 30
l 193 194
l 31 43
l 71 88
l 285 286
l 126 140
l 232 298
l 215 227
l 255 263
l 266 309
l 286 287
l 75 85
l 8 270
l 237 242
l 167 177
l 208 215
l 256 264
l 59 73
l 233 235
l 130 133
l 292 293
l 12 16
l 222 225
l 52 61
l 55 66
l 293 294
l 137 141
l 196 199
l 88 108
l 188 195
l 229 233
l 156 172
l 267 268
l 70 87
l 149 151
l 189 196
l 19 32
l 82 97
l 211 220
l 239 300
l 33 52
l 44 52
l 63 65
l 159 289
l 15 25
l 192 197
l 104 121
l 163 170
l 4 6
l 115 130
l 155 166
l 236 240
l 247 249
l 64 66
l 248 250
l 97 99
l 170 178
l 210 223
l 114 124
l 195 198
l 122 137
l 44 47
l 84 92
l 63 69
l 242 300
l 87 283
l 136 148
l 163 174
l 155 170
l 255 257
l 96 102
l 166 176
l 299 300
l 48 62
l 177 185
l 177 194
l 29 39
l 199 209
l 218 222
l 191 205
l 3 5
l 221 227
l 140 150
l 273 274
l 103 110
l 143 146
l 243 251
l 125 286
l 306 307
l 25 37
l 244 252
l 237 240
l 26 38
l 249 303
l 280 281
l 254 256
l 43 54
l 19 273
l 103 105
l 111 118
l 103 114
l 251 259
l 36 42
l 44 55
l 195 215
l 176 192
l 95 115
l 7 11
l 47 56
l 209 216
l 261 263
l 70 76
l 262 264
l 172 181
l 169 292
l 73 104
l 17 23
l 184 200
l 117 119
l 187 193
l 18 24
l 250 258
l 150 152
l 40 48
l 21 25
l 71 282
l 102 108
l 243 245
l 216 228
l 113 117
l 142 162
l 287 288
l 154 173
l 173 186
l 105 131
l 257 265
l 64 99
l 180 292
l 67 104
l 279 280
l 258 266
l 120 134
l 99 111
l 147 160
l 220 230
l 160 188
l 231 239
l 32 277
l 72 84
l 61 84
l 132 135
l 294 295
l 218 296
l 158 291
l 232 240
l 154 159
l 65 81
l 94 117
l 14 17
l 268 269
l 127 141
l 106 118
l 190 197
l 20 33
l 76 95
l 128 142
l 171 183
l 220 234
l 101 115
l 161 166
l 107 284
l 164 171
l 193 207
l 42 56
l 83 94
l 224 231
l 123 148
l 194 199
l 197 204
l 54 57
l 46 53
l 197 213
l 67 85
l 203 293
l 167 181
l 238 241
l 68 86
l 79 104
l 204 212
l 206 294
l 51 280
l 153 157
l 34 38
l 13 15
l 301 302
l 94 98
l 102 111
l 142 156
l 186 190
l 16 26
l 88 283
l 27 35
l 46 57
l 156 167
l 87 95
l 119 127
l 187 191
l 57 63
l 49 59
l 28 36
l 120 128
l 141 160
l 240 300
l 223 229
l 31 37
l 201 210
l 245 253
l 264 266
l 123 138
l 226 230
l 224 297
l 197 203
l 5 11
l 256 258
l 179 182
l 196 216
l 227 231
l 57 67
l 300 301
l 60 63
l 41 59
l 79 85
l 141 155
l 30 40
l 152 164
l 233 238
l 171 177
l 61 64
l 252 260
l 31 32
l 222 228
l 23 28
l 174 188
l 71 77
l 15 24
l 274 275
l 145 161
l 126 129
l 134 142
l 107 125
l 263 265
l 8 12
l 149 289
l 175 189
l 275 276
l 307 308
l 226 234
l 148 162
l 108 126
l 20 22
l 308 309
l 149 154
l 60 76
l 100 112
l 170 195
l 281 282
l 90 95
l 122 127
l 93 100
l 282 283
l 193 205
l 174 201
l 134 146
l 56 74
l 200 204
l 288 289
l 213 295
l 81 85
l 19 21
l 20 273
l 133 141
l 22 26
l 289 290
l 181 199
l 82 86
l 114 118
l 130 144
l 190 293
l 115 119
l 107 115
l 8 20
l 77 92
l 88 92
l 108 116
l 257 306
l 208 212
l 237 248
l 118 120
l 41 53
l 162 172
l 181 185
l 11 21
l 133 145
l 250 303
l 59 79
l 74 86
l 182 186
l 12 22
l 214 218
l 231 298
l 159 291
l 55 72
l 244 246
l 66 78
l 215 219
l 85 100
l 69 83
l 129 134
l 85 109
l 7 19
l 129 143
l 96 118
l 89 97
l 62 80
l 81 93
l 22 34
l 51 70
l 143 153
l 251 253
l 73 85
l 211 226
l 295 296
l 55 58
l 52 71
l 144 145
l 144 154
l 25 35
l 37 46
l 296 297
l 66 82
l 247 255
l 77 91
l 166 178
l 177 187
l 265 309
l 140 287
l 26 36
l 269 270
l 99 106
l 7 270
l 29 41
l 110 124
l 40 56
l 270 271
l 140 143
l 302 303
l 162 189
l 111 116
l 303 304
l 173 176
l 92 102
l 121 147
l 225 232
l 58 64
l 276 277
l 37 41
l 96 99
l 10 14
l 277 278
l 11 15
l 202 211
l 221 224
l 51 60
l 180 183
l 80 105
l 33 277
l 14 16
l 6 12
l 284 285
l 228 232
l 58 68
l 125 130
l 98 113
l 158 164
l 198 200
l 125 139
l 169 173
l 39 45
l 47 58
l 169 182
l 207 294
l 99 114
l 147 163
l 62 74
l 110 123
l 24 29
l 210 219
l 32 51
l 43 51
l 254 262
l 33 34
l 235 239
l 65 75
l 108 284
l 121 137
