v -0.1630 0.9142 -0.3806
v 0.1611 0.9147 -0.3819
v -0.3157 0.9009 -0.7578
v 0.3133 0.9007 -0.7516
v -0.3166 0.8575 -0.4491
v 0.3135 0.8581 -0.4464
v -0.1595 0.8285 -0.0926
v 0.1599 0.8287 -0.0949
v -0.4321 0.8059 -0.7307
v 0.4310 0.8058 -0.7384
v -0.3130 0.7805 -0.1930
v 0.3113 0.7811 -0.1942
v -0.4343 0.7671 -0.5326
v 0.4325 0.7672 -0.5325
v -0.4323 0.7009 -0.3190
v 0.4300 0.7006 -0.3167
v 0.5074 0.6993 -0.7425
v -0.5067 0.6989 -0.7110
v -0.1505 0.6856 0.1506
v 0.1483 0.6863 0.1507
v -0.3010 0.6567 0.0269
v 0.2991 0.6573 0.0261
v 0.5117 0.6573 -0.6223
v -0.5140 0.6575 -0.6265
v -0.4213 0.5984 -0.1440
v 0.4195 0.5987 -0.1440
v -0.5118 0.5970 -0.4645
v 0.5092 0.5963 -0.4597
v -0.5635 0.5389 -0.7251
v 0.5595 0.5388 -0.6963
v -0.2835 0.5110 0.1670
v -0.1331 0.5122 0.2943
v 0.1312 0.5121 0.2947
v 0.2823 0.5109 0.1665
v -0.4995 0.5071 -0.3049
v 0.4972 0.5070 -0.3027
v -0.4052 0.4794 -0.0236
v 0.4036 0.4797 -0.0239
v -0.5577 0.4733 -0.5971
v 0.5552 0.4730 -0.5912
v -0.4821 0.4097 -0.2032
v 0.4802 0.4104 -0.2028
v -0.2699 0.3932 0.2138
v 0.2681 0.3937 0.2138
v -0.5444 0.3833 -0.4670
v -0.3902 0.3816 0.0340
v 0.3895 0.3815 0.0319
v 0.5438 0.3824 -0.4675
v -0.5754 0.3778 0.9303
v 0.5758 0.3759 1.0643
v -0.1216 0.3601 0.3350
v 0.1193 0.3599 0.3353
v -0.4639 0.3293 -0.1517
v -0.2631 0.3281 0.2202
v 0.2602 0.3279 0.2214
v 0.4608 0.3288 -0.1478
v -0.3689 0.3154 0.0660
v 0.3661 0.3161 0.0679
v -0.5214 0.2995 -0.3622
v -0.1546 0.2980 0.3082
v 0.1480 0.2972 0.3111
v 0.5201 0.2992 -0.3692
v -0.2576 0.2754 0.2165
v 0.2555 0.2754 0.2168
v -0.3354 0.2616 0.1125
v 0.3315 0.2613 0.1158
v -0.4317 0.2721 -0.0799
v 0.4301 0.2719 -0.0804
v -0.1781 0.2537 0.2877
v -0.0545 0.2657 0.3440
v 0.0518 0.2653 0.3441
v 0.1739 0.2548 0.2894
v -0.4947 0.2466 -0.2817
v 0.4929 0.2462 -0.2818
v -0.4007 0.2442 -0.0148
v -0.0919 0.2450 0.3290
v 0.0885 0.2441 0.3295
v 0.3977 0.2440 -0.0120
v -0.5568 0.2290 -0.6417
v 0.5561 0.2272 -0.6654
v -0.3901 0.2099 1.2405
v 0.3922 0.2171 -0.0027
v -0.1166 0.2230 0.3148
v 0.1126 0.2221 0.3177
v -0.4541 0.2204 -0.1533
v 0.4524 0.2201 -0.1534
v -0.0459 0.2093 1.1255
v 0.0435 0.2095 1.2338
v 0.3762 0.1973 0.0282
v -0.1237 0.1969 0.3190
v 0.1172 0.1965 0.3217
v 0.0747 0.1914 0.3404
v -0.3299 0.1716 0.1174
v -0.1842 0.1722 0.2888
v -0.0799 0.1893 0.3392
v 0.1811 0.1713 0.2898
v 0.3211 0.1815 0.1284
v -0.2584 0.1628 0.2210
v 0.2567 0.1617 0.2219
v -0.4073 0.1699 -0.0356
v -0.0974 0.1667 0.3417
v 0.0950 0.1684 0.3410
v 0.4028 0.1694 -0.0292
v -0.5316 0.1643 -0.4987
v 0.5290 0.1639 -0.4931
v 0.3352 0.1571 0.1096
v -0.0460 0.1438 0.3644
v 0.0446 0.1432 0.3649
v -0.4435 0.1387 -0.1349
v 0.4401 0.1388 -0.1298
v 0.1697 0.1307 0.3122
v -0.3509 0.1283 0.0873
v -0.1726 0.1306 0.3113
v 0.3501 0.1273 0.0848
v -0.0891 0.1224 0.3602
v 0.0875 0.1226 0.3599
v -0.2642 0.1143 0.2255
v 0.2620 0.1143 0.2261
v -0.1685 0.0908 0.3261
v 0.1656 0.0911 0.3267
v -0.4845 0.0835 -0.2959
v -0.3731 0.0826 0.0469
v 0.4845 0.0841 -0.3035
v 0.3711 0.0819 0.0473
v -0.0524 0.0721 0.3906
v 0.0526 0.0723 0.3901
v -0.2684 0.0706 0.2285
v 0.2685 0.0705 0.2260
v 0.0944 0.0513 0.3850
v -0.0970 0.0507 0.3845
v 0.5345 0.0434 -0.6908
v -0.5355 0.0433 -0.6799
v -0.1649 0.0256 0.3500
v 0.1637 0.0258 0.3493
v -0.5207 0.0200 -0.6001
v 0.5191 0.0200 -0.6028
v -0.3943 0.0077 -0.0139
v 0.3926 0.0073 -0.0146
v -0.0646 0.0006 0.4070
v 0.0630 0.0004 0.4069
v -0.2748 -0.0152 0.2219
v 0.2728 -0.0150 0.2222
v 0.1006 -0.0158 0.3896
v -0.1027 -0.0171 0.3894
v -0.1348 -0.0404 0.3658
v 0.1319 -0.0409 0.3661
v -0.4705 -0.0521 -0.3430
v 0.4682 -0.0523 -0.3402
v -0.0656 -0.0649 0.3841
v 0.0642 -0.0552 0.3959
v -0.1100 -0.0824 0.3474
v 0.1091 -0.0930 1.3668
v 0.0543 -0.0804 0.3716
v -0.0728 -0.0994 0.3471
v -0.2089 -0.0927 1.3392
v 0.2052 -0.0928 1.3398
v 0.0272 -0.1164 0.3186
v -0.0313 -0.1161 0.3185
v -0.3692 -0.1163 -0.0705
v -0.1142 -0.1130 0.2937
v 0.3682 -0.1164 -0.0724
v -0.4967 -0.1277 -0.6853
v 0.0752 -0.1263 0.2730
v 0.4975 -0.1269 -0.7198
v -0.1633 -0.1536 0.1814
v 0.1637 -0.1532 0.1801
v 0.0398 -0.1716 0.2367
v -0.0406 -0.1723 0.2362
v -0.2727 -0.1781 0.0453
v 0.0881 -0.1778 0.2198
v 0.2705 -0.1780 0.0460
v -0.0906 -0.1793 0.2183
v -0.4438 -0.1968 -0.4448
v 0.4421 -0.1974 -0.4448
v -0.1496 -0.2048 0.1818
v 0.1464 -0.2046 0.1830
v -0.2213 -0.2171 0.1084
v -0.0482 -0.2184 0.2335
v 0.0465 -0.2184 0.2335
v 0.2190 -0.2178 0.1097
v -0.0957 -0.2265 0.2184
v 0.0923 -0.2264 0.2194
v -0.1956 -0.2451 0.1244
v 0.1932 -0.2446 0.1256
v -0.1493 -0.2485 0.1679
v 0.1465 -0.2477 0.1688
v -0.3611 -0.2532 -0.1926
v 0.3584 -0.2535 -0.1896
v -0.0883 -0.2602 0.1996
v 0.0871 -0.2604 0.1993
v -0.1829 -0.2678 0.1230
v 0.1480 -0.3095 0.1328
v 0.1912 -0.2851 0.6250
v -0.2904 -0.2721 -0.0419
v 0.2876 -0.2714 -0.0393
v -0.1493 -0.2987 0.1325
v -0.2424 -0.2771 0.0319
v 0.2393 -0.2776 0.0332
v -0.4505 -0.2822 -0.7088
v 0.4465 -0.2819 -0.6817
v -0.0830 -0.2852 0.7954
v -0.1904 -0.2984 0.0908
v 0.0796 -0.2837 0.1761
v -0.0866 -0.3179 0.1808
v 0.0842 -0.3182 0.1814
v -0.2223 -0.3294 0.0432
v 0.2198 -0.3302 0.0444
v -0.3934 -0.3430 -0.5000
v 0.3910 -0.3434 -0.5106
v -0.1555 -0.3477 0.1132
v -0.0880 -0.3501 0.1667
v 0.0856 -0.3502 0.1670
v -0.2601 -0.3610 -0.0584
v 0.2571 -0.3604 -0.0551
v -0.0904 -0.3764 0.1359
v 0.0887 -0.3764 0.1358
v -0.3140 -0.3809 -0.2534
v 0.3115 -0.3815 -0.2509
v -0.1706 -0.3845 0.0541
v 0.1680 -0.3848 0.0549
v -0.3689 -0.4178 -0.7427
v -0.0968 -0.4150 0.1193
v 0.0946 -0.4154 0.1195
v 0.3681 -0.4182 -0.7608
v -0.1937 -0.4368 -0.0039
v 0.1914 -0.4369 -0.0029
v -0.3320 -0.4468 -0.4581
v 0.3303 -0.4455 -0.4590
v -0.1092 -0.4790 0.1124
v 0.1063 -0.4790 0.1134
v -0.3223 -0.4800 -0.4227
v 0.3200 -0.4792 -0.4199
v -0.2181 -0.4895 -0.0538
v 0.2154 -0.4889 -0.0521
v 0.2320 -0.5311 -0.1043
v -0.2341 -0.5315 -0.1049
v -0.1202 -0.5406 0.0906
v 0.1173 -0.5405 0.0918
v -0.1241 -0.5798 1.3641
v 0.1215 -0.5809 1.3642
v -0.3489 -0.5942 -0.6996
v 0.3468 -0.5946 -0.6950
v -0.3056 -0.6401 -0.5314
v 0.3038 -0.6400 -0.5313
v -0.2258 -0.6843 -0.3360
v 0.2237 -0.6842 -0.3356
v -0.1188 -0.7166 -0.2128
v 0.1171 -0.7169 -0.2129
v -0.3566 -0.7736 -0.7613
v 0.3553 -0.7741 -0.7660
v -0.3145 -0.8104 -0.5288
v 0.3130 -0.8102 -0.5298
v -0.2325 -0.8430 -0.3323
v 0.2310 -0.8428 -0.3327
v -0.1228 -0.8650 -0.2033
v 0.1207 -0.8651 -0.2031
v -0.3778 -0.9189 -0.7602
v 0.3759 -0.9188 -0.7584
v -0.3332 -0.9509 -0.7474
v 0.3315 -0.9512 -0.7484
v -0.2453 -0.9794 -0.7534
v 0.2430 -0.9783 -0.7204
v -0.1286 -0.9943 -0.7078
v 0.1248 -0.9941 -0.7051
v 0.0003 0.9875 -0.8692
v -0.0009 0.9399 -0.3957
v -0.0009 0.8923 -0.1961
v -0.0009 0.8446 -0.0598
v -0.0009 0.7970 0.0377
v -0.0009 0.7494 0.1161
v -0.0009 0.7018 0.1793
v -0.0009 0.6542 0.2273
v -0.0009 0.6066 0.2690
v -0.0009 0.5589 0.3003
v -0.0009 0.5113 0.3296
v -0.0009 0.4637 0.3437
v -0.0009 0.4161 0.3556
v 0.0003 0.3685 0.3607
v -0.0009 0.3208 0.3562
v -0.0021 0.2732 0.3495
v -0.0009 0.2256 0.3405
v -0.0021 0.1780 0.3562
v 0.0003 0.1304 0.3741
v -0.0009 0.0827 0.3967
v -0.0009 0.0351 0.4098
v 0.0003 -0.0125 0.4154
v -0.0009 -0.0601 0.4013
v -0.0009 -0.1077 0.3378
v -0.0009 -0.1554 0.2435
v -0.0009 -0.2030 0.2372
v -0.0009 -0.2506 0.2264
v -0.0009 -0.2982 0.1953
v 0.0003 -0.3458 0.1916
v -0.0009 -0.3934 0.1529
v -0.0009 -0.4411 0.1551
v -0.0009 -0.4887 0.1653
v -0.0021 -0.5363 0.1551
v -0.0021 -0.5839 0.1117
v -0.0009 -0.6315 -0.1433
v -0.0009 -0.6792 -0.1641
v -0.0009 -0.7268 -0.1712
v -0.0009 -0.7744 -0.1734
v -0.0009 -0.8220 -0.1690
v -0.0009 -0.8696 -0.1599
v -0.0009 -0.9173 -0.1542
v -0.0009 -0.9649 -0.4338
v -0.0009 -1.0125 -0.8460
f 244 252 254 246
f 252 244 242 250
f 48 40 50 62
f 226 234 238 230
f 234 226 214 218 232
f 21 25 15 11
f 25 21 31 37
f 71 280 279 278 52
f 280 71 88 281
f 49 39 45 59
f 241 243 251 249
f 243 241 227 231
f 214 226 220 207
f 117 113 101 115 119
f 96 91 72 64 99
f 142 161 171 156
f 161 142 138 123 148
f 154 172 175 165 160
f 172 154 158 168
f 109 122 137 121
f 122 109 85 100 112
f 43 46 37 31
f 46 43 54 57
f 281 282 107 87
f 282 281 88 108
f 255 263 261 253
f 99 64 66 82 97
f 179 290 167 170 182
f 290 179 190 291
f 190 179 182 186
f 124 138 142 128
f 138 124 110 123
f 251 259 257 249
f 259 251 253 261
f 287 157 289 288
f 171 195 198 180
f 195 171 161 188
f 264 256 254 262
f 120 134 129 116
f 134 120 128 142
f 164 174 188 161 148
f 60 54 43 51
f 229 237 233 225
f 237 229 296 297 298
f 152 146 156 166
f 292 293 211 196 204
f 293 292 205 192 212
f 294 216 220 223 295
f 215 219 206 210
f 219 215 294 295 222
f 230 238 298 297 296
f 288 289 158 287
f 158 154 149 287
f 81 65 63 98 93
f 14 17 23 16
f 126 284 283 282 108
f 284 126 140 285
f 248 240 235 246
f 289 290 168 158
f 127 141 137 122
f 141 127 119 133
f 18 13 15 24
f 31 21 19 32
f 298 239 236 237
f 189 196 191 185
f 196 189 291 201
f 33 20 22 34
f 174 200 209 218 188
f 182 170 176 186
f 295 296 229 222
f 296 295 223 230
f 160 165 155 145
f 107 282 283 284 125
f 156 146 134 142
f 178 189 185 181
f 189 178 290 291
f 170 163 152 166 176
f 237 236 231 233
f 192 205 292 203
f 42 56 47 38
f 83 94 98 63 69
f 222 229 225 219
f 202 196 211 210
f 46 53 41 37
f 53 46 57 67
f 201 291 292 204 196
f 124 128 120 118 114
f 180 166 156 171
f 243 245 253 251
f 245 243 231 236
f 236 239 247 245
f 218 214 195 188
f 86 68 56 74
f 232 235 238 234
f 235 232 244 246
f 6 10 14 16 12
f 120 116 111 118
f 116 129 126 108
f 51 278 279 280 70
f 206 219 225 213
f 34 38 47 44
f 38 34 22 26
f 122 112 117 119 127
f 252 250 258 260
f 16 26 22 12
f 26 16 23 28 36
f 27 35 41 29 24
f 35 27 24 15 25
f 294 215 210 211 293
f 190 186 192 203
f 145 155 141 133
f 36 28 23 30 42
f 159 141 155 169
f 41 35 25 37
f 298 238 235 240
f 9 5 11 15
f 247 255 253 245
f 208 199 173 187 217
f 70 280 281 87
f 217 187 194 213
f 89 106 99 97
f 42 38 26 36
f 254 256 248 246
f 195 214 207 198
f 34 44 52 33
f 291 190 203 292
f 213 221 208 217
f 56 68 58 47
f 31 32 51 43
f 220 226 230 223
f 133 119 115 130
f 107 125 130 115
f 8 12 22 20
f 262 254 252 260
f 134 146 143 129
f 133 130 144 145
f 19 21 11 7
f 155 165 177 169
f 124 114 103 110
f 44 47 58 55
l 244 252
l 54 65
l 40 48
l 150 287
l 226 234
l 21 25
l 71 280
l 39 49
l 241 243
l 214 226
l 207 220
l 113 117
l 91 96
l 142 161
l 285 286
l 154 172
l 105 131
l 40 50
l 80 86
l 109 122
l 43 46
l 281 282
l 255 263
l 64 99
l 179 290
l 72 91
l 67 104
l 179 190
l 124 138
l 251 259
l 157 287
l 277 278
l 52 278
l 171 195
l 256 264
l 120 134
l 99 111
l 147 159
l 164 174
l 159 187
l 54 60
l 175 183
l 229 237
l 54 69
l 32 275
l 72 84
l 61 84
l 146 152
l 292 293
l 132 135
l 98 112
l 225 233
l 216 294
l 197 206
l 157 289
l 215 219
l 230 238
l 288 289
l 39 53
l 139 140
l 154 158
l 65 81
l 94 117
l 139 149
l 14 17
l 61 77
l 101 113
l 126 284
l 53 73
l 240 248
l 289 290
l 266 267
l 127 141
l 106 118
l 13 18
l 192 212
l 21 31
l 239 298
l 189 196
l 94 101
l 20 33
l 76 95
l 154 160
l 128 142
l 174 200
l 170 182
l 218 232
l 177 197
l 295 296
l 101 115
l 135 147
l 160 165
l 107 282
l 87 107
l 146 156
l 223 295
l 178 189
l 163 170
l 236 237
l 192 205
l 57 75
l 42 56
l 83 94
l 222 229
l 296 297
l 167 170
l 123 148
l 182 186
l 196 202
l 54 57
l 46 53
l 196 211
l 109 121
l 67 85
l 201 291
l 145 151
l 124 128
l 166 180
l 243 245
l 50 62
l 236 239
l 192 207
l 270 271
l 214 218
l 68 86
l 167 290
l 232 235
l 86 110
l 105 123
l 79 104
l 244 246
l 232 244
l 6 10
l 116 120
l 196 204
l 202 210
l 204 292
l 116 129
l 303 304
l 51 278
l 212 293
l 206 219
l 34 38
l 13 15
l 299 300
l 94 98
l 102 111
l 142 156
l 112 122
l 38 47
l 185 189
l 1 7
l 152 166
l 90 94
l 250 252
l 16 26
l 88 281
l 27 35
l 215 294
l 24 27
l 46 57
l 156 166
l 119 127
l 186 190
l 93 117
l 2 8
l 145 155
l 57 63
l 251 253
l 49 59
l 28 36
l 42 62
l 104 132
l 120 128
l 141 159
l 185 191
l 35 41
l 238 298
l 221 227
l 135 137
l 5 9
l 247 255
l 148 164
l 31 37
l 138 142
l 199 208
l 257 259
l 70 280
l 187 217
l 269 270
l 243 251
l 89 106
l 236 245
l 262 264
l 123 138
l 112 117
l 38 42
l 9 15
l 210 211
l 239 247
l 258 260
l 231 243
l 224 228
l 188 218
l 222 295
l 196 201
l 302 303
l 53 67
l 5 11
l 178 290
l 254 256
l 178 181
l 195 214
l 225 229
l 57 67
l 298 299
l 34 44
l 60 63
l 41 59
l 79 85
l 63 98
l 190 291
l 213 221
l 141 155
l 16 23
l 45 59
l 64 72
l 232 234
l 30 40
l 56 68
l 152 163
l 231 236
l 276 277
l 170 176
l 61 64
l 250 258
l 31 32
l 220 226
l 23 28
l 119 133
l 158 168
l 246 254
l 173 187
l 15 24
l 272 273
l 145 160
l 203 292
l 126 129
l 256 304
l 134 142
l 107 125
l 261 263
l 159 169
l 8 12
l 30 42
l 149 287
l 174 188
l 210 215
l 273 274
l 305 306
l 224 232
l 93 98
l 148 161
l 108 126
l 153 157
l 74 103
l 23 30
l 192 193
l 31 43
l 20 22
l 306 307
l 71 88
l 283 284
l 89 103
l 149 154
l 60 76
l 100 112
l 126 140
l 230 296
l 213 225
l 253 261
l 169 194
l 279 280
l 264 307
l 284 285
l 122 127
l 8 268
l 93 100
l 235 240
l 166 176
l 206 213
l 254 262
l 280 281
l 192 203
l 173 199
l 134 146
l 59 73
l 231 233
l 130 133
l 290 291
l 56 74
l 12 16
l 220 223
l 52 61
l 286 287
l 211 293
l 55 66
l 291 292
l 19 21
l 20 271
l 133 141
l 22 26
l 287 288
l 180 198
l 137 141
l 114 118
l 195 198
l 88 108
l 130 144
l 187 194
l 227 231
l 156 171
l 189 291
l 265 266
l 70 87
l 115 119
l 107 115
l 188 195
l 19 32
l 8 20
l 77 92
l 82 97
l 108 116
l 209 218
l 255 304
l 237 298
l 33 52
l 44 52
l 63 65
l 206 210
l 158 287
l 15 25
l 235 246
l 118 120
l 191 196
l 41 53
l 104 121
l 162 169
l 161 171
l 4 6
l 115 130
l 155 165
l 234 238
l 11 21
l 133 145
l 245 247
l 64 66
l 248 301
l 59 79
l 74 86
l 181 185
l 12 22
l 246 248
l 229 296
l 97 99
l 158 289
l 55 72
l 169 177
l 242 244
l 208 221
l 66 78
l 213 217
l 85 100
l 69 83
l 129 134
l 85 109
l 7 19
l 114 124
l 129 143
l 122 137
l 96 118
l 44 47
l 84 92
l 63 69
l 240 298
l 89 97
l 62 80
l 87 281
l 136 148
l 81 93
l 162 173
l 155 169
l 253 255
l 22 34
l 51 70
l 96 102
l 165 175
l 297 298
l 48 62
l 176 184
l 249 251
l 73 85
l 209 224
l 293 294
l 29 39
l 55 58
l 52 71
l 144 145
l 198 207
l 216 220
l 190 203
l 3 5
l 25 35
l 219 225
l 37 46
l 294 295
l 140 150
l 271 272
l 66 82
l 103 110
l 143 146
l 245 253
l 77 91
l 165 177
l 176 186
l 263 307
l 140 285
l 26 36
l 241 249
l 267 268
l 99 106
l 7 268
l 227 241
l 125 284
l 29 41
l 304 305
l 110 124
l 25 37
l 242 250
l 40 56
l 268 269
l 300 301
l 161 188
l 111 116
l 235 238
l 26 38
l 247 301
l 301 302
l 172 175
l 278 279
l 121 147
l 223 230
l 58 64
l 274 275
l 37 41
l 252 254
l 43 54
l 19 271
l 103 105
l 111 118
l 96 99
l 103 114
l 10 14
l 249 257
l 275 276
l 36 42
l 44 55
l 194 213
l 11 15
l 200 209
l 219 222
l 95 115
l 51 60
l 179 182
l 80 105
l 7 11
l 47 56
l 207 214
l 33 275
l 259 261
l 14 16
l 6 12
l 282 283
l 226 230
l 260 262
l 58 68
l 125 130
l 98 113
l 171 180
l 125 139
l 168 172
l 168 290
l 39 45
l 47 58
l 205 292
l 99 114
l 147 162
l 62 74
l 73 104
l 110 123
l 24 29
l 17 23
l 208 217
l 32 51
l 43 51
l 117 119
l 186 192
l 252 260
l 33 34
l 18 24
l 248 256
l 233 237
l 65 75
l 108 282
l 121 137
