v 0.0036 0.9942 -0.4447
v -0.1315 0.9806 -0.4619
v 0.1333 0.9800 -0.4497
v -0.2611 0.9381 -0.4310
v 0.2658 0.9381 -0.4299
v 0.0030 0.9357 -0.1580
v -0.1231 0.9239 -0.1663
v 0.1282 0.9243 -0.1664
v 0.2546 0.8867 -0.1879
v -0.2503 0.8849 -0.1843
v -0.3766 0.8678 -0.4138
v 0.3825 0.8678 -0.4201
v 0.0023 0.8319 0.0330
v -0.1151 0.8239 0.0210
v 0.1209 0.8244 0.0207
v -0.3635 0.8218 -0.2198
v 0.3673 0.8218 -0.2174
v -0.2367 0.7974 -0.0189
v 0.2415 0.7979 -0.0188
v -0.4670 0.7696 -0.4117
v 0.4723 0.7711 -0.4147
v -0.3457 0.7481 -0.0736
v 0.3507 0.7486 -0.0737
v 0.4583 0.7325 -0.2621
v -0.4528 0.7324 -0.2603
v 0.0027 0.7013 0.1521
v -0.1049 0.6984 0.1373
v 0.1106 0.6983 0.1371
v -0.2203 0.6827 0.0979
v 0.2275 0.6828 0.0965
v -0.4354 0.6762 -0.1392
v 0.4406 0.6770 -0.1455
v -0.3288 0.6547 0.0345
v 0.3329 0.6551 0.0353
v -0.5299 0.6516 -0.4077
v 0.5354 0.6514 -0.4127
v 0.5224 0.6231 -0.3084
v -0.5161 0.6225 -0.3027
v 0.4223 0.6029 -0.0553
v -0.4177 0.6013 -0.0559
v 0.5075 0.5785 -0.2131
v -0.5018 0.5777 -0.2109
v -0.2096 0.5710 0.1538
v 0.1019 0.5702 0.2000
v 0.2146 0.5711 0.1538
v -0.0977 0.5696 0.1998
v 0.0021 0.5678 0.2116
v -0.3161 0.5627 0.0817
v 0.3215 0.5619 0.0813
v -0.4049 0.5262 -0.0045
v 0.4089 0.5255 -0.0032
v -0.4837 0.5238 -0.1361
v 0.4894 0.5242 -0.1379
v -0.5634 0.4972 -0.3829
v 0.5687 0.4974 -0.3861
v -0.3094 0.4890 0.1065
v 0.3129 0.4888 0.1077
v -0.2026 0.4843 0.1777
v 0.2072 0.4849 0.1778
v -0.0907 0.4687 0.2205
v 0.0942 0.4686 0.2208
v 0.0025 0.4666 0.2304
v 0.3997 0.4636 0.0220
v 0.4736 0.4634 -0.0911
v -0.4682 0.4617 -0.0903
v -0.3948 0.4623 0.0220
v 0.5524 0.4554 -0.3078
v -0.5426 0.4550 -0.2867
v -0.3042 0.4290 0.1183
v 0.3081 0.4298 0.1191
v -0.2003 0.4132 0.1888
v 0.2031 0.4140 0.1882
v -0.5275 0.4122 -0.2166
v -0.3901 0.4109 0.0364
v 0.3946 0.4117 0.0369
v 0.5324 0.4109 -0.2165
v -0.4568 0.4097 -0.0592
v 0.4608 0.4084 -0.0577
v -0.3005 0.3880 0.1250
v -0.0911 0.3837 0.2267
v 0.3054 0.3879 0.1250
v 0.0937 0.3835 0.2272
v 0.3899 0.3822 0.0424
v -0.3864 0.3798 0.0409
v 0.0023 0.3812 0.2367
v -0.5089 0.3666 -0.1657
v -0.2057 0.3675 0.1862
v 0.2102 0.3678 0.1864
v 0.5147 0.3664 -0.1679
v -0.4478 0.3528 -0.0443
v 0.4542 0.3634 -0.0466
v -0.2948 0.3502 0.1295
v 0.3001 0.3502 0.1292
v 0.4484 0.3471 -0.0349
v -0.3697 0.3415 0.0619
v -0.1130 0.3364 0.2231
v 0.3723 0.3403 0.0644
v 0.4982 0.3369 -0.1263
v 0.1135 0.3371 0.2242
v -0.2132 0.3364 0.1840
v 0.2139 0.3369 0.1862
v -0.2890 0.3218 0.1358
v 0.2918 0.3206 0.1374
v 0.4751 0.3169 -0.0803
v -0.4784 0.3049 -0.0986
v -0.2233 0.2917 0.1837
v -0.4249 0.3121 -0.0070
v -0.1435 0.3109 0.2139
v 0.2270 0.2886 0.1844
v 0.4250 0.3121 -0.0002
v -0.3525 0.3086 0.0800
v -0.2873 0.3123 0.1371
v 0.0009 0.3088 0.2382
v 0.1402 0.3116 0.2166
v 0.3570 0.3106 0.0804
v 0.0437 0.3035 0.2347
v 0.2854 0.2872 0.1475
v -0.2824 0.2850 0.1425
v -0.0400 0.3028 0.2346
v 0.4863 0.2988 -0.1046
v 0.3398 0.2775 0.0951
v -0.1696 0.2725 0.2025
v -0.5694 0.2903 -0.3734
v -0.0734 0.2905 0.2365
v 0.0781 0.2908 0.2365
v 0.1747 0.2710 0.2025
v 0.5748 0.2906 -0.3765
v -0.3339 0.2740 0.0961
v -0.3971 0.2829 0.0278
v 0.4027 0.2820 0.0269
v -0.0986 0.2740 0.2251
v 0.1045 0.2730 0.2248
v -0.4479 0.2724 -0.0444
v 0.4541 0.2716 -0.0465
v 0.3858 0.2293 0.0431
v 0.5541 0.2638 -0.2932
v -0.5467 0.2616 -0.2827
v -0.3796 0.2297 0.0446
v -0.1104 0.2649 0.2222
v 0.1343 0.2210 0.2120
v -0.4204 0.2581 -0.0054
v -0.1196 0.2180 0.2133
v 0.4230 0.2565 -0.0021
v 0.0012 0.2493 0.2351
v -0.5216 0.2450 -0.2031
v -0.0301 0.2443 0.2339
v 0.0326 0.2446 0.2341
v 0.5238 0.2437 -0.1955
v 0.4921 0.2353 -0.1225
v -0.4879 0.2347 -0.1240
v 0.0611 0.2338 0.2296
v -0.4515 0.2315 -0.0554
v -0.4230 0.2307 -0.0113
v 0.4434 0.2303 -0.0344
v -0.4343 0.2310 -0.0280
v 0.0819 0.2257 0.2264
v 0.1833 0.1922 0.1906
v -0.4060 0.2081 0.0075
v -0.1813 0.1924 0.1894
v -0.4177 0.2009 -0.0084
v -0.3290 0.1974 0.0929
v 0.3375 0.1838 0.0857
v 0.4202 0.2002 -0.0050
v 0.2335 0.1842 0.1636
v -0.2802 0.1888 0.1297
v -0.2286 0.1814 0.1636
v 0.0016 0.1940 0.2288
v 0.2856 0.1888 0.1294
v 0.0181 0.1931 0.2286
v -0.0278 0.1888 0.2262
v 0.0335 0.1891 0.2262
v 0.4503 0.1843 -0.0554
v -0.4462 0.1828 -0.0568
v 0.3970 0.1728 0.0211
v -0.0569 0.1750 0.2232
v 0.0603 0.1758 0.2234
v -0.3954 0.1718 0.0146
v -0.3390 0.1711 0.0776
v 0.1169 0.1714 0.2106
v 0.1712 0.1630 0.1908
v 0.2875 0.1608 0.1244
v -0.4784 0.1627 -0.1219
v -0.1661 0.1589 0.1908
v 0.4832 0.1627 -0.1216
v -0.2828 0.1603 0.1241
v -0.0925 0.1487 0.2137
v -0.2265 0.1451 0.1597
v 0.0978 0.1467 0.2137
v -0.4186 0.1437 -0.0236
v -0.3497 0.1435 0.0609
v 0.3514 0.1450 0.0662
v 0.4222 0.1431 -0.0218
v -0.5111 0.1408 -0.2071
v 0.2272 0.1424 0.1604
v 0.0032 0.1390 0.2210
v 0.1620 0.1394 0.1911
v -0.2869 0.1361 0.1174
v -0.1592 0.1377 0.1903
v 0.2915 0.1347 0.1176
v 0.5173 0.1390 -0.2107
v -0.0307 0.1322 0.2197
v 0.0362 0.1328 0.2197
v -0.2200 0.1149 0.1583
v -0.0608 0.1177 0.2148
v -0.5391 0.1154 -0.3151
v 0.0652 0.1163 0.2133
v 0.2239 0.1141 0.1589
v 0.5455 0.1143 -0.3221
v -0.3655 0.1091 0.0480
v 0.3694 0.1091 0.0492
v -0.5582 0.1069 -0.3995
v 0.5640 0.1070 -0.4072
v -0.4491 0.1050 -0.0668
v 0.1501 0.1050 0.1987
v 0.4527 0.1052 -0.0645
v -0.1467 0.1041 0.1982
v -0.2915 0.0997 0.1101
v 0.2974 0.1003 0.1093
v 0.0978 0.0926 0.2041
v -0.0933 0.0912 0.2040
v 0.0022 0.0808 0.2116
v 0.2159 0.0762 0.1564
v -0.2105 0.0743 0.1567
v -0.0333 0.0739 0.2101
v 0.0373 0.0742 0.2102
v -0.3840 0.0644 0.0050
v 0.3900 0.0647 0.0036
v -0.1368 0.0621 0.1854
v -0.0629 0.0589 0.2003
v 0.1410 0.0605 0.1856
v 0.0702 0.0554 0.1999
v 0.3034 0.0556 0.0896
v -0.4750 0.0549 -0.1507
v -0.2988 0.0555 0.0893
v 0.4801 0.0549 -0.1513
v 0.0026 0.0365 0.2022
v 0.0936 0.0354 0.1923
v -0.1043 -0.0117 0.1758
v -0.0354 0.0321 0.1974
v 0.0409 0.0334 0.1973
v -0.1992 0.0303 0.1491
v 0.2037 0.0295 0.1493
v -0.0660 0.0216 0.1919
v 0.0732 0.0190 0.1900
v -0.1247 0.0124 0.1764
v 0.1180 -0.0149 0.1702
v 0.0433 0.0009 0.1908
v -0.4020 0.0038 -0.0418
v 0.0032 0.0017 0.1928
v 0.4057 0.0024 -0.0401
v 0.3029 0.0003 0.0750
v -0.2976 -0.0014 0.0716
v -0.0383 -0.0022 0.1877
v -0.0065 0.0000 0.1927
v 0.0101 -0.0001 0.1927
v -0.0228 -0.0009 0.1889
v -0.0727 -0.0108 0.1829
v 0.0767 -0.0115 0.1830
v -0.4965 -0.0188 -0.2501
v 0.1843 -0.0180 0.1454
v 0.5013 -0.0202 -0.2496
v -0.1802 -0.0188 0.1451
v 0.0992 -0.0238 0.1752
v -0.5314 -0.0347 -0.4214
v 0.5362 -0.0344 -0.4201
v -0.0166 -0.0374 0.1861
v 0.0398 -0.0370 0.1849
v -0.0649 -0.0392 0.1810
v 0.0188 -0.0867 0.1674
v -0.1572 -0.0648 0.1419
v 0.1615 -0.0644 0.1422
v -0.2649 -0.0675 0.0797
v -0.1026 -0.0770 0.1571
v -0.0262 -0.0729 0.1699
v 0.2688 -0.0679 0.0804
v 0.0032 -0.0736 0.1709
v -0.4127 -0.0895 -0.1004
v 0.4183 -0.0904 -0.1041
v -0.1364 -0.1028 0.1369
v -0.1000 -0.0961 0.1514
v 0.1366 -0.1018 0.1402
v -0.0801 -0.1119 0.1497
v 0.0338 -0.1070 0.1603
v -0.2289 -0.1166 0.0873
v 0.2312 -0.1170 0.0890
v 0.0586 -0.1303 0.1512
v -0.0495 -0.1337 0.1549
v -0.5085 -0.1350 -0.4122
v -0.1185 -0.1358 0.1397
v -0.0219 -0.1357 0.1576
v 0.1215 -0.1349 0.1403
v 0.5120 -0.1359 -0.4008
v 0.0441 -0.1344 0.1562
v 0.3412 -0.1427 -0.0102
v -0.3349 -0.1433 -0.0128
v -0.1960 -0.1508 0.0967
v 0.1992 -0.1506 0.0976
v 0.0013 -0.1564 0.1458
v -0.1097 -0.1649 0.1263
v 0.1139 -0.1655 0.1265
v -0.0269 -0.1733 0.1384
v 0.0332 -0.1731 0.1383
v -0.0588 -0.1885 0.1315
v 0.0032 -0.1770 0.1396
v 0.0619 -0.1746 0.1350
v 0.4708 -0.1755 -0.2770
v -0.4648 -0.1760 -0.2736
v -0.1738 -0.1784 0.0980
v -0.2799 -0.1810 0.0247
v 0.1785 -0.1795 0.0965
v 0.2863 -0.1803 0.0234
v -0.0319 -0.1865 0.1349
v 0.0523 -0.1987 0.1269
v -0.1106 -0.2405 0.0971
v -0.0339 -0.1981 0.1300
v -0.1593 -0.2049 0.0948
v 0.1193 -0.2148 0.1071
v 0.1622 -0.2034 0.0957
v 0.0028 -0.2467 0.1114
v -0.2407 -0.2084 0.0436
v 0.2449 -0.2092 0.0441
v -0.4021 -0.2195 -0.1534
v 0.0620 -0.2327 0.1129
v 0.4088 -0.2209 -0.1595
v -0.0603 -0.2250 0.1155
v 0.2181 -0.2263 0.0554
v -0.2115 -0.2262 0.0565
v 0.1780 -0.2691 0.0581
v -0.1569 -0.2425 0.0794
v -0.1749 -0.2771 0.0588
v -0.0551 -0.2658 0.0974
v 0.1126 -0.2752 0.0883
v -0.3409 -0.2489 -0.0762
v 0.3450 -0.2496 -0.0796
v 0.0587 -0.2706 0.0976
v -0.2919 -0.2647 -0.0314
v 0.2964 -0.2654 -0.0310
v -0.2520 -0.2684 0.0055
v 0.2569 -0.2687 0.0055
v -0.4665 -0.2736 -0.4082
v 0.4707 -0.2740 -0.4030
v -0.1216 -0.2732 0.0837
v -0.1125 -0.3019 0.0642
v 0.1735 -0.2973 0.0402
v -0.2020 -0.3029 0.0172
v -0.2097 -0.3089 0.0086
v 0.2139 -0.3096 0.0090
v -0.0598 -0.3171 0.0650
v -0.1178 -0.3364 0.0331
v 0.0639 -0.3190 0.0620
v 0.1700 -0.3209 0.0251
v 0.4261 -0.3191 -0.3283
v -0.4215 -0.3196 -0.3293
v 0.0016 -0.3210 0.0675
v 0.1223 -0.3406 0.0316
v 0.2366 -0.3240 -0.0222
v -0.2320 -0.3250 -0.0225
v -0.1698 -0.3311 0.0141
v -0.1756 -0.3415 0.0023
v -0.0648 -0.3637 0.0260
v 0.1813 -0.3444 -0.0016
v -0.2663 -0.3446 -0.0731
v 0.0686 -0.3659 0.0231
v 0.2678 -0.3457 -0.0696
v 0.0022 -0.3562 0.0393
v -0.3639 -0.3513 -0.2266
v 0.3700 -0.3530 -0.2293
v -0.3107 -0.3605 -0.1442
v 0.3117 -0.3600 -0.1386
v 0.1311 -0.3732 -0.0030
v -0.1949 -0.3729 -0.0416
v -0.1275 -0.3734 -0.0036
v 0.1987 -0.3715 -0.0372
v 0.0020 -0.3835 0.0174
v 0.4031 -0.3872 -0.4101
v -0.4006 -0.3885 -0.4274
v -0.2194 -0.4056 -0.0752
v -0.1419 -0.4061 -0.0253
v 0.2236 -0.4054 -0.0747
v 0.1419 -0.4068 -0.0229
v -0.3729 -0.4165 -0.3292
v 0.3792 -0.4162 -0.3341
v -0.0736 -0.4217 -0.0031
v 0.0017 -0.4247 0.0064
v 0.0761 -0.4240 -0.0025
v -0.2490 -0.4412 -0.1112
v 0.2528 -0.4406 -0.1100
v -0.1602 -0.4483 -0.0419
v 0.1632 -0.4494 -0.0425
v -0.3270 -0.4634 -0.2270
v 0.3323 -0.4641 -0.2277
v -0.0844 -0.4725 -0.0108
v -0.2782 -0.4743 -0.1519
v 0.0868 -0.4748 -0.0117
v 0.2803 -0.4753 -0.1482
v 0.0032 -0.4798 -0.0014
v -0.3891 -0.4944 -0.4153
v -0.1767 -0.4944 -0.0504
v 0.3948 -0.4940 -0.4204
v 0.1817 -0.4961 -0.0505
v -0.2631 -0.5135 -0.1374
v 0.2655 -0.5133 -0.1344
v -0.0937 -0.5260 -0.0201
v 0.0959 -0.5265 -0.0193
v -0.3625 -0.5277 -0.3291
v 0.3673 -0.5276 -0.3286
v -0.1825 -0.5376 -0.0649
v 0.0025 -0.5359 -0.0045
v 0.1900 -0.5393 -0.0667
v -0.1795 -0.5613 -0.0628
v 0.1854 -0.5621 -0.0635
v -0.3113 -0.5656 -0.2090
v 0.3162 -0.5660 -0.2090
v -0.0937 -0.5705 -0.0201
v 0.0969 -0.5793 -0.0196
v 0.0035 -0.5805 -0.0046
v -0.0908 -0.5929 -0.0192
v 0.0030 -0.6018 -0.0045
v -0.2482 -0.6034 -0.1225
v 0.2530 -0.6042 -0.1224
v -0.1705 -0.6378 -0.0569
v 0.1756 -0.6380 -0.0570
v -0.0839 -0.6599 -0.0171
v 0.0893 -0.6586 -0.0172
v 0.0020 -0.6678 -0.0045
v -0.3892 -0.6889 -0.4160
v 0.3950 -0.6884 -0.4222
v -0.3587 -0.7041 -0.3089
v 0.3641 -0.7035 -0.3102
v -0.3050 -0.7248 -0.1883
v 0.3106 -0.7258 -0.1894
v -0.2385 -0.7484 -0.1005
v 0.2442 -0.7481 -0.1012
v 0.1667 -0.7687 -0.0377
v -0.1622 -0.7693 -0.0379
v 0.0846 -0.7829 -0.0015
v -0.0824 -0.7833 -0.0022
v 0.0028 -0.7878 0.0111
v -0.4068 -0.8363 -0.4187
v 0.3751 -0.8369 -0.2742
v 0.4124 -0.8357 -0.4245
v -0.3694 -0.8371 -0.2720
v -0.3111 -0.8383 -0.1589
v -0.2402 -0.8380 -0.0748
v -0.1624 -0.8385 -0.0176
v -0.0813 -0.8388 0.0157
v 0.0024 -0.8390 0.0268
v 0.0848 -0.8383 0.0161
v 0.1657 -0.8379 -0.0166
v 0.2447 -0.8378 -0.0745
v 0.3159 -0.8383 -0.1587
v -0.4592 -1.0041 -0.4176
v -0.4086 -1.0053 -0.2243
v -0.3354 -1.0056 -0.0935
v -0.2557 -1.0037 -0.0070
v -0.0863 -1.0047 0.0831
v 0.0012 -1.0052 0.0941
v 0.1743 -1.0053 0.0516
v 0.2576 -1.0043 -0.0044
v 0.3385 -1.0051 -0.0911
v 0.4106 -1.0055 -0.2173
v 0.4628 -1.0047 -0.4078
v -0.1722 -1.0058 0.0501
v 0.0883 -1.0054 0.0838
f 29 33 43 48
f 387 395 400 409
f 182 193 213 233
f 405 412 428 430
f 419 421 432 435
f 24 32 37 41
f 241 252 262 272
f 41 53 67 76
f 260 271 275 285
f 412 419 430 432
f 367 369 387 395
f 377 386 388 398
f 388 392 398 403
f 448 449 458 464
f 1 2 6 7
f 313 317 319 323
f 90 105 107 133
f 82 99 116 125
f 50 65 66 77
f 447 448 457 464
f 196 207 214 222
f 4 10 11 16
f 188 214 219 230
f 30 34 45 49
f 262 270 272 284
f 450 451 459 460
f 1 3 6 8
f 58 60 71 80
f 366 368 386 393
f 70 72 81 88
f 390 401 412 419
f 275 285 294 311
f 60 62 80 85
f 32 39 41 53
f 172 184 192 215
f 51 63 64 78
f 428 430 442 443
f 10 16 18 22
f 56 66 69 74
f 271 281 285 297
f 295 309 333 336
f 373 379 380 389
f 381 390 405 412
f 26 27 46 47
f 404 408 415 416
f 235 250 261 278
f 61 62 82 85
f 437 438 446 447
f 334 337 364 369
f 53 64 76 89
f 228 241 245 262
f 57 59 70 72
f 33 40 48 50
f 81 83 93 97
f 9 17 19 23
f 432 435 444 445
f 22 31 33 40
f 2 4 7 10
f 21 24 36 37
f 177 189 190 209
f 189 209 213 226
f 7 10 14 18
f 8 9 15 19
f 226 234 248 252
f 272 284 295 309
f 82 85 113 116
f 13 14 26 27
f 48 50 56 66
f 371 377 378 388
f 15 19 28 30
f 242 251 260 275
f 413 420 431 433
f 322 333 366 368
f 400 404 409 415
f 384 385 394 396
f 223 234 241 252
f 59 61 72 82
f 186 216 220 228
f 333 336 362 368
f 79 84 92 95
f 101 114 126 132
f 380 385 389 394
f 389 394 400 404
f 3 5 8 9
f 63 75 78 91
f 43 48 56 58
f 49 51 57 63
f 222 232 242 251
f 378 383 388 392
f 357 362 371 377
f 433 434 449 450
f 294 311 334 337
f 44 47 61 62
f 216 223 228 241
f 362 368 377 386
f 44 45 59 61
f 207 218 222 232
f 80 85 113 119
f 6 8 13 15
f 410 417 421 423
f 307 322 353 366
f 379 387 389 400
f 52 65 73 86
f 192 210 215 227
f 360 363 365 374
f 436 438 447 448
f 227 232 250 251
f 26 28 44 47
f 193 205 233 259
f 278 294 324 334
f 39 51 53 64
f 19 23 30 34
f 57 63 70 75
f 14 18 27 29
f 421 423 435 437
f 391 402 413 420
f 440 451 460 461
f 209 217 226 234
f 411 415 422 424
f 42 52 68 73
f 83 94 97 110
f 306 324 352 367
f 37 41 55 67
f 17 23 24 32
f 402 411 420 422
f 40 50 52 65
f 18 22 29 33
f 43 46 58 60
f 46 47 60 62
f 28 30 44 45
f 285 297 311 321
f 84 90 95 107
f 394 396 404 408
f 277 295 322 333
f 6 7 13 14
f 184 200 215 235
f 417 418 423 425
f 443 444 454 455
f 56 58 69 71
f 383 384 392 396
f 261 278 306 324
f 23 32 34 39
f 300 305 317 318
f 45 49 57 59
f 449 450 458 459
f 215 227 235 250
f 435 437 445 446
f 34 39 49 51
f 72 82 88 99
f 69 71 79 87
f 401 410 419 421
f 13 15 26 28
f 12 17 21 24
f 314 319 325 331
f 16 22 25 31
f 442 443 453 454
f 420 422 433 434
f 214 222 230 242
f 434 436 448 449
f 210 218 227 232
f 415 418 424 425
f 422 424 434 436
f 431 433 450 451
f 424 425 436 438
f 364 369 379 387
f 403 408 414 416
f 5 9 12 17
f 213 226 233 248
f 162 164 168 181
f 66 74 77 90
f 324 334 367 369
f 25 31 38 42
f 406 413 429 431
f 27 29 43 46
f 375 382 399 406
f 446 447 456 457
f 445 446 456 463
f 430 432 443 444
f 444 445 455 463
f 423 425 437 438
f 31 40 42 52
f 392 396 403 408
f 429 431 440 451
f 382 391 406 413
l 16 22
l 56 58
l 207 218
l 445 446
l 188 214
l 319 325
l 399 406
l 378 383
l 419 421
l 1 6
l 9 19
l 78 91
l 133 152
l 352 367
l 170 201
l 392 403
l 34 39
l 63 75
l 42 52
l 233 248
l 206 231
l 241 252
l 314 331
l 182 193
l 126 140
l 52 65
l 417 423
l 44 61
l 166 185
l 195 221
l 218 232
l 366 368
l 115 130
l 207 222
l 215 235
l 388 392
l 367 369
l 407 414
l 22 33
l 443 444
l 192 215
l 384 385
l 262 270
l 214 230
l 444 445
l 103 115
l 4 11
l 417 418
l 88 99
l 67 76
l 355 363
l 450 451
l 73 137
l 56 66
l 259 264
l 458 464
l 307 322
l 192 210
l 440 461
l 281 297
l 93 97
l 292 306
l 373 380
l 122 142
l 424 425
l 232 251
l 406 413
l 147 171
l 377 386
l 52 73
l 177 190
l 458 459
l 277 295
l 431 451
l 309 336
l 369 387
l 336 362
l 59 72
l 70 72
l 30 45
l 70 81
l 402 411
l 402 420
l 413 420
l 235 261
l 63 78
l 314 325
l 163 174
l 4 10
l 15 19
l 184 215
l 196 207
l 450 459
l 210 218
l 210 227
l 51 63
l 221 236
l 313 319
l 162 168
l 373 379
l 92 100
l 334 369
l 103 109
l 383 392
l 414 416
l 36 37
l 73 86
l 176 206
l 36 55
l 128 129
l 128 138
l 125 151
l 177 189
l 395 402
l 66 74
l 217 234
l 180 194
l 50 66
l 29 43
l 69 79
l 265 292
l 121 135
l 420 422
l 22 31
l 350 354
l 99 125
l 191 199
l 62 85
l 421 423
l 3 8
l 92 95
l 216 228
l 44 45
l 105 150
l 65 77
l 398 403
l 65 86
l 10 16
l 379 389
l 18 29
l 86 145
l 69 74
l 187 197
l 338 357
l 7 10
l 110 130
l 121 130
l 278 324
l 428 430
l 43 58
l 83 94
l 13 26
l 423 437
l 32 39
l 40 52
l 154 172
l 272 295
l 353 381
l 84 95
l 14 18
l 327 338
l 14 27
l 216 223
l 33 40
l 17 23
l 184 200
l 446 447
l 446 456
l 157 164
l 6 13
l 205 259
l 58 60
l 87 96
l 67 127
l 50 65
l 190 197
l 7 14
l 31 42
l 171 202
l 441 462
l 102 111
l 164 181
l 394 396
l 243 245
l 453 454
l 84 90
l 235 250
l 375 382
l 113 144
l 35 54
l 25 31
l 57 63
l 194 199
l 6 8
l 175 204
l 337 364
l 39 51
l 79 87
l 90 105
l 161 165
l 219 237
l 260 275
l 68 123
l 390 412
l 43 48
l 102 106
l 64 89
l 220 229
l 5 12
l 434 436
l 223 234
l 356 373
l 213 226
l 38 54
l 106 118
l 316 327
l 68 73
l 167 195
l 437 446
l 230 242
l 139 142
l 71 87
l 349 360
l 179 196
l 438 447
l 430 443
l 72 88
l 83 97
l 21 24
l 172 184
l 415 418
l 211 264
l 455 463
l 113 116
l 275 285
l 404 408
l 322 366
l 412 430
l 245 262
l 227 232
l 397 405
l 6 7
l 308 327
l 360 365
l 227 250
l 445 463
l 460 461
l 338 346
l 131 142
l 422 434
l 279 296
l 411 415
l 452 453
l 311 337
l 13 15
l 152 173
l 220 228
l 201 224
l 352 375
l 116 125
l 396 408
l 448 464
l 156 176
l 16 25
l 178 185
l 186 198
l 19 30
l 248 277
l 277 322
l 189 209
l 459 460
l 367 395
l 288 340
l 300 305
l 307 353
l 399 427
l 93 101
l 101 114
l 282 287
l 363 370
l 222 242
l 53 64
l 26 47
l 433 434
l 385 394
l 23 32
l 393 407
l 15 28
l 234 252
l 436 448
l 226 248
l 27 29
l 389 400
l 100 108
l 319 323
l 351 355
l 278 294
l 440 451
l 9 17
l 189 213
l 422 424
l 78 98
l 451 460
l 41 67
l 300 318
l 332 350
l 363 365
l 363 374
l 322 333
l 314 329
l 285 311
l 35 38
l 226 234
l 296 320
l 306 352
l 318 326
l 96 124
l 326 339
l 295 333
l 107 133
l 48 56
l 366 393
l 56 69
l 299 303
l 429 431
l 348 354
l 429 440
l 140 157
l 359 372
l 49 57
l 391 413
l 12 17
l 41 53
l 114 132
l 162 181
l 392 396
l 222 232
l 400 409
l 381 405
l 26 28
l 193 205
l 403 414
l 82 99
l 233 259
l 285 297
l 174 191
l 303 314
l 425 438
l 436 438
l 159 166
l 8 15
l 60 62
l 277 307
l 288 307
l 77 105
l 299 316
l 1 3
l 70 75
l 81 93
l 140 179
l 11 16
l 151 176
l 400 404
l 262 272
l 384 396
l 82 85
l 405 428
l 362 368
l 74 90
l 306 324
l 362 377
l 406 429
l 76 136
l 347 361
l 376 397
l 447 448
l 29 33
l 447 457
l 410 417
l 37 55
l 110 134
l 59 61
l 380 385
l 388 398
l 30 34
l 310 326
l 81 88
l 332 335
l 332 344
l 11 20
l 8 9
l 353 376
l 173 189
l 26 27
l 424 436
l 333 336
l 126 132
l 454 455
l 203 217
l 284 309
l 295 309
l 144 167
l 37 41
l 66 77
l 196 214
l 248 252
l 48 50
l 188 219
l 123 211
l 320 338
l 380 389
l 81 83
l 313 317
l 443 454
l 321 339
l 122 139
l 214 222
l 261 306
l 421 435
l 413 431
l 432 435
l 432 444
l 55 67
l 435 437
l 346 359
l 33 48
l 177 178
l 339 347
l 395 409
l 339 356
l 324 367
l 228 241
l 439 452
l 77 90
l 118 128
l 428 442
l 202 225
l 391 402
l 80 119
l 361 370
l 353 366
l 394 404
l 442 453
l 127 212
l 135 162
l 434 449
l 275 294
l 95 107
l 212 265
l 132 156
l 224 239
l 375 399
l 145 193
l 106 122
l 294 334
l 360 374
l 379 387
l 387 400
l 317 323
l 228 245
l 328 332
l 409 415
l 250 251
l 457 464
l 190 209
l 461 462
l 150 182
l 420 433
l 342 343
l 250 278
l 261 278
l 40 50
l 162 174
l 272 284
l 61 82
l 382 406
l 76 89
l 294 311
l 142 183
l 435 445
l 44 47
l 305 317
l 427 441
l 165 166
l 18 22
l 186 216
l 387 395
l 10 18
l 317 318
l 28 44
l 31 40
l 242 251
l 51 64
l 242 260
l 172 192
l 442 443
l 3 5
l 32 41
l 24 37
l 193 233
l 405 412
l 291 310
l 343 348
l 383 384
l 456 463
l 116 147
l 25 38
l 94 110
l 386 398
l 57 70
l 117 121
l 324 334
l 109 117
l 109 126
l 146 175
l 368 386
l 47 62
l 186 220
l 431 433
l 58 71
l 69 71
l 28 30
l 198 203
l 390 401
l 449 450
l 20 35
l 401 410
l 43 46
l 72 82
l 401 419
l 64 78
l 331 342
l 371 378
l 91 104
l 13 14
l 423 425
l 120 149
l 183 187
l 21 36
l 292 341
l 24 32
l 42 68
l 113 119
l 223 241
l 2 4
l 264 288
l 46 47
l 105 133
l 124 146
l 213 233
l 386 393
l 289 308
l 297 321
l 146 170
l 209 217
l 39 53
l 397 426
l 209 226
l 357 362
l 90 107
l 349 358
l 219 230
l 357 371
l 419 432
l 430 432
l 89 148
l 200 235
l 415 416
l 382 391
l 45 59
l 412 419
l 364 379
l 404 415
l 182 213
l 448 449
l 142 186
l 17 24
l 46 60
l 55 127
l 426 439
l 138 161
l 360 372
l 27 46
l 79 84
l 60 80
l 71 80
l 136 200
l 319 331
l 179 180
l 12 21
l 80 85
l 271 281
l 449 458
l 101 126
l 371 377
l 208 261
l 334 337
l 411 422
l 61 62
l 5 9
l 149 184
l 53 76
l 393 401
l 333 368
l 456 457
l 38 42
l 75 91
l 389 394
l 408 416
l 119 124
l 270 284
l 319 335
l 252 272
l 271 285
l 311 321
l 137 205
l 120 134
l 164 168
l 34 49
l 45 49
l 241 262
l 415 424
l 82 116
l 2 7
l 134 154
l 364 369
l 377 388
l 433 450
l 57 59
l 215 227
l 418 425
l 437 438
l 410 421
l 19 23
l 97 110
l 270 279
l 251 275
l 79 92
l 1 2
l 49 51
l 378 388
l 119 146
l 260 271
l 130 143
l 381 390
l 148 200
l 403 408
l 225 240
l 111 129
l 444 455
l 23 34
l 85 113
l 175 186
