v -0.3360 0.9260 -0.4727
v 0.3442 0.9266 -0.4698
v -0.1665 0.8947 -0.0879
v 0.1783 0.8949 -0.0903
v -0.4608 0.8702 -0.7768
v 0.4711 0.8702 -0.7850
v -0.3322 0.8428 -0.1962
v 0.3419 0.8435 -0.1975
v 0.4727 0.8285 -0.5628
v -0.4610 0.7569 -0.3322
v 0.4700 0.7565 -0.3297
v 0.5536 0.7552 -0.7895
v -0.5413 0.7547 -0.7555
v -0.1568 0.7404 0.1747
v 0.1658 0.7411 0.1748
v -0.3192 0.7092 0.0412
v 0.3287 0.7098 0.0403
v 0.5582 0.7098 -0.6598
v -0.5492 0.7100 -0.6642
v -0.4491 0.6463 -0.1433
v 0.4586 0.6466 -0.1434
v -0.5469 0.6447 -0.4894
v 0.5555 0.6440 -0.4842
v -0.6026 0.5820 -0.7707
v 0.6098 0.5819 -0.7396
v -0.3004 0.5519 0.1925
v -0.1380 0.5531 0.3299
v 0.1474 0.5530 0.3303
v 0.3105 0.5518 0.1919
v -0.5336 0.5477 -0.3170
v 0.5426 0.5476 -0.3147
v -0.4318 0.5177 -0.0134
v 0.4414 0.5180 -0.0136
v -0.5964 0.5111 -0.6325
v 0.6052 0.5108 -0.6261
v -0.5148 0.4425 -0.2073
v 0.5242 0.4432 -0.2068
v -0.2856 0.4247 0.2430
v 0.2952 0.4252 0.2429
v -0.5821 0.4140 -0.4920
v -0.4156 0.4121 0.0488
v 0.4263 0.4121 0.0465
v 0.5929 0.4130 -0.4926
v -0.6155 0.4080 1.0165
v 0.6274 0.4059 1.1613
v -0.1255 0.3889 0.3739
v 0.1345 0.3887 0.3741
v -0.4952 0.3557 -0.1517
v -0.2784 0.3544 0.2499
v 0.2867 0.3541 0.2512
v 0.5033 0.3551 -0.1474
v -0.3926 0.3406 0.0834
v 0.4010 0.3414 0.0855
v -0.5572 0.3235 -0.3789
v -0.1612 0.3219 0.3449
v 0.1655 0.3210 0.3480
v 0.5672 0.3232 -0.3864
v -0.2724 0.2974 0.2459
v 0.2816 0.2975 0.2462
v -0.3563 0.2825 0.1337
v 0.3636 0.2822 0.1372
v -0.4604 0.2939 -0.0741
v -0.1865 0.2741 0.3228
v -0.0531 0.2870 0.3835
v 0.0617 0.2866 0.3837
v 0.1935 0.2753 0.3246
v -0.5284 0.2664 -0.2920
v 0.5380 0.2659 -0.2921
v -0.4269 0.2638 -0.0038
v 0.1013 0.2637 0.3679
v -0.5954 0.2474 -0.6807
v 0.6061 0.2454 -0.7063
v -0.4061 0.2447 0.0322
v -0.1201 0.2409 0.3521
v 0.1273 0.2399 0.3551
v -0.4845 0.2381 -0.1534
v 0.4942 0.2377 -0.1535
v -0.4445 0.2288 1.3295
v -0.0438 0.2261 1.2273
v -0.3978 0.2271 1.3639
v 0.0527 0.2264 1.3443
v 0.4120 0.2131 0.0426
v -0.1359 0.2204 0.3497
v 0.1433 0.2204 0.3508
v -0.4058 0.2052 0.0347
v 0.0864 0.2068 0.3796
v -0.3504 0.1854 0.1389
v -0.1931 0.1860 0.3239
v -0.0805 0.2045 0.3784
v 0.1347 0.2019 0.3612
v 0.2013 0.1851 0.3251
v 0.3525 0.1961 0.1507
v -0.2733 0.1759 0.2507
v 0.2829 0.1747 0.2517
v -0.4340 0.1836 -0.0263
v -0.0995 0.1801 0.3811
v 0.1084 0.1819 0.3803
v 0.4407 0.1831 -0.0194
v -0.5682 0.1775 -0.5262
v 0.5769 0.1771 -0.5202
v 0.3677 0.1697 0.1304
v -0.0439 0.1553 0.4056
v 0.0539 0.1547 0.4062
v -0.4731 0.1499 -0.1335
v 0.4809 0.1500 -0.1280
v 0.1890 0.1413 0.3492
v -0.3732 0.1387 0.1064
v -0.1806 0.1411 0.3483
v 0.3838 0.1376 0.1037
v -0.0904 0.1323 0.4010
v 0.1002 0.1325 0.4008
v -0.2796 0.1236 0.2556
v -0.1762 0.0982 0.3642
v 0.1846 0.0985 0.3648
v -0.5174 0.0903 -0.3073
v -0.3971 0.0893 0.0628
v 0.5288 0.0910 -0.3155
v 0.4064 0.0885 0.0632
v -0.0508 0.0780 0.4338
v 0.0625 0.0782 0.4333
v -0.2840 0.0763 0.2589
v 0.2957 0.0763 0.2561
v 0.1076 0.0555 0.4278
v -0.0990 0.0549 0.4273
v 0.5828 0.0470 -0.7337
v -0.5724 0.0469 -0.7219
v -0.1722 0.0277 0.3900
v 0.1825 0.0280 0.3892
v -0.5564 0.0217 -0.6358
v 0.5663 0.0217 -0.6386
v -0.4200 0.0085 -0.0029
v 0.4297 0.0080 -0.0036
v -0.0640 0.0008 0.4516
v 0.0738 0.0006 0.4515
v -0.2909 -0.0163 0.2517
v 0.3003 -0.0161 0.2521
v 0.1144 -0.0170 0.4327
v -0.1051 -0.0183 0.4326
v -0.1398 -0.0435 0.4071
v 0.1482 -0.0440 0.4074
v -0.5022 -0.0561 -0.3581
v 0.5112 -0.0563 -0.3551
v 0.0750 -0.0594 0.4396
v 0.1157 -0.0765 0.4039
v -0.0639 -0.0807 0.4178
v -0.0729 -0.1071 0.3868
v 0.1324 -0.0951 0.3729
v -0.2198 -0.0999 1.4580
v 0.2273 -0.1001 1.4587
v 0.0351 -0.1255 0.3561
v -0.0281 -0.1252 0.3560
v 0.1205 -0.1072 0.3698
v -0.3929 -0.1254 -0.0639
v -0.1175 -0.1219 0.3292
v 0.1257 -0.1224 0.3290
v 0.4032 -0.1255 -0.0660
v -0.5305 -0.1378 -0.7277
v 0.0869 -0.1362 0.3069
v 0.5429 -0.1369 -0.7650
v -0.1706 -0.1657 0.2080
v 0.1824 -0.1652 0.2066
v 0.0487 -0.1851 0.2678
v -0.0380 -0.1858 0.2672
v -0.2887 -0.1921 0.0611
v 0.1008 -0.1918 0.2494
v 0.2978 -0.1921 0.0618
v -0.0921 -0.1935 0.2479
v -0.4734 -0.2124 -0.4681
v 0.4830 -0.2129 -0.4680
v 0.1638 -0.2207 0.2097
v -0.2331 -0.2342 0.1292
v -0.0463 -0.2356 0.2643
v 0.0559 -0.2357 0.2643
v -0.0976 -0.2444 0.2480
v 0.1054 -0.2443 0.2490
v 0.2143 -0.2640 0.1477
v -0.1555 -0.2682 0.1935
v 0.1639 -0.2673 0.1944
v -0.3842 -0.2732 -0.1958
v 0.3926 -0.2736 -0.1926
v -0.1917 -0.2890 0.1449
v 0.1655 -0.3340 0.1555
v 0.3163 -0.2929 -0.0303
v -0.1555 -0.3223 0.1552
v -0.2560 -0.2990 0.0465
v 0.2641 -0.2996 0.0480
v -0.4806 -0.3045 -0.7531
v 0.4878 -0.3042 -0.7239
v -0.0839 -0.3078 0.8709
v 0.0917 -0.3062 0.2023
v 0.2049 -0.3098 1.4666
v 0.2149 -0.3297 0.1023
v -0.2343 -0.3555 0.0588
v 0.2431 -0.3564 0.0601
v -0.4190 -0.3702 -0.5277
v 0.4278 -0.3707 -0.5391
v -0.1622 -0.3753 0.1344
v -0.0892 -0.3778 0.1921
v -0.2751 -0.3897 -0.0509
v 0.2833 -0.3890 -0.0474
v -0.3333 -0.4112 -0.2615
v 0.3420 -0.4117 -0.2588
v -0.1784 -0.4150 0.0705
v 0.1872 -0.4153 0.0714
v -0.3926 -0.4510 -0.7898
v -0.0987 -0.4480 0.1409
v 0.1079 -0.4483 0.1412
v 0.4032 -0.4514 -0.8093
v -0.2034 -0.4714 0.0079
v 0.2124 -0.4716 0.0090
v -0.3527 -0.4823 -0.4824
v -0.1122 -0.5170 0.1335
v 0.1206 -0.5170 0.1346
v -0.3422 -0.5181 -0.4442
v 0.3513 -0.5173 -0.4412
v -0.2297 -0.5284 -0.0460
v 0.2383 -0.5278 -0.0441
v 0.2563 -0.5732 -0.1004
v -0.2470 -0.5737 -0.1011
v -0.1240 -0.5836 0.1100
v 0.1324 -0.5834 0.1112
v -0.1282 -0.6258 1.4849
v -0.3710 -0.6414 -0.7432
v 0.3801 -0.6418 -0.7382
v -0.3242 -0.6910 -0.5616
v 0.3338 -0.6909 -0.5615
v -0.2381 -0.7387 -0.3506
v 0.2473 -0.7386 -0.3501
v -0.1225 -0.7735 -0.2176
v 0.1322 -0.7739 -0.2177
v -0.3793 -0.8351 -0.8099
v 0.3894 -0.8356 -0.8149
v -0.3338 -0.8749 -0.5588
v 0.3437 -0.8746 -0.5599
v -0.2453 -0.9100 -0.3466
v 0.2551 -0.9098 -0.3470
v -0.1268 -0.9338 -0.2074
v 0.1360 -0.9338 -0.2071
v -0.4022 -0.9920 -0.8086
v 0.4116 -0.9918 -0.8066
v -0.3540 -1.0265 -0.7948
v 0.3637 -1.0269 -0.7959
v -0.2591 -1.0573 -0.8013
v 0.2681 -1.0561 -0.7657
v -0.1331 -1.0734 -0.7520
v 0.1405 -1.0732 -0.7491
f 3 14 16 7
f 4 8 17 15
f 7 16 20 10
f 14 27 26 16
f 27 14 15 28
f 16 26 32 20
f 34 40 54 44
f 44 54 99
f 57 45 100
f 91 59 61 94
f 61 105 101 94
f 63 83 88
f 102 64 65 103
f 112 108 89 119 113
f 116 112 113 121
f 127 154 145 160 135
f 131 135 153
f 135 160 171 153
f 141 168 126
f 152 155 161 191 165
f 172 162 170 173
f 164 184 199
f 200 182 183
f 184 198 209 199
f 196 215 217 202
f 215 218 221 217
f 228 236 238 230
f 229 230 238 237
f 235 237 245 243
f 236 244 246 238
f 245 237 238 246
l 1 5
l 2 6
l 3 14
l 3 7
l 4 8
l 4 15
l 5 10
l 6 11
l 7 16
l 7 10
l 8 11
l 8 17
l 10 20
l 10 22
l 11 23
l 11 21
l 12 23
l 6 12
l 14 27
l 14 16
l 14 15
l 15 17
l 15 28
l 16 26
l 16 20
l 17 31
l 17 29
l 9 18
l 18 25
l 19 24
l 20 32
l 20 30
l 21 25
l 21 33
l 15 21
l 22 30
l 13 22
l 23 35
l 24 36
l 20 24
l 25 37
l 26 38
l 26 32
l 26 27
l 27 46
l 27 28
l 28 47
l 28 33
l 29 33
l 29 39
l 30 40
l 31 37
l 12 31
l 18 31
l 32 41
l 32 36
l 33 45
l 33 53
l 34 40
l 22 34
l 35 57
l 35 51
l 36 54
l 37 57
l 21 37
l 38 55
l 38 60
l 38 41
l 39 61
l 39 47
l 39 42
l 40 54
l 41 73
l 41 67
l 42 68
l 42 92
l 21 42
l 44 54
l 34 44
l 45 57
l 46 64
l 46 63
l 46 49
l 46 65
l 47 84
l 47 65
l 47 64
l 47 50
l 48 76
l 34 48
l 38 48
l 49 63
l 49 60
l 50 66
l 50 53
l 51 72
l 51 98
l 39 51
l 52 62
l 32 52
l 49 52
l 53 77
l 54 76
l 54 99
l 49 55
l 56 70
l 56 59
l 57 100
l 57 77
l 58 63
l 58 93
l 58 60
l 52 58
l 59 91
l 59 66
l 53 59
l 59 61
l 60 116
l 60 85
l 60 69
l 61 105
l 61 94
l 63 83
l 63 88
l 63 74
l 64 102
l 64 65
l 65 103
l 66 86
l 66 75
l 67 95
l 67 104
l 40 67
l 68 105
l 68 98
l 43 68
l 71 126
l 44 71
l 72 117
l 72 105
l 45 72
l 75 86
l 77 117
l 79 81
l 87 88
l 58 88
l 83 88
l 75 91
l 91 94
l 93 116
l 80 93
l 63 93
l 97 106
l 98 117
l 99 129
l 44 99
l 62 99
l 100 125
l 45 100
l 94 101
l 102 124
l 102 103
l 103 123
l 70 103
l 104 126
l 105 125
l 101 105
l 106 122
l 107 131
l 78 107
l 108 112
l 89 108
l 110 133
l 103 110
l 111 134
l 102 111
l 112 116
l 112 113
l 113 119
l 114 137
l 97 114
l 115 141
l 67 115
l 76 115
l 116 121
l 76 116
l 80 116
l 117 142
l 117 132
l 118 122
l 82 118
l 119 138
l 89 119
l 119 120
l 120 137
l 81 120
l 113 121
l 123 143
l 124 139
l 127 154
l 127 135
l 96 127
l 119 127
l 128 136
l 128 144
l 120 128
l 90 128
l 131 135
l 131 153
l 126 131
l 132 169
l 132 136
l 109 132
l 133 146
l 133 134
l 134 147
l 135 160
l 135 153
l 88 135
l 136 156
l 136 147
l 101 136
l 137 155
l 138 154
l 140 152
l 141 179
l 141 168
l 126 141
l 142 159
l 142 156
l 130 142
l 145 154
l 148 163
l 148 164
l 121 148
l 138 148
l 149 183
l 149 170
l 137 149
l 122 149
l 150 151
l 151 167
l 145 151
l 152 155
l 153 171
l 153 179
l 129 153
l 139 154
l 156 180
l 156 166
l 118 156
l 157 187
l 129 157
l 152 158
l 159 188
l 159 166
l 160 181
l 160 171
l 145 160
l 161 191
l 155 161
l 162 172
l 162 170
l 163 177
l 145 163
l 163 165
l 164 184
l 164 199
l 165 191
l 165 190
l 152 165
l 166 194
l 140 166
l 167 177
l 168 195
l 126 168
l 169 196
l 142 169
l 170 192
l 170 173
l 147 170
l 171 193
l 172 177
l 172 173
l 174 177
l 175 176
l 158 175
l 177 189
l 173 178
l 179 199
l 179 201
l 157 179
l 180 202
l 180 186
l 159 180
l 182 200
l 173 182
l 183 200
l 182 183
l 184 198
l 184 199
l 172 184
l 185 197
l 187 205
l 153 187
l 188 196
l 156 188
l 193 203
l 193 201
l 194 202
l 195 211
l 196 215
l 196 202
l 197 206
l 199 209
l 199 205
l 200 208
l 200 210
l 201 209
l 187 201
l 202 217
l 203 216
l 204 217
l 186 204
l 208 215
l 209 212
l 198 209
l 210 213
l 192 210
l 214 219
l 215 218
l 216 220
l 211 216
l 217 221
l 215 217
l 218 221
l 219 220
l 207 221
l 219 222
l 223 227
l 223 231
l 214 223
l 224 232
l 224 228
l 215 224
l 225 231
l 211 225
l 214 225
l 226 232
l 215 226
l 227 235
l 214 227
l 228 236
l 228 230
l 215 228
l 229 230
l 229 237
l 225 229
l 212 229
l 230 238
l 213 230
l 231 241
l 231 239
l 232 240
l 232 236
l 233 239
l 225 233
l 234 240
l 226 234
l 235 237
l 235 243
l 236 244
l 236 238
l 237 245
l 237 238
l 238 246
l 239 243
l 240 244
l 233 241
l 234 242
l 243 245
l 244 246
l 245 246
