v -0.1678 0.8995 -0.1320
v 0.1791 0.8997 -0.1344
v -0.3345 0.8473 -0.2410
v 0.3437 0.8480 -0.2423
v -0.4641 0.7609 -0.3778
v 0.4725 0.7605 -0.3753
v 0.5566 0.7591 -0.8378
v -0.5449 0.7587 -0.8036
v -0.1580 0.7442 0.1322
v 0.1665 0.7450 0.1323
v -0.3214 0.7129 -0.0021
v 0.3304 0.7135 -0.0030
v 0.5613 0.7135 -0.7073
v -0.5528 0.7137 -0.7118
v -0.4522 0.6496 -0.1878
v 0.4611 0.6499 -0.1878
v -0.5505 0.6480 -0.5359
v 0.5585 0.6473 -0.5307
v -0.6066 0.5849 -0.8190
v 0.6132 0.5848 -0.7877
v -0.3025 0.5546 0.1501
v -0.1391 0.5559 0.2883
v 0.1479 0.5557 0.2887
v 0.3121 0.5545 0.1495
v -0.5371 0.5504 -0.3625
v 0.5456 0.5503 -0.3602
v -0.4347 0.5203 -0.0570
v 0.4438 0.5206 -0.0573
v -0.6003 0.5136 -0.6799
v 0.6086 0.5133 -0.6735
v -0.5182 0.4446 -0.2521
v 0.5271 0.4452 -0.2516
v -0.2877 0.4267 0.2009
v 0.2967 0.4272 0.2008
v -0.5859 0.4159 -0.5386
v -0.4184 0.4140 0.0056
v 0.4286 0.4139 0.0033
v 0.5962 0.4149 -0.5391
v -0.1266 0.3907 0.3326
v 0.1350 0.3905 0.3328
v -0.4985 0.3572 -0.1962
v -0.2804 0.3559 0.2078
v 0.2881 0.3557 0.2092
v 0.5060 0.3566 -0.1919
v -0.3953 0.3421 0.0403
v 0.4031 0.3428 0.0424
v -0.5609 0.3248 -0.4248
v -0.1624 0.3233 0.3034
v 0.5704 0.3245 -0.4324
v -0.2743 0.2986 0.2039
v 0.2830 0.2987 0.2041
v -0.3588 0.2836 0.0909
v 0.3655 0.2833 0.0945
v -0.4635 0.2951 -0.1182
v 0.4727 0.2949 -0.1187
v -0.1880 0.2751 0.2812
v -0.0538 0.2881 0.3423
v 0.0618 0.2877 0.3425
v -0.5319 0.2674 -0.3373
v 0.5409 0.2669 -0.3374
v -0.4298 0.2647 -0.0474
v -0.0943 0.2656 0.3260
v 0.1016 0.2647 0.3266
v 0.4374 0.2646 -0.0444
v -0.5994 0.2482 -0.7284
v 0.6095 0.2463 -0.7541
v -0.4183 0.2275 1.3161
v 0.4315 0.2353 -0.0343
v -0.1212 0.2418 0.3106
v 0.1278 0.2407 0.3137
v -0.4878 0.2389 -0.1979
v 0.4968 0.2386 -0.1980
v -0.0444 0.2269 1.1912
v 0.0527 0.2271 1.3089
v 0.4142 0.2138 -0.0007
v -0.1289 0.2134 0.3152
v 0.1328 0.2129 0.3181
v 0.0866 0.2074 0.3384
v -0.3529 0.1859 0.0962
v -0.0813 0.2051 0.3371
v -0.2753 0.1763 0.2087
v -0.4369 0.1841 -0.0701
v -0.1004 0.1806 0.3398
v 0.1087 0.1824 0.3390
v 0.4430 0.1836 -0.0631
v -0.5720 0.1780 -0.5730
v 0.5801 0.1775 -0.5669
v -0.0445 0.1557 0.3645
v 0.0539 0.1550 0.3650
v -0.4763 0.1502 -0.1779
v 0.4835 0.1503 -0.1724
v -0.3757 0.1389 0.0635
v -0.0913 0.1325 0.3599
v 0.1005 0.1327 0.3596
v -0.2816 0.1237 0.2136
v -0.1776 0.0981 0.3229
v 0.1854 0.0985 0.3235
v -0.5208 0.0903 -0.3527
v -0.3998 0.0892 0.0196
v 0.5317 0.0909 -0.3610
v 0.4086 0.0884 0.0200
v -0.0514 0.0778 0.3929
v 0.0626 0.0780 0.3924
v -0.2861 0.0762 0.2169
v 0.2972 0.0761 0.2141
v 0.1080 0.0553 0.3868
v -0.0999 0.0546 0.3863
v 0.5860 0.0466 -0.7817
v -0.5762 0.0465 -0.7698
v -0.1736 0.0273 0.3488
v 0.1833 0.0275 0.3480
v -0.5601 0.0212 -0.6832
v 0.5694 0.0212 -0.6861
v -0.4228 0.0079 -0.0465
v 0.4320 0.0074 -0.0472
v -0.0647 0.0002 0.4108
v 0.0739 -0.0000 0.4107
v -0.2930 -0.0170 0.2097
v 0.3018 -0.0168 0.2100
v 0.1148 -0.0177 0.3918
v -0.1061 -0.0191 0.3916
v -0.1410 -0.0444 0.3660
v 0.1487 -0.0449 0.3663
v -0.5056 -0.0570 -0.4039
v 0.5140 -0.0573 -0.4009
v -0.0657 -0.0710 0.3858
v 0.0752 -0.0604 0.3987
v -0.1140 -0.0900 0.3460
v 0.1240 -0.1015 1.4533
v 0.0644 -0.0878 0.3722
v -0.0737 -0.1084 0.3456
v -0.2214 -0.1012 1.4233
v 0.2284 -0.1013 1.4240
v 0.0916 -0.1051 0.5878
v 0.0350 -0.1269 0.3147
v -0.0286 -0.1266 0.3146
v -0.3956 -0.1268 -0.1079
v -0.1186 -0.1232 0.2876
v 0.4054 -0.1269 -0.1100
v -0.5340 -0.1392 -0.7757
v 0.0871 -0.1376 0.2652
v 0.5459 -0.1383 -0.8133
v -0.1719 -0.1674 0.1657
v 0.1832 -0.1669 0.1643
v 0.0487 -0.1869 0.2258
v -0.0386 -0.1876 0.2253
v -0.2907 -0.1939 0.0179
v 0.1011 -0.1936 0.2074
v 0.2993 -0.1939 0.0186
v -0.0929 -0.1953 0.2058
v -0.4766 -0.2143 -0.5145
v 0.4856 -0.2149 -0.5145
v -0.1571 -0.2230 0.1662
v 0.1645 -0.2227 0.1674
v -0.2349 -0.2363 0.0864
v -0.0469 -0.2377 0.2223
v 0.0559 -0.2377 0.2223
v 0.2433 -0.2370 0.0878
v -0.0985 -0.2465 0.2059
v 0.1058 -0.2464 0.2069
v -0.2070 -0.2667 0.1038
v 0.2153 -0.2662 0.1051
v -0.1567 -0.2704 0.1511
v 0.1646 -0.2696 0.1520
v -0.3868 -0.2755 -0.2405
v 0.3947 -0.2759 -0.2373
v -0.0905 -0.2831 0.1854
v 0.1001 -0.2834 0.1852
v -0.1932 -0.2914 0.1022
v 0.1662 -0.3367 0.1129
v 0.2132 -0.3102 0.6475
v -0.3100 -0.2961 -0.0769
v 0.3179 -0.2953 -0.0741
v -0.1567 -0.3249 0.1126
v -0.2578 -0.3015 0.0033
v 0.2654 -0.3020 0.0047
v -0.2202 -0.3032 0.0533
v -0.4838 -0.3070 -0.8012
v 0.4905 -0.3067 -0.7719
v -0.2014 -0.3247 0.0673
v -0.2360 -0.3583 0.0156
v 0.2442 -0.3591 0.0169
v -0.4218 -0.3730 -0.5745
v 0.4301 -0.3735 -0.5859
v -0.1635 -0.3782 0.0916
v 0.2847 -0.3919 -0.0912
v 0.1018 -0.4093 0.1162
v -0.3356 -0.4143 -0.3066
v 0.3438 -0.4149 -0.3039
v -0.1798 -0.4182 0.0274
v 0.1880 -0.4185 0.0283
v -0.3953 -0.4543 -0.8381
v -0.0996 -0.4513 0.0982
v 0.1083 -0.4517 0.0985
v 0.4053 -0.4548 -0.8577
v -0.2049 -0.4749 -0.0356
v 0.2134 -0.4751 -0.0345
v -0.3551 -0.4859 -0.5289
v 0.3643 -0.4844 -0.5299
v -0.1132 -0.5207 0.0907
v 0.1210 -0.5208 0.0918
v 0.3531 -0.5210 -0.4874
v -0.2315 -0.5322 -0.0898
v 0.2394 -0.5316 -0.0879
v -0.1293 -0.6303 1.4503
v 0.1374 -0.6314 1.4505
v -0.2399 -0.7438 -0.3963
v 0.2485 -0.7437 -0.3958
v -0.1235 -0.7789 -0.2625
v 0.1327 -0.7792 -0.2626
v -0.2471 -0.9162 -0.3923
v 0.2564 -0.9160 -0.3927
v -0.1279 -0.9401 -0.2522
v 0.1366 -0.9401 -0.2519
v -0.3565 -1.0333 -0.8432
v 0.3656 -1.0337 -0.8443
v -0.2609 -1.0643 -0.8497
v 0.2694 -1.0631 -0.8139
v -0.1342 -1.0806 -0.8001
v 0.1410 -1.0803 -0.7972
v 0.0045 0.8135 0.0947
v 0.0045 0.7618 0.1634
v 0.0045 0.7101 0.2156
v 0.0045 0.6584 0.2609
v 0.0045 0.6066 0.2949
v 0.0045 0.5549 0.3267
v 0.0045 0.5032 0.3420
v 0.0045 0.4515 0.3549
v 0.0045 0.3480 0.3556
v 0.0032 0.2963 0.3483
v 0.0045 0.2446 0.3386
v 0.0032 0.1928 0.3555
v 0.0058 0.1411 0.3750
v 0.0045 0.0894 0.3995
v 0.0045 0.0377 0.4138
v 0.0058 -0.0141 0.4199
v 0.0045 -0.0658 0.4046
v 0.0045 -0.1175 0.3356
v 0.0045 -0.1692 0.2331
v 0.0045 -0.2210 0.2263
v 0.0045 -0.2727 0.2145
v 0.0045 -0.7382 -0.2096
v 0.0045 -0.7899 -0.2173
v 0.0045 -0.8417 -0.2197
v 0.0045 -0.8934 -0.2149
v 0.0045 -0.9451 -0.2050
v 0.0045 -0.9968 -0.1988
v 0.0045 -1.0486 -0.5026
v 0.0045 -1.1003 -0.9503
f 211 217 215
f 219 248 249
f 21 15 11
f 213 219 217
f 211 213 217
f 3 9 11
f 9 21 11
f 27 15 21
f 28 24 16
f 13 6 7
f 6 13 16
f 13 18 16
f 209 213 211
f 209 244 213
f 248 220 249
f 86 65 59
f 137 118 132
f 110 118 104
f 118 110 132
f 140 151 178
f 151 140 137
f 140 124 137
f 66 60 49
f 60 66 87
f 152 142 179
f 166 152 179
f 1 9 3
f 15 5 11
f 5 3 11
f 33 27 21
f 25 17 15
f 27 25 15
f 17 25 19
f 25 29 19
f 34 24 28
f 26 32 28
f 26 18 20
f 18 26 16
f 26 28 16
f 44 60 55
f 60 44 49
f 44 38 49
f 38 44 32
f 209 207 205
f 207 209 211
f 184 166 179
f 143 150 153
f 147 137 132
f 143 147 132
f 92 82 79
f 124 114 137
f 114 118 137
f 118 114 99
f 114 98 99
f 101 115 119
f 60 72 55
f 72 91 85
f 72 60 87
f 91 72 87
f 145 157 240
f 152 139 142
f 115 139 119
f 139 166 149
f 139 152 166
f 139 133 119
f 133 139 149
f 164 160 154
f 166 173 149
f 184 173 166
f 17 14 15
f 14 5 15
f 5 14 8
f 54 71 59
f 71 86 59
f 31 25 27
f 25 31 29
f 12 6 16
f 12 4 6
f 24 12 16
f 12 10 4
f 10 12 24
f 226 22 225
f 9 22 21
f 22 33 21
f 22 226 227
f 26 30 32
f 30 38 32
f 30 26 20
f 32 37 28
f 44 37 32
f 196 200 203
f 200 196 193
f 188 192 183
f 189 184 195
f 246 247 213
f 213 247 219
f 156 150 146
f 156 146 240
f 150 159 153
f 159 156 167
f 156 159 150
f 155 143 153
f 92 90 82
f 90 92 99
f 90 98 86
f 90 71 82
f 71 90 86
f 98 112 109
f 50 52 42
f 229 230 57
f 22 228 39
f 107 96 93
f 96 107 110
f 80 83 76
f 107 102 116
f 102 107 93
f 138 150 143
f 138 143 132
f 160 148 154
f 157 148 160
f 148 157 145
f 237 236 127
f 68 72 85
f 100 91 87
f 113 100 108
f 101 100 115
f 157 241 240
f 241 156 240
f 139 125 142
f 125 139 115
f 173 158 149
f 71 67 82
f 82 67 79
f 67 52 79
f 65 47 59
f 36 31 27
f 31 35 29
f 10 2 4
f 221 2 10
f 1 221 9
f 224 22 9
f 23 10 24
f 23 226 225
f 23 224 10
f 34 23 24
f 226 23 227
f 228 23 40
f 165 183 178
f 151 165 178
f 165 151 137
f 147 165 137
f 243 210 244
f 210 243 242
f 209 243 244
f 242 243 209
f 210 214 244
f 247 214 220
f 214 247 246
f 220 214 218
f 208 210 206
f 197 201 194
f 204 201 197
f 202 199 195
f 199 189 195
f 163 159 167
f 159 163 153
f 177 180 181
f 185 180 174
f 185 190 181
f 180 185 181
f 58 230 229
f 73 62 57
f 62 73 80
f 233 88 232
f 88 73 232
f 73 88 80
f 88 102 93
f 83 88 93
f 80 88 83
f 88 233 234
f 102 88 234
f 150 131 146
f 128 131 138
f 148 144 154
f 144 129 133
f 144 158 154
f 144 133 149
f 130 237 127
f 72 64 55
f 68 64 72
f 235 102 234
f 102 235 116
f 235 236 116
f 106 94 97
f 164 168 160
f 168 157 160
f 191 197 194
f 186 191 182
f 191 186 197
f 176 158 173
f 176 186 182
f 186 176 173
f 61 71 54
f 61 67 71
f 67 61 52
f 36 41 31
f 41 54 59
f 47 41 59
f 41 35 31
f 35 41 47
f 45 61 54
f 61 45 52
f 41 45 54
f 45 41 36
f 52 45 42
f 45 36 33
f 222 10 223
f 9 222 223
f 165 172 183
f 155 172 147
f 172 165 147
f 198 192 188
f 245 214 246
f 245 246 213
f 212 214 210
f 208 212 210
f 214 212 218
f 218 212 216
f 163 161 153
f 58 231 230
f 73 231 232
f 230 231 57
f 231 73 57
f 81 95 79
f 95 92 79
f 69 80 76
f 69 62 80
f 48 69 56
f 121 128 122
f 121 107 116
f 107 121 110
f 121 122 110
f 130 141 135
f 141 148 145
f 135 141 145
f 75 68 85
f 43 53 51
f 53 64 68
f 37 46 34
f 46 53 43
f 46 44 55
f 46 37 44
f 64 46 55
f 53 46 64
f 103 235 234
f 103 94 106
f 235 117 236
f 117 103 106
f 103 117 235
f 120 117 106
f 120 123 127
f 117 120 127
f 133 111 119
f 111 105 119
f 120 111 123
f 111 106 97
f 111 120 106
f 191 170 182
f 187 191 194
f 176 162 158
f 162 164 154
f 158 162 154
f 175 177 181
f 175 161 177
f 161 175 155
f 169 180 177
f 161 169 177
f 169 161 163
f 169 163 174
f 180 169 174
f 74 58 63
f 74 231 58
f 231 74 232
f 126 131 128
f 121 126 128
f 126 121 116
f 236 126 116
f 126 236 237
f 136 126 237
f 126 136 131
f 136 239 146
f 239 135 145
f 146 239 240
f 239 145 240
f 141 134 129
f 134 141 130
f 134 130 127
f 103 89 94
f 89 84 94
f 233 89 234
f 89 103 234
f 89 233 232
f 74 89 232
f 171 170 164
f 162 171 164
f 170 171 182
f 171 176 182
f 171 162 176
f 239 238 135
f 238 239 136
f 238 136 237
f 130 238 237
f 89 78 84
f 78 89 74
f 84 78 77
f 77 78 70
f 78 63 70
f 78 74 63
l 174 185
l 42 52
l 213 217
l 127 237
l 197 204
l 81 95
l 135 145
l 115 139
l 214 218
l 182 191
l 39 228
l 90 99
l 22 224
l 231 232
l 33 36
l 157 168
l 101 115
l 149 173
l 23 225
l 98 109
l 150 156
l 142 152
l 153 161
l 80 88
l 115 125
l 196 203
l 175 181
l 238 239
l 108 113
l 116 126
l 103 234
l 239 240
l 22 228
l 206 210
l 41 59
l 138 150
l 101 119
l 11 21
l 87 91
l 131 138
l 152 179
l 155 175
l 73 88
l 164 171
l 18 20
l 156 167
l 130 238
l 57 231
l 45 61
l 145 148
l 145 157
l 116 121
l 127 130
l 160 164
l 90 92
l 41 47
l 90 98
l 88 234
l 122 128
l 130 141
l 170 182
l 145 240
l 126 236
l 72 91
l 25 27
l 87 100
l 155 161
l 163 174
l 94 97
l 94 106
l 245 246
l 157 241
l 181 190
l 62 69
l 92 99
l 28 37
l 129 144
l 148 157
l 14 17
l 22 227
l 79 95
l 141 145
l 100 113
l 170 191
l 72 87
l 163 169
l 25 31
l 54 59
l 104 110
l 209 213
l 125 142
l 115 119
l 45 52
l 130 237
l 57 230
l 55 60
l 10 24
l 10 221
l 92 95
l 28 32
l 166 179
l 205 209
l 166 184
l 189 195
l 83 88
l 68 85
l 41 54
l 159 167
l 156 240
l 13 16
l 79 92
l 88 233
l 32 38
l 24 34
l 100 108
l 69 80
l 145 239
l 6 13
l 35 47
l 44 55
l 61 67
l 114 137
l 96 110
l 136 146
l 208 212
l 188 198
l 55 64
l 214 246
l 110 121
l 48 69
l 129 134
l 137 147
l 68 75
l 79 81
l 199 202
l 130 135
l 170 171
l 21 33
l 136 238
l 69 76
l 233 234
l 58 74
l 103 117
l 211 217
l 74 232
l 220 249
l 234 235
l 61 71
l 144 154
l 212 218
l 48 56
l 147 165
l 47 59
l 180 181
l 107 110
l 60 66
l 240 241
l 4 6
l 191 194
l 5 11
l 43 53
l 73 232
l 6 12
l 44 46
l 114 118
l 219 248
l 173 176
l 162 176
l 74 89
l 165 172
l 133 149
l 144 149
l 64 68
l 57 73
l 126 128
l 82 90
l 214 245
l 3 9
l 166 173
l 9 22
l 129 133
l 184 189
l 4 10
l 23 40
l 50 52
l 102 235
l 5 15
l 136 237
l 169 174
l 86 98
l 132 143
l 93 107
l 35 41
l 207 209
l 51 53
l 44 49
l 154 158
l 162 171
l 209 244
l 19 25
l 208 210
l 64 72
l 31 36
l 139 142
l 147 155
l 67 82
l 183 192
l 20 26
l 158 173
l 9 223
l 99 114
l 34 37
l 70 78
l 73 231
l 132 138
l 140 151
l 132 147
l 211 213
l 142 179
l 143 153
l 38 49
l 154 162
l 219 247
l 16 24
l 19 29
l 176 182
l 187 191
l 214 244
l 9 21
l 117 127
l 222 223
l 85 91
l 120 123
l 26 28
l 102 234
l 246 247
l 161 169
l 127 236
l 116 236
l 15 27
l 211 215
l 63 70
l 106 117
l 16 28
l 213 247
l 209 243
l 1 221
l 9 222
l 128 131
l 58 231
l 120 127
l 40 228
l 98 99
l 23 224
l 26 32
l 70 77
l 43 51
l 121 128
l 169 177
l 46 53
l 63 74
l 1 3
l 37 44
l 182 186
l 215 217
l 57 62
l 127 134
l 160 168
l 216 218
l 149 158
l 146 240
l 23 228
l 172 183
l 98 112
l 131 146
l 150 159
l 59 86
l 153 155
l 15 17
l 42 50
l 80 83
l 7 13
l 116 235
l 161 177
l 164 170
l 143 147
l 62 73
l 8 14
l 210 214
l 105 111
l 209 242
l 200 203
l 30 38
l 11 15
l 58 230
l 201 204
l 84 89
l 186 197
l 89 234
l 119 139
l 235 236
l 131 150
l 171 182
l 161 163
l 153 159
l 15 21
l 213 219
l 157 240
l 123 127
l 214 220
l 97 111
l 124 137
l 189 199
l 137 165
l 22 226
l 206 208
l 109 112
l 149 166
l 193 196
l 146 239
l 135 239
l 23 227
l 131 136
l 52 67
l 134 141
l 104 118
l 57 229
l 10 23
l 62 80
l 97 106
l 105 119
l 137 151
l 77 84
l 148 160
l 185 190
l 41 45
l 22 33
l 83 93
l 138 143
l 88 232
l 32 37
l 141 148
l 32 44
l 193 200
l 84 94
l 89 233
l 171 176
l 174 180
l 42 45
l 36 41
l 54 71
l 144 158
l 29 31
l 55 72
l 10 224
l 65 86
l 180 185
l 76 83
l 14 15
l 22 225
l 130 134
l 24 28
l 186 191
l 111 120
l 6 7
l 72 85
l 119 133
l 163 167
l 6 16
l 74 231
l 220 248
l 25 29
l 17 25
l 155 172
l 73 80
l 209 211
l 133 144
l 36 45
l 164 168
l 188 192
l 18 26
l 118 137
l 205 207
l 192 198
l 103 235
l 21 27
l 178 183
l 93 102
l 218 220
l 100 115
l 195 199
l 111 133
l 140 178
l 54 61
l 133 139
l 94 103
l 144 148
l 212 214
l 156 159
l 173 186
l 196 200
l 45 54
l 10 223
l 126 136
l 118 132
l 28 34
l 20 30
l 129 141
l 148 154
l 99 118
l 21 22
l 191 197
l 13 18
l 151 165
l 58 63
l 5 14
l 100 101
l 103 106
l 111 119
l 88 102
l 217 219
l 152 166
l 2 4
l 126 237
l 220 247
l 195 202
l 125 139
l 89 103
l 173 184
l 212 216
l 31 35
l 248 249
l 10 12
l 75 85
l 126 131
l 82 92
l 137 140
l 210 244
l 147 172
l 229 230
l 110 132
l 76 80
l 79 82
l 60 87
l 230 231
l 151 178
l 132 137
l 27 33
l 111 123
l 17 19
l 44 60
l 2 221
l 96 107
l 177 180
l 236 237
l 67 71
l 9 11
l 10 222
l 110 118
l 12 16
l 237 238
l 158 176
l 68 72
l 107 121
l 156 241
l 78 89
l 93 96
l 169 180
l 88 93
l 38 44
l 2 10
l 74 78
l 63 78
l 16 18
l 89 94
l 117 236
l 213 246
l 181 185
l 177 181
l 31 41
l 187 194
l 139 149
l 158 162
l 214 247
l 3 11
l 110 122
l 210 243
l 9 221
l 47 65
l 107 116
l 60 72
l 159 163
l 4 12
l 5 8
l 136 239
l 53 64
l 71 82
l 56 69
l 162 164
l 106 111
l 114 124
l 154 160
l 1 9
l 146 156
l 71 90
l 106 120
l 165 178
l 165 183
l 49 66
l 67 79
l 176 186
l 33 45
l 12 24
l 59 71
l 184 195
l 34 46
l 43 46
l 86 90
l 121 122
l 194 197
l 153 163
l 15 25
l 27 36
l 53 68
l 207 211
l 46 64
l 71 86
l 143 155
l 154 164
l 219 249
l 117 235
l 16 26
l 213 245
l 210 242
l 242 243
l 117 120
l 139 166
l 58 229
l 128 138
l 23 34
l 26 30
l 243 244
l 150 153
l 78 84
l 121 126
l 194 201
l 225 226
l 27 31
l 143 150
l 226 227
l 30 32
l 3 5
l 179 184
l 139 152
l 157 160
l 9 224
l 66 87
l 135 238
l 23 226
l 161 175
l 232 233
l 197 201
l 46 55
l 102 107
l 135 141
l 175 177
l 102 116
l 146 150
l 29 35
l 37 46
l 210 212
l 213 244
l 77 78
l 124 140
l 49 60
l 91 100
l 183 188
l 22 39
l 23 24
l 59 65
l 52 61
l 89 232
l 98 114
l 52 79
