v -0.1600 0.9210 -0.3879
v 0.1641 0.9215 -0.3892
v -0.3135 0.8643 -0.4563
v 0.3165 0.8649 -0.4536
v -0.1565 0.8353 -0.0999
v 0.1629 0.8356 -0.1022
v -0.4290 0.8127 -0.7380
v 0.4340 0.8126 -0.7456
v -0.3099 0.7873 -0.2003
v 0.3144 0.7879 -0.2015
v -0.4312 0.7739 -0.5399
v 0.4355 0.7740 -0.5398
v -0.4293 0.7077 -0.3262
v 0.4330 0.7074 -0.3239
v 0.5105 0.7061 -0.7497
v -0.5037 0.7057 -0.7182
v -0.1475 0.6924 0.1433
v 0.1513 0.6931 0.1434
v -0.2979 0.6635 0.0196
v 0.3022 0.6641 0.0188
v 0.5148 0.6641 -0.6296
v -0.5109 0.6643 -0.6337
v -0.4183 0.6053 -0.1513
v 0.4225 0.6055 -0.1513
v -0.5088 0.6038 -0.4718
v 0.5122 0.6031 -0.4670
v -0.5604 0.5457 -0.7324
v 0.5625 0.5456 -0.7036
v -0.2805 0.5178 0.1597
v -0.1301 0.5190 0.2870
v 0.1342 0.5189 0.2874
v 0.2853 0.5177 0.1592
v -0.4965 0.5139 -0.3122
v 0.5003 0.5138 -0.3100
v -0.4022 0.4862 -0.0309
v 0.4066 0.4865 -0.0311
v -0.5547 0.4801 -0.6043
v 0.5583 0.4798 -0.5984
v -0.4791 0.4165 -0.2105
v 0.4832 0.4172 -0.2100
v -0.2668 0.4000 0.2066
v 0.2712 0.4005 0.2065
v -0.5414 0.3901 -0.4743
v -0.3872 0.3884 0.0267
v 0.3926 0.3883 0.0246
v 0.5469 0.3892 -0.4748
v -0.5724 0.3846 0.9230
v 0.5788 0.3827 1.0571
v -0.1186 0.3669 0.3278
v 0.1223 0.3667 0.3280
v -0.4609 0.3361 -0.1590
v -0.2601 0.3349 0.2129
v 0.2633 0.3347 0.2142
v 0.4639 0.3356 -0.1551
v -0.3659 0.3222 0.0587
v 0.3691 0.3229 0.0606
v -0.5184 0.3063 -0.3695
v -0.1515 0.3049 0.3009
v 0.1510 0.3040 0.3038
v 0.5231 0.3060 -0.3764
v -0.2545 0.2822 0.2093
v 0.2586 0.2822 0.2095
v -0.3323 0.2684 0.1053
v 0.3345 0.2681 0.1086
v -0.4287 0.2789 -0.0872
v 0.4332 0.2787 -0.0876
v -0.1750 0.2606 0.2805
v -0.0515 0.2725 0.3367
v 0.0549 0.2721 0.3369
v 0.1770 0.2616 0.2822
v -0.4917 0.2534 -0.2890
v 0.4960 0.2530 -0.2890
v -0.3977 0.2510 -0.0220
v -0.0888 0.2518 0.3217
v 0.0916 0.2509 0.3222
v 0.4007 0.2508 -0.0193
v -0.5538 0.2358 -0.6490
v 0.5591 0.2340 -0.6727
v -0.3871 0.2167 1.2332
v -0.1135 0.2298 0.3076
v 0.1157 0.2289 0.3104
v -0.4511 0.2272 -0.1606
v 0.4554 0.2269 -0.1607
v -0.0428 0.2161 1.1182
v 0.0466 0.2164 1.2266
v 0.3793 0.2041 0.0209
v -0.1207 0.2037 0.3117
v 0.1203 0.2033 0.3145
v 0.0777 0.1982 0.3331
v -0.3268 0.1784 0.1101
v -0.1812 0.1790 0.2815
v -0.0769 0.1961 0.3320
v 0.1841 0.1781 0.2826
v 0.3242 0.1883 0.1211
v -0.2554 0.1696 0.2137
v 0.2598 0.1685 0.2146
v -0.4042 0.1767 -0.0429
v -0.0944 0.1735 0.3344
v 0.0981 0.1752 0.3337
v 0.4059 0.1762 -0.0365
v -0.5285 0.1711 -0.5059
v 0.5320 0.1707 -0.5003
v 0.3383 0.1639 0.1023
v -0.0430 0.1506 0.3572
v 0.0477 0.1500 0.3577
v -0.4405 0.1455 -0.1422
v 0.4431 0.1456 -0.1371
v 0.1727 0.1375 0.3049
v -0.3479 0.1351 0.0800
v -0.1696 0.1374 0.3041
v 0.3532 0.1341 0.0776
v -0.0860 0.1292 0.3529
v 0.0906 0.1294 0.3527
v -0.2612 0.1211 0.2182
v 0.2650 0.1211 0.2189
v -0.1655 0.0976 0.3188
v 0.1687 0.0979 0.3194
v -0.4815 0.0903 -0.3032
v -0.3701 0.0894 0.0396
v 0.4875 0.0909 -0.3108
v 0.3742 0.0887 0.0400
v -0.0493 0.0789 0.3833
v 0.0556 0.0791 0.3829
v -0.2653 0.0774 0.2213
v 0.2716 0.0773 0.2187
v 0.0974 0.0581 0.3777
v -0.0939 0.0575 0.3772
v -0.5324 0.0501 -0.6871
v -0.1618 0.0324 0.3427
v 0.1667 0.0326 0.3420
v -0.5176 0.0268 -0.6074
v 0.5222 0.0268 -0.6100
v -0.3912 0.0145 -0.0212
v 0.3957 0.0141 -0.0219
v -0.0615 0.0074 0.3997
v 0.0661 0.0072 0.3997
v -0.2717 -0.0084 0.2146
v 0.2758 -0.0082 0.2149
v 0.1037 -0.0090 0.3823
v -0.0996 -0.0103 0.3821
v -0.1318 -0.0336 0.3585
v 0.1350 -0.0341 0.3588
v -0.4674 -0.0453 -0.3502
v 0.4713 -0.0455 -0.3475
v -0.0625 -0.0581 0.3768
v 0.0672 -0.0484 0.3887
v -0.1070 -0.0756 0.3401
v 0.1122 -0.0862 1.3595
v 0.0573 -0.0736 0.3643
v -0.0698 -0.0926 0.3398
v -0.2058 -0.0859 1.3319
v 0.2083 -0.0860 1.3326
v 0.0303 -0.1096 0.3113
v -0.0283 -0.1093 0.3112
v -0.3662 -0.1095 -0.0777
v -0.1111 -0.1062 0.2864
v 0.3712 -0.1096 -0.0797
v -0.4936 -0.1209 -0.6925
v 0.0782 -0.1195 0.2657
v 0.5006 -0.1201 -0.7271
v -0.1603 -0.1468 0.1741
v 0.1667 -0.1464 0.1728
v 0.0428 -0.1648 0.2295
v -0.0375 -0.1654 0.2290
v -0.2697 -0.1713 0.0381
v 0.0911 -0.1710 0.2125
v 0.2736 -0.1712 0.0387
v -0.0875 -0.1725 0.2111
v -0.4408 -0.1900 -0.4521
v 0.4451 -0.1906 -0.4520
v -0.1466 -0.1980 0.1746
v 0.1494 -0.1978 0.1757
v -0.2182 -0.2103 0.1011
v -0.0452 -0.2116 0.2262
v 0.0495 -0.2116 0.2263
v 0.2220 -0.2109 0.1024
v -0.0927 -0.2197 0.2112
v 0.0954 -0.2196 0.2121
v -0.1925 -0.2383 0.1172
v 0.1962 -0.2378 0.1183
v -0.1463 -0.2417 0.1607
v 0.1495 -0.2409 0.1615
v -0.3581 -0.2464 -0.1998
v 0.3614 -0.2467 -0.1969
v -0.0853 -0.2534 0.1923
v 0.0901 -0.2536 0.1921
v -0.1798 -0.2610 0.1157
v 0.1510 -0.3027 0.1255
v 0.1943 -0.2783 0.6177
v -0.2874 -0.2653 -0.0492
v 0.2907 -0.2646 -0.0466
v -0.1463 -0.2919 0.1252
v -0.2394 -0.2703 0.0246
v 0.2424 -0.2708 0.0259
v -0.4474 -0.2754 -0.7160
v 0.4495 -0.2751 -0.6890
v -0.0800 -0.2784 0.7882
v -0.1874 -0.2916 0.0836
v 0.0827 -0.2769 0.1689
v -0.0835 -0.3111 0.1735
v 0.0873 -0.3114 0.1742
v -0.2193 -0.3226 0.0360
v 0.2228 -0.3234 0.0371
v -0.3903 -0.3362 -0.5073
v 0.3940 -0.3366 -0.5178
v -0.1525 -0.3409 0.1060
v -0.0849 -0.3433 0.1594
v 0.0887 -0.3434 0.1597
v -0.2571 -0.3542 -0.0657
v 0.2601 -0.3536 -0.0624
v -0.0873 -0.3696 0.1287
v 0.0918 -0.3696 0.1286
v -0.3109 -0.3741 -0.2607
v 0.3145 -0.3747 -0.2582
v -0.1675 -0.3777 0.0468
v 0.1711 -0.3780 0.0476
v -0.3659 -0.4110 -0.7500
v -0.0937 -0.4082 0.1120
v 0.0977 -0.4086 0.1122
v 0.3711 -0.4114 -0.7681
v -0.1906 -0.4300 -0.0112
v 0.1945 -0.4301 -0.0102
v -0.3289 -0.4400 -0.4654
v 0.3334 -0.4387 -0.4663
v -0.1062 -0.4721 0.1051
v 0.1094 -0.4722 0.1061
v -0.3192 -0.4732 -0.4300
v 0.3231 -0.4724 -0.4272
v -0.2151 -0.4827 -0.0611
v 0.2184 -0.4821 -0.0593
v 0.2351 -0.5242 -0.1115
v -0.2310 -0.5247 -0.1122
v -0.1171 -0.5338 0.0833
v 0.1203 -0.5337 0.0845
v -0.1210 -0.5730 1.3568
v 0.1245 -0.5741 1.3570
v -0.3459 -0.5874 -0.7069
v 0.3498 -0.5878 -0.7023
v -0.3026 -0.6333 -0.5386
v 0.3069 -0.6332 -0.5386
v -0.2228 -0.6775 -0.3433
v 0.2268 -0.6774 -0.3428
v -0.1157 -0.7098 -0.2201
v 0.1202 -0.7101 -0.2202
v -0.3536 -0.7668 -0.7686
v 0.3584 -0.7673 -0.7733
v -0.3115 -0.8036 -0.5361
v 0.3161 -0.8034 -0.5371
v -0.2295 -0.8362 -0.3395
v 0.2340 -0.8360 -0.3399
v -0.1197 -0.8582 -0.2106
v 0.1237 -0.8583 -0.2104
v -0.3748 -0.9121 -0.7675
v 0.3789 -0.9119 -0.7656
v -0.3302 -0.9441 -0.7547
v 0.3346 -0.9444 -0.7557
v -0.2422 -0.9726 -0.7607
v 0.2461 -0.9715 -0.7277
v -0.1255 -0.9875 -0.7150
v 0.1278 -0.9873 -0.7123
v 0.0033 0.9943 -0.8765
v 0.0022 0.9467 -0.4029
v 0.0022 0.8991 -0.2034
v 0.0022 0.8515 -0.0670
v 0.0022 0.8038 0.0304
v 0.0022 0.7562 0.1088
v 0.0022 0.7086 0.1721
v 0.0022 0.6610 0.2201
v 0.0022 0.6134 0.2618
v 0.0022 0.5657 0.2931
v 0.0022 0.5181 0.3223
v 0.0022 0.4705 0.3364
v 0.0022 0.4229 0.3483
v 0.0033 0.3753 0.3534
v 0.0022 0.3276 0.3489
v 0.0010 0.2800 0.3422
v 0.0022 0.2324 0.3333
v 0.0010 0.1848 0.3489
v 0.0033 0.1372 0.3668
v 0.0022 0.0895 0.3894
v 0.0022 0.0419 0.4026
v 0.0033 -0.0057 0.4081
v 0.0022 -0.0533 0.3940
v 0.0022 -0.1009 0.3305
v 0.0022 -0.1485 0.2362
v 0.0022 -0.1962 0.2299
v 0.0022 -0.2438 0.2191
v 0.0022 -0.2914 0.1880
v 0.0033 -0.3390 0.1843
v 0.0022 -0.3866 0.1456
v 0.0022 -0.4343 0.1478
v 0.0022 -0.4819 0.1581
v 0.0010 -0.5295 0.1478
v 0.0010 -0.5771 0.1044
v 0.0022 -0.6247 -0.1506
v 0.0022 -0.6724 -0.1714
v 0.0022 -0.7200 -0.1785
v 0.0022 -0.7676 -0.1807
v 0.0022 -0.8152 -0.1762
v 0.0022 -0.8628 -0.1671
v 0.0022 -0.9105 -0.1614
v 0.0022 -0.9581 -0.4411
v 0.0022 -1.0057 -0.8533
f 240 248 250 242
f 248 240 246
f 46 38 48 60
f 146 283 282 136
f 222 230 234 226
f 230 222 210 214 228
f 19 23 13 9
f 23 19 29 35
f 69 276 275
f 276 69 85 277
f 134 157 138
f 157 134 120 144
f 47 37 43 57
f 239 237 227
f 210 222 216 203
f 114 110 112 116
f 93 88 70
f 138 157 167 152
f 150 168 171 161 156
f 168 150 154 164
f 106 119 133 118
f 119 106 82 97 109
f 41 44 35 29
f 44 41 52 55
f 277 278 104 84
f 278 277 85 105
f 251 259 257 249
f 62 96 93 70
f 96 62 64 94
f 197 288 200 192
f 288 197 192 185 287
f 186 175 178 182
f 121 134 138 125
f 134 121 107 120
f 247 255 253
f 255 247 249 257
f 283 153 284
f 274 50 69 275
f 167 191 194 176
f 191 167 157 184
f 260 252 250 258
f 117 130 126 113
f 130 117 125 138
f 160 170 184 157
f 225 233 229 221
f 148 142 152 162
f 290 212 216 219
f 193 202 190 165 173
f 153 285 284
f 226 234 294 293 292
f 284 285 154 283
f 154 150 145 283
f 79 63 90
f 12 15 21 14
f 110 98 112
f 123 280 279 105
f 280 123 136 281
f 51 71 57 39
f 244 236 231 242
f 285 286 164 154
f 124 137 133 119
f 137 124 116 129
f 29 19 17 30
f 31 18 20 32
f 185 192 181
f 150 156 141 147 141
f 170 196 205 214 184
f 228 214 205 220 224
f 291 292 225 218
f 292 291 290 219 226
f 156 161 151 141
f 104 278 279 280 122
f 152 142 130 138
f 26 28 40 34
f 28 26 21
f 174 185 181 177
f 185 174 286 287
f 233 232 227 229
f 188 201 288 199
f 40 54 45 36
f 80 91 67
f 218 225 221 215
f 105 279 278
f 228 238 242 231
f 44 51 39 35
f 51 44 55 65
f 121 125 117 115 111
f 176 162 152 167
f 239 241 249 247
f 241 239 227 232
f 232 235 243 241
f 214 210 191 184
f 83 66 54 72
f 228 231 234 230
f 181 192 187
f 240 242 238
f 4 8 14 10
f 117 113 108 115
f 113 126 123 105
f 49 274 275 276 68
f 202 215 221 209
f 32 36 45 42
f 36 32 20 24
f 13 11 7
f 91 95 61 67
f 119 109 114 116 124
f 248 246 254
f 14 24 20 10
f 24 14 21 26 34
f 25 33 39 27
f 33 25 22 13 23
f 290 211 206 207 289
f 141 151 137 129
f 245 239 247
f 137 155 133
f 155 137 151 165
f 39 33 23 35
f 246 240 238
f 294 234 231 236
f 7 3 9 13
f 243 251 249 241
f 144 160 157
f 204 195 169 183 213
f 68 276 277 84
f 213 183 190 209
f 86 103 96 94
f 40 36 24 34
f 254 256 248
f 224 220 228
f 291 218 290
f 250 252 244 242
f 191 210 203 194
f 32 42 50 31
f 247 253 245
f 39 57 43 37 27
f 61 95 90 63
f 54 66 56 45
f 216 222 226 219
f 129 116 112 127
f 199 288 287
f 104 122 127 112
f 6 10 20 18
f 100 72 102
f 202 209 190
f 258 250 248 256
f 130 142 139 126
f 129 127 140 141
f 17 19 9 5
f 50 42 53
f 151 161 173 165
f 121 111 100 107
f 42 45 56 53
f 8 12 14
l 240 248
l 52 63
l 38 46
l 146 283
l 222 230
l 19 23
l 69 276
l 134 157
l 37 47
l 237 239
l 210 222
l 203 216
l 110 114
l 88 93
l 138 157
l 281 282
l 150 168
l 38 48
l 78 83
l 106 119
l 41 44
l 277 278
l 251 259
l 62 96
l 175 286
l 70 88
l 197 288
l 65 101
l 175 186
l 121 134
l 247 255
l 273 274
l 153 283
l 50 274
l 167 191
l 252 260
l 117 130
l 96 108
l 143 155
l 160 170
l 155 183
l 171 179
l 225 233
l 52 67
l 30 271
l 70 81
l 59 81
l 142 148
l 288 289
l 95 109
l 159 162
l 221 229
l 212 290
l 193 202
l 153 285
l 226 234
l 284 285
l 135 136
l 150 154
l 63 79
l 91 114
l 135 145
l 12 15
l 59 75
l 98 110
l 123 280
l 51 71
l 236 244
l 285 286
l 262 263
l 124 137
l 103 115
l 70 75
l 188 208
l 19 29
l 235 294
l 18 31
l 91 98
l 185 192
l 74 92
l 150 156
l 125 138
l 170 196
l 166 178
l 214 228
l 173 193
l 291 292
l 98 112
l 131 143
l 156 161
l 104 278
l 84 104
l 142 152
l 26 28
l 174 185
l 159 166
l 232 233
l 188 201
l 40 54
l 80 91
l 55 73
l 218 225
l 292 293
l 163 166
l 105 279
l 120 144
l 228 238
l 178 182
l 192 198
l 52 55
l 44 51
l 106 118
l 65 82
l 141 147
l 121 125
l 162 176
l 239 241
l 48 60
l 232 235
l 266 267
l 210 214
l 66 83
l 228 231
l 83 107
l 102 120
l 181 192
l 240 242
l 77 101
l 4 8
l 113 117
l 192 200
l 198 206
l 200 288
l 113 126
l 299 300
l 49 274
l 202 215
l 32 36
l 11 13
l 295 296
l 91 95
l 99 108
l 138 152
l 109 119
l 36 45
l 181 185
l 1 5
l 148 162
l 87 91
l 246 248
l 14 24
l 85 277
l 25 33
l 211 290
l 22 25
l 44 55
l 152 162
l 116 124
l 182 186
l 90 114
l 2 6
l 141 151
l 55 61
l 247 249
l 47 57
l 26 34
l 239 245
l 40 60
l 101 128
l 117 125
l 137 155
l 7 11
l 181 187
l 33 39
l 240 246
l 234 294
l 217 223
l 131 133
l 3 7
l 243 251
l 144 160
l 29 35
l 134 138
l 195 204
l 219 290
l 253 255
l 68 276
l 183 213
l 265 266
l 239 247
l 86 103
l 232 241
l 258 260
l 120 134
l 109 114
l 36 40
l 7 13
l 206 207
l 235 243
l 254 256
l 227 239
l 220 224
l 184 214
l 218 291
l 192 197
l 148 166
l 298 299
l 51 65
l 3 9
l 174 286
l 250 252
l 174 177
l 191 210
l 221 225
l 55 65
l 213 221
l 294 295
l 32 42
l 247 253
l 58 61
l 39 57
l 77 82
l 163 285
l 61 95
l 209 217
l 137 151
l 14 21
l 43 57
l 62 70
l 228 230
l 28 38
l 54 66
l 148 159
l 227 232
l 272 273
l 166 172
l 59 62
l 246 254
l 133 155
l 29 30
l 216 222
l 21 26
l 116 129
l 154 164
l 242 250
l 169 183
l 13 22
l 268 269
l 141 156
l 199 288
l 123 126
l 252 300
l 130 138
l 104 122
l 257 259
l 155 165
l 6 10
l 28 40
l 145 283
l 170 184
l 206 211
l 269 270
l 301 302
l 220 228
l 90 95
l 224 228
l 144 157
l 105 123
l 149 153
l 72 100
l 21 28
l 141 150
l 29 41
l 188 189
l 18 20
l 302 303
l 69 85
l 279 280
l 145 150
l 58 74
l 97 109
l 123 136
l 226 292
l 209 221
l 249 257
l 165 190
l 275 276
l 260 303
l 280 281
l 119 124
l 6 264
l 90 97
l 231 236
l 162 172
l 202 209
l 250 258
l 72 102
l 276 277
l 188 199
l 169 195
l 130 142
l 57 71
l 227 229
l 25 27
l 218 290
l 127 129
l 286 287
l 64 94
l 54 72
l 10 14
l 216 219
l 50 59
l 282 283
l 207 289
l 53 64
l 287 288
l 17 19
l 18 267
l 129 137
l 20 24
l 283 284
l 176 194
l 133 137
l 111 115
l 191 194
l 85 105
l 127 140
l 183 190
l 223 227
l 152 167
l 185 287
l 261 262
l 68 84
l 199 287
l 112 116
l 104 112
l 184 191
l 17 30
l 6 18
l 75 89
l 105 113
l 136 282
l 205 214
l 251 300
l 31 50
l 42 50
l 61 63
l 202 206
l 154 283
l 13 23
l 231 242
l 115 117
l 187 192
l 39 51
l 101 118
l 158 165
l 157 167
l 112 127
l 151 161
l 230 234
l 9 19
l 129 141
l 241 243
l 62 64
l 244 297
l 57 77
l 72 83
l 177 181
l 10 20
l 242 244
l 225 292
l 94 96
l 154 285
l 157 160
l 53 70
l 165 173
l 238 240
l 204 217
l 64 76
l 209 213
l 82 97
l 227 237
l 67 80
l 126 130
l 82 106
l 5 17
l 111 121
l 126 139
l 119 133
l 93 115
l 42 45
l 81 89
l 61 67
l 236 294
l 86 94
l 60 78
l 84 277
l 132 144
l 79 90
l 158 169
l 238 242
l 151 165
l 249 251
l 20 32
l 49 68
l 93 99
l 161 171
l 293 294
l 46 60
l 172 180
l 67 91
l 245 247
l 71 82
l 205 220
l 289 290
l 27 37
l 53 56
l 50 69
l 140 141
l 194 203
l 212 216
l 49 52
l 23 33
l 215 221
l 35 44
l 290 291
l 136 146
l 267 268
l 241 249
l 100 107
l 139 142
l 75 88
l 161 173
l 259 303
l 136 281
l 50 53
l 24 34
l 263 264
l 96 103
l 5 264
l 122 280
l 27 39
l 300 301
l 107 121
l 23 35
l 238 246
l 38 54
l 264 265
l 296 297
l 157 184
l 108 113
l 69 275
l 231 234
l 24 36
l 243 297
l 297 298
l 168 171
l 274 275
l 118 143
l 219 226
l 56 62
l 270 271
l 35 39
l 248 250
l 41 52
l 17 267
l 100 102
l 108 115
l 93 96
l 100 111
l 8 12
l 245 253
l 271 272
l 34 40
l 42 53
l 190 209
l 9 13
l 196 205
l 215 218
l 92 112
l 49 58
l 175 178
l 78 102
l 5 9
l 153 284
l 45 54
l 203 210
l 31 271
l 8 14
l 255 257
l 190 202
l 12 14
l 4 10
l 278 279
l 222 226
l 256 258
l 56 66
l 248 254
l 122 127
l 95 110
l 167 176
l 122 135
l 164 168
l 164 286
l 37 43
l 45 56
l 118 131
l 201 288
l 96 111
l 143 158
l 60 72
l 71 101
l 107 120
l 15 21
l 204 213
l 30 49
l 114 116
l 182 188
l 248 256
l 41 58
l 70 93
l 31 32
l 16 22
l 244 252
l 110 112
l 229 233
l 63 73
l 105 278
l 118 133
l 63 90
