v -0.1631 0.9201 -0.3856
v 0.1610 0.9206 -0.3869
v -0.3166 0.8634 -0.4540
v 0.3135 0.8640 -0.4513
v -0.1595 0.8344 -0.0976
v 0.1599 0.8347 -0.0999
v -0.4321 0.8118 -0.7357
v 0.4310 0.8117 -0.7433
v -0.3130 0.7864 -0.1979
v 0.3113 0.7870 -0.1992
v -0.4343 0.7730 -0.5376
v 0.4325 0.7731 -0.5375
v -0.4323 0.7068 -0.3239
v 0.4300 0.7065 -0.3216
v 0.5074 0.7052 -0.7474
v -0.5067 0.7048 -0.7159
v -0.1505 0.6915 0.1456
v 0.1482 0.6922 0.1457
v -0.3010 0.6626 0.0220
v 0.2991 0.6632 0.0212
v 0.5117 0.6632 -0.6273
v -0.5140 0.6634 -0.6314
v -0.4213 0.6044 -0.1489
v 0.4195 0.6046 -0.1490
v -0.5118 0.6029 -0.4695
v 0.5092 0.6022 -0.4646
v -0.5635 0.5448 -0.7301
v 0.5595 0.5447 -0.7012
v -0.2836 0.5169 0.1621
v -0.1331 0.5181 0.2894
v 0.1312 0.5180 0.2897
v 0.2823 0.5168 0.1615
v -0.4996 0.5130 -0.3098
v 0.4972 0.5129 -0.3077
v -0.4052 0.4853 -0.0286
v 0.4035 0.4856 -0.0288
v -0.5577 0.4792 -0.6020
v 0.5552 0.4789 -0.5961
v -0.4821 0.4156 -0.2082
v 0.4802 0.4163 -0.2077
v -0.2699 0.3991 0.2089
v 0.2681 0.3996 0.2088
v -0.5444 0.3892 -0.4719
v -0.3902 0.3875 0.0290
v 0.3895 0.3874 0.0269
v 0.5438 0.3883 -0.4724
v -0.5754 0.3837 0.9253
v 0.5758 0.3818 1.0594
v -0.1216 0.3660 0.3301
v 0.1192 0.3658 0.3303
v -0.4639 0.3352 -0.1567
v -0.2632 0.3340 0.2152
v 0.2602 0.3338 0.2165
v 0.4608 0.3347 -0.1527
v -0.3689 0.3213 0.0610
v 0.3660 0.3220 0.0629
v -0.5214 0.3054 -0.3671
v -0.1546 0.3040 0.3033
v 0.1480 0.3031 0.3061
v 0.5201 0.3051 -0.3741
v -0.2576 0.2813 0.2116
v 0.2555 0.2813 0.2118
v -0.3354 0.2675 0.1076
v 0.3315 0.2672 0.1109
v -0.4317 0.2780 -0.0849
v 0.4301 0.2778 -0.0853
v -0.1781 0.2597 0.2828
v -0.0545 0.2716 0.3390
v 0.0518 0.2712 0.3392
v 0.1739 0.2607 0.2845
v -0.4947 0.2525 -0.2867
v 0.4929 0.2521 -0.2867
v -0.4007 0.2501 -0.0197
v -0.0919 0.2509 0.3240
v 0.0885 0.2500 0.3246
v 0.3976 0.2499 -0.0170
v -0.5568 0.2349 -0.6466
v 0.5561 0.2331 -0.6704
v -0.3901 0.2158 1.2355
v 0.3922 0.2230 -0.0077
v -0.1166 0.2289 0.3099
v 0.1126 0.2280 0.3127
v -0.4541 0.2263 -0.1583
v 0.4524 0.2260 -0.1584
v -0.0459 0.2152 1.1206
v 0.0435 0.2155 1.2289
v 0.3762 0.2032 0.0232
v -0.1238 0.2028 0.3141
v 0.1172 0.2024 0.3168
v 0.0747 0.1973 0.3354
v -0.3299 0.1775 0.1124
v -0.1842 0.1781 0.2838
v -0.0799 0.1952 0.3343
v 0.1811 0.1772 0.2849
v 0.3211 0.1874 0.1234
v -0.2585 0.1687 0.2160
v 0.2567 0.1676 0.2169
v -0.4073 0.1758 -0.0406
v -0.0975 0.1726 0.3367
v 0.0950 0.1743 0.3360
v 0.4028 0.1753 -0.0341
v -0.5316 0.1702 -0.5036
v 0.5290 0.1698 -0.4980
v 0.3352 0.1630 0.1046
v -0.0460 0.1497 0.3595
v 0.0446 0.1491 0.3600
v -0.4435 0.1446 -0.1399
v 0.4400 0.1447 -0.1348
v 0.1697 0.1366 0.3072
v -0.3510 0.1342 0.0824
v -0.1726 0.1365 0.3064
v 0.3501 0.1332 0.0799
v -0.0891 0.1283 0.3552
v 0.0875 0.1285 0.3550
v -0.2643 0.1202 0.2206
v 0.2620 0.1202 0.2212
v -0.1686 0.0967 0.3212
v 0.1656 0.0970 0.3217
v -0.4845 0.0894 -0.3008
v -0.3731 0.0885 0.0419
v 0.4845 0.0900 -0.3085
v 0.3711 0.0878 0.0424
v -0.0524 0.0780 0.3856
v 0.0526 0.0782 0.3852
v -0.2684 0.0765 0.2236
v 0.2685 0.0764 0.2210
v 0.0944 0.0572 0.3800
v -0.0970 0.0566 0.3796
v 0.5345 0.0493 -0.6958
v -0.5355 0.0492 -0.6848
v -0.1649 0.0315 0.3450
v 0.1637 0.0317 0.3443
v -0.5207 0.0259 -0.6051
v 0.5191 0.0259 -0.6077
v -0.3943 0.0137 -0.0189
v 0.3926 0.0132 -0.0195
v -0.0646 0.0065 0.4021
v 0.0630 0.0063 0.4020
v -0.2748 -0.0093 0.2170
v 0.2728 -0.0091 0.2173
v 0.1006 -0.0099 0.3846
v -0.1027 -0.0112 0.3845
v -0.1348 -0.0345 0.3609
v 0.1319 -0.0350 0.3612
v -0.4705 -0.0462 -0.3479
v 0.4682 -0.0464 -0.3451
v -0.0656 -0.0590 0.3791
v 0.0641 -0.0493 0.3910
v -0.1100 -0.0765 0.3425
v 0.1091 -0.0871 1.3618
v 0.0543 -0.0745 0.3666
v -0.0729 -0.0935 0.3421
v -0.2089 -0.0868 1.3342
v 0.2052 -0.0869 1.3349
v 0.0272 -0.1105 0.3136
v -0.0313 -0.1102 0.3135
v -0.3692 -0.1104 -0.0754
v -0.1142 -0.1071 0.2887
v 0.3681 -0.1105 -0.0773
v -0.4967 -0.1218 -0.6902
v 0.0752 -0.1204 0.2681
v 0.4975 -0.1210 -0.7248
v -0.1633 -0.1477 0.1765
v 0.1636 -0.1473 0.1751
v 0.0398 -0.1657 0.2318
v -0.0406 -0.1663 0.2313
v -0.2727 -0.1722 0.0404
v 0.0881 -0.1719 0.2148
v 0.2705 -0.1721 0.0410
v -0.0906 -0.1734 0.2134
v -0.4438 -0.1909 -0.4498
v 0.4421 -0.1915 -0.4497
v -0.1497 -0.1989 0.1769
v 0.1464 -0.1987 0.1780
v -0.2213 -0.2112 0.1035
v -0.0483 -0.2125 0.2286
v 0.0464 -0.2125 0.2286
v 0.2189 -0.2118 0.1047
v -0.0957 -0.2206 0.2135
v 0.0923 -0.2205 0.2144
v -0.1956 -0.2392 0.1195
v 0.1931 -0.2387 0.1206
v -0.1493 -0.2426 0.1630
v 0.1465 -0.2418 0.1638
v -0.3611 -0.2473 -0.1975
v 0.3583 -0.2476 -0.1945
v -0.0883 -0.2543 0.1946
v 0.0871 -0.2545 0.1944
v -0.1829 -0.2619 0.1180
v 0.1480 -0.3036 0.1279
v 0.1912 -0.2792 0.6200
v -0.2904 -0.2662 -0.0468
v 0.2876 -0.2655 -0.0443
v -0.1493 -0.2928 0.1275
v -0.2424 -0.2712 0.0269
v 0.2393 -0.2717 0.0283
v -0.4505 -0.2763 -0.7137
v 0.4465 -0.2760 -0.6867
v -0.0830 -0.2793 0.7905
v -0.1905 -0.2925 0.0859
v 0.0796 -0.2778 0.1712
v -0.0866 -0.3120 0.1759
v 0.0842 -0.3123 0.1765
v -0.2223 -0.3235 0.0383
v 0.2198 -0.3243 0.0394
v -0.3934 -0.3371 -0.5050
v 0.3909 -0.3375 -0.5155
v -0.1555 -0.3418 0.1083
v -0.0880 -0.3442 0.1617
v 0.0856 -0.3443 0.1620
v -0.2602 -0.3551 -0.0634
v 0.2571 -0.3545 -0.0601
v -0.0904 -0.3705 0.1310
v 0.0887 -0.3705 0.1309
v -0.3140 -0.3750 -0.2584
v 0.3115 -0.3756 -0.2559
v -0.1706 -0.3786 0.0491
v 0.1680 -0.3789 0.0499
v -0.3689 -0.4119 -0.7477
v -0.0968 -0.4091 0.1143
v 0.0946 -0.4095 0.1146
v 0.3681 -0.4123 -0.7657
v -0.1937 -0.4309 -0.0089
v 0.1914 -0.4310 -0.0079
v -0.3320 -0.4409 -0.4630
v 0.3303 -0.4396 -0.4640
v -0.1092 -0.4730 0.1074
v 0.1063 -0.4731 0.1084
v -0.3223 -0.4741 -0.4276
v 0.3200 -0.4733 -0.4248
v -0.2181 -0.4836 -0.0588
v 0.2154 -0.4830 -0.0570
v 0.2320 -0.5251 -0.1092
v -0.2341 -0.5256 -0.1098
v -0.1202 -0.5347 0.0857
v 0.1173 -0.5345 0.0868
v -0.1241 -0.5739 1.3591
v 0.1215 -0.5750 1.3593
v -0.3489 -0.5883 -0.7046
v 0.3467 -0.5887 -0.7000
v -0.3056 -0.6342 -0.5363
v 0.3038 -0.6341 -0.5363
v -0.2259 -0.6784 -0.3410
v 0.2237 -0.6783 -0.3405
v -0.1188 -0.7107 -0.2177
v 0.1171 -0.7110 -0.2178
v -0.3566 -0.7677 -0.7663
v 0.3553 -0.7682 -0.7710
v -0.3145 -0.8045 -0.5337
v 0.3130 -0.8043 -0.5347
v -0.2325 -0.8371 -0.3372
v 0.2310 -0.8369 -0.3376
v -0.1228 -0.8591 -0.2083
v 0.1207 -0.8592 -0.2080
v -0.3778 -0.9130 -0.7651
v 0.3759 -0.9128 -0.7633
v -0.3332 -0.9450 -0.7524
v 0.3315 -0.9453 -0.7533
v -0.2453 -0.9735 -0.7584
v 0.2430 -0.9724 -0.7254
v -0.1286 -0.9884 -0.7127
v 0.1248 -0.9882 -0.7100
v 0.0003 0.9934 -0.8742
v -0.0009 0.9458 -0.4006
v -0.0009 0.8982 -0.2010
v -0.0009 0.8506 -0.0647
v -0.0009 0.8029 0.0328
v -0.0009 0.7553 0.1111
v -0.0009 0.7077 0.1744
v -0.0009 0.6601 0.2224
v -0.0009 0.6125 0.2641
v -0.0009 0.5648 0.2954
v -0.0009 0.5172 0.3246
v -0.0009 0.4696 0.3387
v -0.0009 0.4220 0.3506
v 0.0003 0.3744 0.3557
v -0.0009 0.3267 0.3512
v -0.0021 0.2791 0.3445
v -0.0009 0.2315 0.3356
v -0.0021 0.1839 0.3512
v 0.0003 0.1363 0.3691
v -0.0009 0.0887 0.3917
v -0.0009 0.0410 0.4049
v 0.0003 -0.0066 0.4105
v -0.0009 -0.0542 0.3964
v -0.0009 -0.1018 0.3328
v -0.0009 -0.1494 0.2386
v -0.0009 -0.1971 0.2322
v -0.0009 -0.2447 0.2214
v -0.0009 -0.2923 0.1903
v 0.0003 -0.3399 0.1866
v -0.0009 -0.3875 0.1479
v -0.0009 -0.4352 0.1501
v -0.0009 -0.4828 0.1604
v -0.0021 -0.5304 0.1501
v -0.0021 -0.5780 0.1067
v -0.0009 -0.6256 -0.1483
v -0.0009 -0.6733 -0.1691
v -0.0009 -0.7209 -0.1761
v -0.0009 -0.7685 -0.1784
v -0.0009 -0.8161 -0.1739
v -0.0009 -0.8637 -0.1648
v -0.0009 -0.9113 -0.1591
v -0.0009 -0.9590 -0.4388
v -0.0009 -1.0066 -0.8510
f 242 250 252 244
f 250 242 248
f 148 285 284 138
f 224 232 236 228
f 232 224 216 230
f 136 159 140
f 159 136 121 146
f 47 37 43 57
f 218 205 212 224
f 94 89 70
f 216 224 212
f 38 48 60 46
f 107 120 135 119
f 120 107 83 98 110
f 41 44 35 29
f 44 41 52 55
f 279 280 105 85
f 280 279 86 106
f 177 188 289 288
f 188 177 180 184
f 122 136 140 126
f 136 122 108 121
f 249 257 255
f 257 249 251 259
f 285 155 286
f 276 50 69 277
f 169 193 196 178
f 193 169 159 186
f 162 172 186 159
f 150 144 154 164
f 231 223 227 235
f 195 204 192 167 175
f 213 217 204 208
f 217 213 292 220
f 286 287 156 285
f 287 286 155
f 111 99 113
f 124 282 281 106
f 282 124 138 283
f 246 238 233 244
f 287 288 166 156
f 288 287 165
f 16 11 13 22
f 190 210 291 290 203
f 19 29 35 23
f 29 19 17 30
f 296 237 234 235
f 152 158 143 149 143
f 158 152 170 173 163
f 172 198 207 216 186
f 293 294 227 220
f 294 293 221 228
f 154 144 132 140
f 26 28 40 34
f 28 26 21
f 176 187 183 179
f 187 176 288 289
f 221 293 292
f 235 234 229 231
f 294 295 296 235 227
f 295 294 228 236 296
f 165 168 180 177 288
f 122 126 118 116 112
f 241 243 251 249
f 243 241 229 234
f 216 212 193 186
f 230 233 236 232
f 183 194 189
f 194 183 187
f 4 8 14 10
f 114 118 132 127
f 118 114 109 116
f 194 202 290 291 209
f 202 194 199 290
f 114 127 124 106
f 204 217 223 211
f 120 110 115 117 125
f 36 45 42 32
f 45 36 40 54
f 250 248 256
f 292 213 208 209 291
f 22 25 27
f 25 22 13 23 33
f 143 153 139 131
f 153 143 158 163
f 241 247 239
f 247 241 249
f 33 39 27 25
f 39 33 23 35
f 248 242 240
f 7 3 9 13
f 245 253 251 243
f 146 162 159
f 221 292 214 218
f 68 278 279 85
f 278 68 49 276 277
f 185 215 206 197 171
f 215 185 192 211
f 87 104 97 95
f 243 234 237 245
f 40 36 24 34
f 7 13 11
f 209 208 200 194
f 256 258 250
f 229 241 239
f 65 51 44 55
f 32 42 50 31
f 249 255 247
f 61 96 91 63
f 96 61 67 92
f 289 188 184 190 201
f 14 21 26 34 24
f 21 14 12 15
f 70 62 97 94
f 54 66 56 45
f 66 54 72 84
f 157 135 139
f 193 205 196
f 205 193 212
f 117 131 139 125
f 131 117 113 128
f 156 166 170 152
f 244 252 254 246
f 201 290 289
f 290 201 190 203
f 167 157 139 153
f 226 230 216 207 222
f 230 226 222
f 101 72 103
f 41 29 30 49
f 69 86 279 278
f 281 282 123 105 280
f 259 251 253 261
f 233 238 296 236
f 204 211 192
f 252 260 262 254
f 260 252 250 258
f 131 128 142 143
f 10 14 24 20
f 221 218 224 228
f 289 290 199
f 139 135 120 125
f 154 169 178 164
f 169 154 140 159
f 80 95 64
f 50 42 53
f 285 156 152 147
f 23 13 9 19
f 128 113 105 123
f 153 163 175 167
f 62 64 95 97
f 122 112 101 108
f 42 45 56 53
f 92 67 81
f 223 217 220 227
f 144 141 127 132
f 24 36 32 20
f 9 5 17 19
f 14 8 12
f 117 115 111 113
f 69 278 277
f 132 118 126 140
f 79 63 91
f 194 187 289 199
f 31 18 20 32
f 106 281 280
f 44 51 39 35
f 293 220 292
f 6 10 20 18
l 242 250
l 52 63
l 148 285
l 224 232
l 136 159
l 37 47
l 205 218
l 89 94
l 216 224
l 38 48
l 78 84
l 107 120
l 41 44
l 279 280
l 70 89
l 177 188
l 122 136
l 249 257
l 155 285
l 50 276
l 169 193
l 162 172
l 173 181
l 52 67
l 144 150
l 96 110
l 223 231
l 195 204
l 213 217
l 286 287
l 37 51
l 137 138
l 137 147
l 59 75
l 99 111
l 124 282
l 51 71
l 238 246
l 287 288
l 70 75
l 11 16
l 190 210
l 19 29
l 237 296
l 92 99
l 152 158
l 172 198
l 175 195
l 293 294
l 133 145
l 85 105
l 144 154
l 26 28
l 176 187
l 221 293
l 234 235
l 55 73
l 294 295
l 165 168
l 180 184
l 107 119
l 143 149
l 122 126
l 241 243
l 48 60
l 268 269
l 212 216
l 165 288
l 230 233
l 84 108
l 103 121
l 183 194
l 242 244
l 230 242
l 4 8
l 114 118
l 194 202
l 114 127
l 301 302
l 210 291
l 204 217
l 110 120
l 36 45
l 1 5
l 150 164
l 88 92
l 248 250
l 213 292
l 22 25
l 91 115
l 2 6
l 143 153
l 249 251
l 241 247
l 40 60
l 102 130
l 183 189
l 33 39
l 242 248
l 133 135
l 3 7
l 245 253
l 146 162
l 136 140
l 221 292
l 255 257
l 68 278
l 185 215
l 267 268
l 87 104
l 234 243
l 110 115
l 36 40
l 7 13
l 208 209
l 237 245
l 256 258
l 229 241
l 150 168
l 186 216
l 300 301
l 51 65
l 176 288
l 32 42
l 249 255
l 165 287
l 61 96
l 211 219
l 188 289
l 14 21
l 43 57
l 62 70
l 230 232
l 54 66
l 274 275
l 135 157
l 193 205
l 117 131
l 156 166
l 244 252
l 201 290
l 254 302
l 157 167
l 28 40
l 208 213
l 91 96
l 226 230
l 151 155
l 72 101
l 21 28
l 143 152
l 29 41
l 190 191
l 69 86
l 281 282
l 124 138
l 228 294
l 211 223
l 251 259
l 262 305
l 282 283
l 6 266
l 233 238
l 164 174
l 204 211
l 252 260
l 57 71
l 229 231
l 128 131
l 288 289
l 10 14
l 218 221
l 50 59
l 53 64
l 289 290
l 135 139
l 193 196
l 86 106
l 185 192
l 225 229
l 154 169
l 263 264
l 68 85
l 201 289
l 186 193
l 17 30
l 80 95
l 207 216
l 235 296
l 31 50
l 42 50
l 61 63
l 156 285
l 13 23
l 189 194
l 102 119
l 160 167
l 113 128
l 153 163
l 232 236
l 243 245
l 62 64
l 244 246
l 95 97
l 159 162
l 167 175
l 206 219
l 229 239
l 112 122
l 120 135
l 42 45
l 82 90
l 61 67
l 238 296
l 85 279
l 134 146
l 160 171
l 240 244
l 153 167
l 251 253
l 94 100
l 163 173
l 295 296
l 46 60
l 174 182
l 67 92
l 27 37
l 196 205
l 214 218
l 49 52
l 217 223
l 138 148
l 269 270
l 101 108
l 141 144
l 50 53
l 239 247
l 123 282
l 302 303
l 23 35
l 240 248
l 233 236
l 24 36
l 245 299
l 276 277
l 250 252
l 41 52
l 17 269
l 101 103
l 109 116
l 101 112
l 247 255
l 34 40
l 42 53
l 192 211
l 93 113
l 5 9
l 45 54
l 205 212
l 8 14
l 257 259
l 258 260
l 250 256
l 169 178
l 166 288
l 119 133
l 71 102
l 15 21
l 115 117
l 184 190
l 16 22
l 246 254
l 38 46
l 19 23
l 69 278
l 239 241
l 212 224
l 111 115
l 140 159
l 283 284
l 152 170
l 103 129
l 253 261
l 62 97
l 177 288
l 199 290
l 65 102
l 275 276
l 254 262
l 118 132
l 97 109
l 145 157
l 157 185
l 227 235
l 30 273
l 70 82
l 59 82
l 290 291
l 161 164
l 214 292
l 155 287
l 228 236
l 152 156
l 63 79
l 92 115
l 12 15
l 264 265
l 125 139
l 104 116
l 187 194
l 18 31
l 74 93
l 126 140
l 168 180
l 216 230
l 99 113
l 158 163
l 105 280
l 161 168
l 190 203
l 40 54
l 81 92
l 220 227
l 106 281
l 121 146
l 230 240
l 194 200
l 52 55
l 44 51
l 194 209
l 65 83
l 199 289
l 164 178
l 234 237
l 66 84
l 77 102
l 200 208
l 202 290
l 49 276
l 32 36
l 11 13
l 297 298
l 92 96
l 100 109
l 140 154
l 183 187
l 14 24
l 86 279
l 25 33
l 44 55
l 154 164
l 117 125
l 184 188
l 55 61
l 47 57
l 26 34
l 118 126
l 139 157
l 7 11
l 236 296
l 219 225
l 29 35
l 197 206
l 241 249
l 260 262
l 121 136
l 222 226
l 220 293
l 194 199
l 3 9
l 252 254
l 176 179
l 193 212
l 223 227
l 55 65
l 215 223
l 296 297
l 58 61
l 39 57
l 77 83
l 139 153
l 28 38
l 150 161
l 229 234
l 168 174
l 59 62
l 248 256
l 29 30
l 218 224
l 21 26
l 171 185
l 13 22
l 270 271
l 143 158
l 124 127
l 132 140
l 105 123
l 259 261
l 6 10
l 147 285
l 172 186
l 271 272
l 303 304
l 222 230
l 146 159
l 106 124
l 18 20
l 304 305
l 147 152
l 58 74
l 98 110
l 167 192
l 277 278
l 120 125
l 91 98
l 72 103
l 278 279
l 190 201
l 171 197
l 132 144
l 25 27
l 220 292
l 64 95
l 54 72
l 284 285
l 209 291
l 17 19
l 18 269
l 131 139
l 20 24
l 285 286
l 178 196
l 112 116
l 128 142
l 187 289
l 113 117
l 105 113
l 6 18
l 75 90
l 106 114
l 138 284
l 253 302
l 204 208
l 233 244
l 116 118
l 39 51
l 159 169
l 9 19
l 131 143
l 246 299
l 57 77
l 72 84
l 179 183
l 10 20
l 227 294
l 156 287
l 53 70
l 240 242
l 64 76
l 211 215
l 83 98
l 67 81
l 127 132
l 83 107
l 5 17
l 127 141
l 94 116
l 87 95
l 60 78
l 79 91
l 20 32
l 49 68
l 247 249
l 71 83
l 207 222
l 291 292
l 53 56
l 50 69
l 142 143
l 23 33
l 35 44
l 292 293
l 64 80
l 243 251
l 75 89
l 163 175
l 261 305
l 138 283
l 24 34
l 265 266
l 97 104
l 5 266
l 27 39
l 108 122
l 38 54
l 266 267
l 298 299
l 159 186
l 109 114
l 69 277
l 299 300
l 170 173
l 119 145
l 221 228
l 56 62
l 272 273
l 35 39
l 94 97
l 8 12
l 273 274
l 9 13
l 198 207
l 217 220
l 49 58
l 177 180
l 78 103
l 155 286
l 31 273
l 192 204
l 12 14
l 4 10
l 280 281
l 224 228
l 56 66
l 123 128
l 96 111
l 123 137
l 166 170
l 37 43
l 45 56
l 203 290
l 97 112
l 145 160
l 60 72
l 108 121
l 22 27
l 206 215
l 30 49
l 41 49
l 250 258
l 41 58
l 70 94
l 31 32
l 111 113
l 231 235
l 63 73
l 106 280
l 119 135
l 63 91
