v -0.1627 0.9553 -0.3739
v 0.1622 0.9548 -0.3743
v -0.1626 0.9092 -0.1889
v 0.1615 0.9097 -0.1896
v -0.3153 0.8960 -0.3775
v 0.3137 0.8957 -0.3744
v -0.3161 0.8525 -0.2232
v 0.3139 0.8531 -0.2218
v -0.1591 0.8236 -0.0450
v 0.1603 0.8238 -0.0461
v -0.4317 0.8009 -0.3640
v 0.4314 0.8008 -0.3678
v -0.3126 0.7755 -0.0951
v 0.3118 0.7762 -0.0957
v -0.4339 0.7621 -0.2649
v 0.4329 0.7623 -0.2649
v -0.4319 0.6960 -0.1581
v 0.4304 0.6956 -0.1570
v 0.5078 0.6943 -0.3699
v -0.5063 0.6939 -0.3541
v -0.1501 0.6806 0.0767
v 0.1487 0.6813 0.0767
v -0.3005 0.6518 0.0148
v 0.2995 0.6524 0.0144
v 0.5121 0.6523 -0.3098
v -0.5136 0.6525 -0.3119
v -0.4209 0.5935 -0.0706
v 0.4199 0.5938 -0.0706
v -0.5114 0.5921 -0.2309
v 0.5096 0.5914 -0.2285
v -0.5631 0.5340 -0.3612
v 0.5599 0.5338 -0.3468
v -0.2831 0.5061 0.0849
v -0.1327 0.5072 0.1485
v 0.1316 0.5071 0.1487
v 0.2827 0.5060 0.0846
v -0.4991 0.5022 -0.1511
v 0.4976 0.5021 -0.1500
v -0.4048 0.4744 -0.0104
v 0.4040 0.4747 -0.0106
v -0.5573 0.4683 -0.2972
v 0.5556 0.4680 -0.2942
v -0.4817 0.4047 -0.1002
v 0.4806 0.4054 -0.1000
v -0.2694 0.3883 0.1083
v 0.2685 0.3887 0.1083
v -0.5440 0.3783 -0.2321
v -0.3898 0.3766 0.0184
v 0.3900 0.3766 0.0173
v 0.5443 0.3775 -0.2324
v -0.5750 0.3728 -0.1867
v 0.5762 0.3709 -0.1879
v -0.1212 0.3551 0.1689
v 0.1197 0.3550 0.1690
v -0.4635 0.3243 -0.0745
v -0.2627 0.3231 0.1115
v 0.2606 0.3229 0.1121
v 0.4612 0.3238 -0.0725
v -0.3685 0.3104 0.0344
v 0.3665 0.3111 0.0353
v -0.5210 0.2945 -0.1797
v -0.1542 0.2931 0.1555
v 0.1484 0.2922 0.1569
v 0.5205 0.2943 -0.1832
v -0.2572 0.2704 0.1096
v 0.2560 0.2704 0.1098
v -0.3350 0.2566 0.0576
v 0.3319 0.2563 0.0593
v -0.4313 0.2671 -0.0386
v 0.4306 0.2669 -0.0388
v -0.1777 0.2488 0.1452
v -0.0541 0.2607 0.1734
v 0.0522 0.2603 0.1734
v 0.1743 0.2499 0.1461
v -0.4943 0.2417 -0.1395
v 0.4934 0.2412 -0.1395
v -0.4003 0.2392 -0.0060
v -0.0915 0.2400 0.1659
v 0.0889 0.2391 0.1661
v 0.3981 0.2391 -0.0046
v -0.5564 0.2240 -0.3195
v 0.5565 0.2222 -0.3313
v -0.3897 0.2049 -0.0050
v 0.3926 0.2121 0.0000
v -0.1162 0.2180 0.1588
v 0.1130 0.2171 0.1602
v -0.4537 0.2155 -0.0753
v 0.4528 0.2151 -0.0753
v -0.0455 0.2043 0.1720
v 0.0439 0.2046 0.1723
v 0.3767 0.1923 0.0155
v -0.1233 0.1919 0.1609
v 0.1176 0.1915 0.1622
v 0.0751 0.1864 0.1716
v -0.3295 0.1666 0.0601
v -0.1838 0.1672 0.1458
v -0.0795 0.1843 0.1710
v 0.1815 0.1663 0.1463
v 0.3216 0.1765 0.0656
v -0.2580 0.1578 0.1118
v 0.2572 0.1567 0.1123
v -0.4069 0.1649 -0.0164
v -0.0970 0.1617 0.1722
v 0.0955 0.1634 0.1719
v 0.4032 0.1645 -0.0132
v -0.5312 0.1593 -0.2480
v 0.5294 0.1589 -0.2452
v 0.3357 0.1521 0.0562
v -0.0456 0.1388 0.1836
v 0.0450 0.1382 0.1838
v -0.4431 0.1337 -0.0661
v 0.4405 0.1339 -0.0635
v 0.1701 0.1257 0.1575
v -0.3505 0.1234 0.0450
v -0.1722 0.1256 0.1570
v 0.3505 0.1224 0.0438
v -0.0887 0.1174 0.1815
v 0.0879 0.1176 0.1813
v -0.2638 0.1093 0.1141
v 0.2624 0.1093 0.1144
v -0.1681 0.0858 0.1644
v 0.1661 0.0861 0.1647
v -0.4841 0.0786 -0.1466
v -0.3727 0.0776 0.0248
v 0.4849 0.0791 -0.1504
v 0.3715 0.0769 0.0250
v -0.0519 0.0671 0.1967
v 0.0530 0.0673 0.1964
v -0.2680 0.0656 0.1156
v 0.2690 0.0655 0.1143
v 0.0948 0.0463 0.1939
v -0.0966 0.0457 0.1936
v 0.5349 0.0384 -0.3440
v -0.5351 0.0383 -0.3386
v -0.1644 0.0206 0.1764
v 0.1641 0.0208 0.1760
v -0.5203 0.0150 -0.2987
v 0.5196 0.0150 -0.3000
v -0.3939 0.0028 -0.0056
v 0.3931 0.0023 -0.0059
v -0.0641 -0.0044 0.2049
v 0.0634 -0.0045 0.2048
v -0.2744 -0.0202 0.1123
v 0.2732 -0.0200 0.1125
v 0.1010 -0.0208 0.1961
v -0.1023 -0.0221 0.1961
v -0.1344 -0.0454 0.1843
v 0.1323 -0.0459 0.1844
v -0.4701 -0.0570 -0.1701
v 0.4686 -0.0573 -0.1687
v -0.0651 -0.0699 0.1934
v 0.0646 -0.0601 0.1993
v -0.1096 -0.0873 0.1751
v 0.1095 -0.0980 0.1804
v 0.0547 -0.0854 0.1872
v -0.0724 -0.1043 0.1749
v -0.2085 -0.0977 0.1210
v 0.2057 -0.0978 0.1390
v 0.0797 -0.1012 0.1664
v 0.0276 -0.1213 0.1607
v -0.0309 -0.1211 0.1606
v -0.3688 -0.1213 -0.0339
v -0.1138 -0.1180 0.1482
v 0.3686 -0.1214 -0.0348
v -0.4962 -0.1327 -0.3413
v 0.0756 -0.1312 0.1379
v 0.4979 -0.1319 -0.3585
v -0.1629 -0.1586 0.0921
v 0.1641 -0.1582 0.0914
v 0.0402 -0.1765 0.1197
v -0.0401 -0.1772 0.1195
v -0.2723 -0.1831 0.0240
v 0.0885 -0.1828 0.1113
v 0.2710 -0.1830 0.0244
v -0.0902 -0.1843 0.1105
v -0.4434 -0.2018 -0.2210
v 0.4425 -0.2023 -0.2210
v -0.1492 -0.2098 0.0923
v 0.1468 -0.2095 0.0929
v -0.2208 -0.2220 0.0556
v -0.0478 -0.2233 0.1181
v 0.0469 -0.2234 0.1181
v 0.2194 -0.2227 0.0562
v -0.0953 -0.2315 0.1106
v 0.0928 -0.2313 0.1111
v -0.1952 -0.2501 0.0636
v 0.1936 -0.2496 0.0642
v -0.1489 -0.2535 0.0853
v 0.1469 -0.2527 0.0858
v -0.3607 -0.2582 -0.0949
v 0.3588 -0.2585 -0.0934
v -0.0879 -0.2651 0.1012
v 0.0875 -0.2654 0.1010
v -0.1824 -0.2728 0.0629
v 0.1484 -0.3145 0.0678
v 0.1916 -0.2901 0.0488
v -0.2900 -0.2771 -0.0196
v 0.2880 -0.2764 -0.0183
v -0.1489 -0.3036 0.0676
v -0.2420 -0.2821 0.0173
v 0.2397 -0.2826 0.0180
v -0.2073 -0.2836 0.0403
v -0.4501 -0.2872 -0.3530
v 0.4469 -0.2869 -0.3395
v -0.0826 -0.2902 0.0948
v -0.1900 -0.3034 0.0468
v 0.0800 -0.2887 0.0894
v -0.0862 -0.3229 0.0918
v 0.0846 -0.3232 0.0921
v -0.2219 -0.3344 0.0230
v 0.2202 -0.3352 0.0236
v -0.3930 -0.3480 -0.2486
v 0.3914 -0.3484 -0.2539
v -0.1551 -0.3527 0.0580
v -0.0875 -0.3551 0.0847
v 0.0861 -0.3552 0.0849
v -0.2597 -0.3660 -0.0278
v 0.2575 -0.3654 -0.0262
v -0.0900 -0.3813 0.0693
v 0.0891 -0.3814 0.0693
v -0.3136 -0.3859 -0.1253
v 0.3119 -0.3865 -0.1241
v -0.1702 -0.3895 0.0284
v 0.1685 -0.3898 0.0288
v -0.3685 -0.4228 -0.3700
v -0.0963 -0.4200 0.0610
v 0.0951 -0.4203 0.0611
v 0.3685 -0.4232 -0.3790
v -0.1933 -0.4417 -0.0006
v 0.1918 -0.4419 -0.0001
v -0.3315 -0.4518 -0.2277
v 0.3307 -0.4505 -0.2281
v -0.1088 -0.4839 0.0576
v 0.1068 -0.4840 0.0581
v -0.3219 -0.4850 -0.2100
v 0.3204 -0.4842 -0.2086
v -0.2177 -0.4945 -0.0255
v 0.2158 -0.4939 -0.0247
v 0.2324 -0.5360 -0.0508
v -0.2336 -0.5365 -0.0511
v -0.1198 -0.5456 0.0467
v 0.1177 -0.5454 0.0473
v -0.1237 -0.5848 -0.0014
v 0.1219 -0.5858 -0.0012
v -0.3485 -0.5992 -0.3484
v 0.3472 -0.5995 -0.3461
v -0.3052 -0.6451 -0.2643
v 0.3043 -0.6450 -0.2643
v -0.2254 -0.6893 -0.1666
v 0.2242 -0.6892 -0.1664
v -0.1183 -0.7216 -0.1050
v 0.1175 -0.7219 -0.1051
v -0.3562 -0.7786 -0.3793
v 0.3557 -0.7791 -0.3817
v -0.3141 -0.8154 -0.2630
v 0.3134 -0.8152 -0.2635
v -0.2321 -0.8480 -0.1648
v 0.2314 -0.8478 -0.1650
v -0.1224 -0.8700 -0.1003
v 0.1211 -0.8700 -0.1002
v -0.3774 -0.9239 -0.3787
v 0.3763 -0.9237 -0.3778
v -0.3328 -0.9558 -0.3723
v 0.3319 -0.9562 -0.3728
v -0.2448 -0.9843 -0.3753
v 0.2434 -0.9832 -0.3588
v -0.1282 -0.9993 -0.3525
v 0.1252 -0.9991 -0.3512
v 0.0007 0.9825 -0.4332
v -0.0005 0.9349 -0.1965
v -0.0005 0.8873 -0.0967
v -0.0005 0.8397 -0.0285
v -0.0005 0.7921 0.0202
v -0.0005 0.7444 0.0594
v -0.0005 0.6968 0.0910
v -0.0005 0.6492 0.1150
v -0.0005 0.6016 0.1359
v -0.0005 0.5540 0.1515
v -0.0005 0.5063 0.1662
v -0.0005 0.4587 0.1732
v -0.0005 0.4111 0.1791
v 0.0007 0.3635 0.1817
v -0.0005 0.3159 0.1795
v -0.0017 0.2683 0.1761
v -0.0005 0.2206 0.1716
v -0.0017 0.1730 0.1795
v 0.0007 0.1254 0.1884
v -0.0005 0.0778 0.1997
v -0.0005 0.0302 0.2063
v 0.0007 -0.0175 0.2091
v -0.0005 -0.0651 0.2020
v -0.0005 -0.1127 0.1703
v -0.0005 -0.1603 0.1231
v -0.0005 -0.2079 0.1200
v -0.0005 -0.2556 0.1146
v -0.0005 -0.3032 0.0990
v 0.0007 -0.3508 0.0972
v -0.0005 -0.3984 0.0778
v -0.0005 -0.4460 0.0789
v -0.0005 -0.4937 0.0840
v -0.0017 -0.5413 0.0789
v -0.0017 -0.5889 0.0572
v -0.0005 -0.6365 -0.0703
v -0.0005 -0.6841 -0.0807
v -0.0005 -0.7317 -0.0842
v -0.0005 -0.7794 -0.0853
v -0.0005 -0.8270 -0.0831
v -0.0005 -0.8746 -0.0786
v -0.0005 -0.9222 -0.0757
v -0.0005 -0.9698 -0.2155
v -0.0005 -1.0175 -0.1696
